<svg width="28" height="28" viewBox="0 0 28 28" fill="none" xmlns="http://www.w3.org/2000/svg">
<g clip-path="url(#clip0)">
<path d="M8.169 17.6318L5.60467 18.7402L7.98 19.761L10.7333 18.7402L8.169 17.6318ZM4.31317 19.0167L4.22683 24.0042L7.98 25.6667V20.489L4.31317 19.0167ZM12.0248 19.0167L8.6345 20.3152V25.2L12.026 23.8152V19.0167H12.0248ZM16.0732 3.5L13.4902 4.60833L15.883 5.63033L18.6375 4.60833L16.072 3.5H16.0732ZM12.4915 4.97233V9.95983L15.694 10.8955L15.7978 6.35717L12.4915 4.97233ZM19.6548 5.25L16.6238 6.5485V11.4485L19.6537 10.0637V5.25H19.6548ZM3.941 10.5198L1.37667 11.6282L3.752 12.6502L6.50533 11.6282L3.941 10.5198ZM0.0863333 11.9047L0 16.8933L3.75317 18.5558V13.3782L0.0863333 11.9047ZM7.798 11.9047L4.40767 13.2043V18.0868L7.79917 16.702V11.9047H7.798ZM12.2068 10.3355L9.64133 11.4438L12.0167 12.4658L14.7712 11.4438L12.2068 10.3355ZM8.34983 11.7215L8.2635 16.709L12.0167 18.3715V13.1938L8.34983 11.7215ZM16.0627 11.7215L12.6712 13.02V17.9037L16.0627 16.5177V11.7215ZM24.143 3.5L21.5787 4.60833L23.954 5.63033L26.7085 4.60833L24.143 3.5ZM20.2883 4.88483L20.202 9.87233L23.9552 11.5348V6.35833L20.2883 4.88483ZM28.0012 4.88483L24.6097 6.1845V11.0682L28 9.68217V4.88483H28.0012Z" fill="#F7A80D"/>
</g>
<defs>
<clipPath id="clip0">
<rect width="28" height="28" fill="white"/>
</clipPath>
</defs>
</svg>
