<svg width="28" height="28" viewBox="0 0 28 28" fill="none" xmlns="http://www.w3.org/2000/svg">
<g clip-path="url(#clip0)">
<path d="M13.9942 28.0002V22.6242C19.7458 22.6242 24.1932 16.9775 21.9975 10.9808C21.5887 9.87715 20.9438 8.87604 20.1079 8.04743C19.2721 7.21882 18.2654 6.5827 17.1582 6.1835C11.1125 4.0065 5.4215 8.4165 5.42033 14.1192C5.42033 14.1192 5.42033 14.1215 5.418 14.1215H0C0 5.03317 8.85267 -2.04383 18.4543 0.928833C22.6508 2.2285 25.9852 5.536 27.2953 9.6975C30.2925 19.221 23.1583 28.0002 13.9953 28.0002" fill="#0069FF"/>
<path d="M14.007 22.6381H8.603V17.2808H14.007V22.6381ZM8.60183 26.7564H4.452L4.45083 26.7553V22.6381H8.603V26.7553L8.60183 26.7564ZM4.45317 22.6381H0.971832V19.1883C0.971832 19.1883 0.971832 19.1859 0.974166 19.1859H4.45317V22.6393V22.6381Z" fill="#0069FF"/>
</g>
<defs>
<clipPath id="clip0">
<rect width="28" height="28" fill="white"/>
</clipPath>
</defs>
</svg>
