<svg width="28" height="28" viewBox="0 0 28 28" fill="none" xmlns="http://www.w3.org/2000/svg">
<path d="M25.3703 27.9347H8.45368C7.00701 27.9347 5.83334 26.74 5.83334 25.27V2.6635C5.83334 1.1935 7.00584 0 8.45368 0H25.3703C26.817 0 27.9907 1.19233 27.9907 2.6635V25.27C27.9907 26.7412 26.817 27.9347 25.3703 27.9347Z" fill="#6762A6"/>
<path d="M19.719 24.0917V12.9967C19.719 12.9967 20.4283 10.3425 10.9783 14.0828C10.9608 14.1295 10.9608 3.82433 10.9608 3.82433L14.049 3.80566V10.409C14.049 10.409 22.694 6.94633 22.694 13.034V24.0905H19.719V24.0917ZM21.4783 7.80033H18.2035C19.3818 6.335 20.4493 3.82316 20.4493 3.82316H23.8362C23.8362 3.82316 23.2563 5.46 21.4783 7.8015V7.80033ZM11.0168 24.0718V17.7543L14.1237 20.9125L11.0168 24.0718Z" fill="white"/>
</svg>
