<svg width="29" height="28" fill="none" xmlns="http://www.w3.org/2000/svg"><g clip-path="url(#clip0)"><path d="M1.196 1.2h26.32v25.6H1.196V1.2z" fill="url(#paint0_radial)"/><path d="M1.196 1.2h26.32v25.6H1.196V1.2zM0 27.996h28.712V.003H0v27.994zM18.806 9.98c0-.095.036-.143.144-.143h1.878c.096 0 .144.036.144.143v9.44c0 .095-.024.143-.144.143h-1.854c-.12 0-.156-.06-.156-.155V9.98h-.012zm-.131-2.715c0-.766.538-1.22 1.22-1.22.73 0 1.22.49 1.22 1.22 0 .79-.514 1.22-1.244 1.22-.694 0-1.196-.43-1.196-1.22zm-5.384 6.651c-.335-1.328-1.124-4.223-1.423-5.622h-.024c-.252 1.4-.885 3.768-1.388 5.622h2.835zm-3.325 1.938l-.946 3.59c-.024.095-.06.119-.18.119H7.083c-.12 0-.143-.036-.12-.18l3.397-11.89c.06-.215.096-.407.12-.993 0-.084.036-.12.096-.12h2.512c.084 0 .12.024.144.12l3.804 12.908c.024.096 0 .156-.096.156h-1.986c-.096 0-.155-.024-.18-.108l-.98-3.6H9.965z" fill="#FF7F18"/></g><defs><radialGradient id="paint0_radial" cx="0" cy="0" r="1" gradientUnits="userSpaceOnUse" gradientTransform="matrix(20.0028 0 0 19.3663 9.865 6.937)"><stop stop-color="#423325" stop-opacity=".98"/><stop offset="1" stop-color="#1C0A00"/></radialGradient><clipPath id="clip0"><path fill="#fff" d="M0 0h28.712v28H0z"/></clipPath></defs></svg>