<svg width="30" height="28" fill="none" xmlns="http://www.w3.org/2000/svg"><g clip-path="url(#clip0)"><path d="M1.908 1.2h26.32v25.6H1.908V1.2z" fill="url(#paint0_radial)"/><path d="M1.908 1.2h26.32v25.6H1.908V1.2zM.712 27.996h28.712V.003H.712v27.994zm20.314-14.5c.61 0 .825 0 .885-.023 0-.084.024-.144.024-.204 0-.646-.311-1.842-1.555-1.842-1.149 0-1.64 1.005-1.759 2.07h2.405zm-2.429 1.64c.024 1.615.79 2.703 2.608 2.703.706 0 1.316-.095 1.95-.37.084-.036.144-.024.144.083v1.496c0 .12-.036.18-.12.239-.634.311-1.423.455-2.404.455-3.159 0-4.343-2.333-4.343-4.93 0-2.823 1.46-5.132 4.032-5.132 2.608 0 3.517 2.19 3.517 3.972 0 .574-.036 1.041-.096 1.268-.024.096-.06.132-.155.156-.24.036-.945.084-1.998.084h-3.135v-.024zm-6.412-1.22c-.335-1.329-1.149-4.224-1.448-5.623h-.024c-.25 1.4-.909 3.768-1.4 5.622h2.872zm-3.362 1.937l-.945 3.578c-.024.095-.06.131-.18.131H5.94c-.12 0-.144-.036-.12-.18L9.218 7.505c.06-.215.096-.383.12-.981 0-.084.035-.12.095-.12h2.513c.083 0 .12.024.143.12l3.804 12.885c.024.095 0 .155-.095.155h-1.974c-.096 0-.156-.036-.18-.12l-.98-3.589h-3.84z" fill="#D8A1FF"/></g><defs><radialGradient id="paint0_radial" cx="0" cy="0" r="1" gradientUnits="userSpaceOnUse" gradientTransform="matrix(20.0028 0 0 19.3663 10.577 6.937)"><stop stop-color="#442F55" stop-opacity=".98"/><stop offset="1" stop-color="#12002C"/></radialGradient><clipPath id="clip0"><path fill="#fff" transform="translate(.712)" d="M0 0h28.712v28H0z"/></clipPath></defs></svg>