<svg width="28" height="28" fill="none" xmlns="http://www.w3.org/2000/svg"><path d="M2.771 3.078H25.23v21.845H2.77V3.078z" fill="#0C0824"/><path d="M2.771 3.077H25.23v21.845H2.77V3.078zM1.75 25.944h24.5V2.056H1.75v23.888zm16.517-14.088c-.806 0-1.082.409-1.082.746 0 .367.184.623 1.266 1.184 1.603.776 2.1 1.52 2.1 2.613 0 1.634-1.245 2.511-2.93 2.511a4.441 4.441 0 01-2.092-.437c-.072-.03-.082-.081-.082-.164v-1.502c0-.102.051-.133.123-.081a3.789 3.789 0 002.052.602c.806 0 1.143-.337 1.143-.797 0-.367-.234-.694-1.266-1.225-1.45-.694-2.052-1.4-2.052-2.572 0-1.317 1.031-2.41 2.818-2.41a4.695 4.695 0 011.827.287.226.226 0 01.102.204v1.4c0 .081-.05.133-.153.102a3.448 3.448 0 00-1.776-.46h.002zm-8.78 1.215c.235.02.419.02.828.02 1.194 0 2.317-.418 2.317-2.042 0-1.296-.807-1.95-2.164-1.95-.409 0-.797.021-.98.032v3.94zM7.67 7.646c0-.072.143-.123.225-.123a61.076 61.076 0 012.634-.05c2.828 0 3.93 1.55 3.93 3.532 0 2.592-1.878 3.705-4.185 3.705-.387 0-.52-.02-.796-.02v3.92c0 .082-.03.123-.123.123H7.794c-.082 0-.123-.03-.123-.123V7.646z" fill="#31C5F0"/></svg>