<svg width="31" height="28" fill="none" xmlns="http://www.w3.org/2000/svg"><path d="M15.448 0L6.741.92 0 9.97l15.448 17.99L30.897 9.97 24.156.92 15.448 0z" fill="#FDB300"/><path d="M0 9.97l15.448 17.99-9.19-17.99H0zm24.64 0l-9.192 17.99L30.897 9.97h-6.258z" fill="#EB6C00"/><path d="M6.257 9.97l9.191 17.99L24.64 9.97H6.257z" fill="#FDAD00"/><path d="M6.741.92l-.484 9.05L15.448 0 6.741.92zM24.64 9.97L24.154.92 15.448 0l9.191 9.97z" fill="#FDD231"/><path d="M24.64 9.97h6.257L24.156.92l.483 9.05zM0 9.97h6.257L6.741.92 0 9.97z" fill="#FDAD00"/><path d="M15.448 0l-9.19 9.97h18.381L15.45 0z" fill="#FEEEB7"/></svg>