<svg width="36" height="28" fill="none" xmlns="http://www.w3.org/2000/svg"><path d="M5.39 19.27l-1.83.669-.098 5.441 6.332-2.313c-2.172-.73-3.758-2.013-4.405-3.797z" fill="#FDBD39"/><path d="M6.347 13.515L0 15.834l3.56 4.105 1.83-.668c-.646-1.779-.248-3.79.957-5.756z" fill="#F69833"/><path d="M17.027 5.663C8.945 8.615 3.735 14.708 5.389 19.271L34.656 8.579C33.002 4.016 25.11 2.71 17.027 5.663" fill="#FECF33"/><path d="M23.019 22.187c8.082-2.953 13.302-9.018 11.638-13.608L5.389 19.271c1.665 4.59 9.548 5.868 17.63 2.916z" fill="#EE6723"/><path d="M34.657 8.579L5.389 19.27c.574 1.58 2.759 2.36 5.825 2.36 2.99 0 6.817-.74 10.806-2.197C30.102 16.48 35.788 11.7 34.657 8.579" fill="#F69833"/><path d="M28.832 6.22c-2.99 0-6.817.74-10.806 2.197C9.944 11.37 4.258 16.15 5.389 19.271L34.656 8.579C34.084 7 31.899 6.22 28.833 6.22" fill="#FDBD39"/><path d="M27.215 25.669c-.861 0-2.131-.778-3.776-2.312-1.945-1.815-4.174-4.473-6.275-7.485-2.1-3.012-3.827-6.023-4.861-8.478-1.127-2.676-1.287-4.322-.477-4.89.177-.125.391-.189.635-.189.66 0 1.942.49 4.315 2.827l.052.05-.007.073-.045.504-.026.33-.233-.235C13.961 3.288 12.835 3.01 12.47 3.01a.424.424 0 00-.247.063c-.35.247-.373 1.456.719 4.05 1.015 2.412 2.716 5.377 4.79 8.35s4.268 5.591 6.18 7.374c2.06 1.922 2.988 2.13 3.292 2.13a.43.43 0 00.253-.068c.37-.26.37-1.554-.847-4.347l-.056-.128.122-.067c.123-.067.241-.133.352-.196l.147-.083.067.154c.864 1.979 1.671 4.493.613 5.238a1.088 1.088 0 01-.64.189zm0-.306v.153-.153z" fill="#EE6723"/><path d="M23.215 22.103l-.012.152c-.204 2.528-.742 5.568-2.145 5.69a.948.948 0 01-.087.005c-.953 0-1.854-1.366-2.68-4.058-.78-2.548-1.386-5.968-1.705-9.631-.32-3.663-.315-7.137.013-9.782.358-2.883 1.039-4.389 2.023-4.475a.965.965 0 01.09-.004c.69 0 1.733.783 2.799 4.429l-.696.134c-.356-1.218-.745-2.21-1.13-2.89-.356-.63-.703-.977-.976-.977l-.026.001c-.427.038-1.049 1.073-1.395 3.868-.323 2.598-.326 6.02-.011 9.635.315 3.616.91 6.985 1.677 9.487.344 1.12.72 2.044 1.09 2.67.34.579.67.897.927.897l.026-.001c.409-.036 1.178-1.113 1.502-4.904l.716-.246z" fill="#EE6723"/></svg>