<svg width="28" height="28" fill="none" xmlns="http://www.w3.org/2000/svg"><path d="M13.773 21.627s-1.083.62.77.83c2.244.252 3.392.216 5.867-.245 0 0 .65.402 1.558.75-5.546 2.343-12.553-.136-8.195-1.335zm-.678-3.057s-1.215.886.639 1.073c2.399.245 4.293.265 7.57-.357 0 0 .453.453 1.167.7-6.707 1.933-14.175.153-9.376-1.417" fill="#5382A1"/><path d="M18.807 13.382c1.367 1.552-.358 2.947-.358 2.947s3.47-1.765 1.875-3.976c-1.487-2.063-2.63-3.087 3.55-6.619 0 0-9.699 2.387-5.066 7.649" fill="#E76F00"/><path d="M26.143 23.888s.801.65-.882 1.155c-3.202.955-13.325 1.243-16.136.037-1.012-.433.884-1.035 1.481-1.16.62-.134.977-.11.977-.11-1.125-.78-7.267 1.534-3.12 2.196 11.307 1.809 20.614-.814 17.68-2.118zM14.293 15.4s-5.15 1.206-1.824 1.644c1.404.184 4.204.144 6.811-.072 2.13-.177 4.27-.554 4.27-.554s-.75.317-1.295.683c-5.227 1.356-15.33.725-12.421-.661 2.46-1.173 4.459-1.038 4.459-1.038V15.4zm9.236 5.09c5.317-2.723 2.859-5.34 1.144-4.987a4.05 4.05 0 00-.608.161s.155-.24.454-.345c3.394-1.176 6.003 3.468-1.097 5.308 0 0 .083-.072.107-.138z" fill="#5382A1"/><path d="M20.325.03s2.944 2.903-2.792 7.365c-4.6 3.582-1.05 5.624-.002 7.955-2.685-2.387-4.654-4.49-3.333-6.446 1.94-2.871 7.315-4.263 6.127-8.874z" fill="#E76F00"/><path d="M14.816 27.868c5.101.322 12.937-.178 13.122-2.558 0 0-.357.901-4.217 1.618-4.354.808-9.726.714-12.912.196 0 0 .654.532 4.007.744z" fill="#5382A1"/></svg>