<svg width="28" height="28" fill="none" xmlns="http://www.w3.org/2000/svg"><g clip-path="url(#clip0)"><path d="M7.065 7.244L20.795 0 28 13.574l-13.608 7.243L7.065 7.244z" fill="#000"/><path d="M11.745 12.965L9.097 8.156l6.896 1.583-2.649-4.809" stroke="#FA1516" stroke-width=".689"/><path d="M20.057 16.679l-8.004-2.497m2.831 5.235l2.463-8.034-2.463 8.034z" stroke="#16D41A" stroke-width=".689"/><path d="M18.333 11.079l5.664-3.044" stroke="#FB16BB" stroke-width=".689"/><path d="M21.166 9.556l2.831 5.235" stroke="#FB16BB" stroke-width=".603"/><path d="M22.088 5.356c0 1.218-.614 2.313-1.6 2.8-1.6.792-3.571.122-4.25-1.521-.614-1.4 0-3.044 1.295-3.835a3.154 3.154 0 014.063 1.035l-5.418 2.8" stroke="#FCFC17" stroke-width=".689"/><path d="M5.833 15.156l1.232-7.242 6.895 12.965-1.6 6.33-6.527-12.052zM14.576 21l-1.847 6.452 12.746-6.755 2.463-6.636L14.576 21z" fill="#000"/></g><defs><clipPath id="clip0"><path fill="#fff" d="M0 0h28v28H0z"/></clipPath></defs></svg>