<svg width="28" height="28" fill="none" xmlns="http://www.w3.org/2000/svg"><g clip-path="url(#clip0)"><path d="M6.2 0h15.449c.751 0 1.481.12 2.19.372a6.155 6.155 0 012.647 1.88 6.144 6.144 0 011.339 2.998c.065.405.076.81.076 1.213V21.59c0 .482-.022.974-.12 1.445a6.201 6.201 0 01-1.47 2.92 6.166 6.166 0 01-2.724 1.762 6.527 6.527 0 01-1.951.283c-.294 0-15.482 0-15.71-.012a6.2 6.2 0 01-3.139-1.038A6.314 6.314 0 01.665 24.5a6.192 6.192 0 01-.622-2.723V6.223a5.825 5.825 0 01.578-2.679 6.203 6.203 0 012.103-2.461A6.087 6.087 0 015.851.02C5.959 0 6.078 0 6.2 0z" fill="url(#paint0_linear)"/><path d="M23.533 22.903a4.277 4.277 0 00-.327-.448 4.636 4.636 0 00-.937-.853 2.86 2.86 0 00-1.47-.504 2.653 2.653 0 00-1.09.175c-.35.13-.689.287-1.013.47-.38.204-.77.39-1.167.559-.478.196-.98.35-1.492.459-.64.116-1.29.168-1.939.154a13.16 13.16 0 01-3.442-.525 13 13 0 01-2.8-1.215 14.442 14.442 0 01-2.17-1.542 15.882 15.882 0 01-1.545-1.543 16.9 16.9 0 01-.937-1.203 5.113 5.113 0 01-.327-.513L0 13.256V6.202C0 2.777 2.757 0 6.167 0h5.502l4.074 4.157c9.196 6.277 6.22 13.2 6.22 13.2s2.616 2.954 1.57 5.546z" fill="url(#paint1_linear)"/><path d="M15.765 4.157c9.196 6.276 6.22 13.2 6.22 13.2s2.615 2.964 1.56 5.557c0 0-1.08-1.816-2.888-1.816-1.743 0-2.767 1.816-6.277 1.816-7.81 0-11.503-6.552-11.503-6.552 7.037 4.648 11.842 1.356 11.842 1.356C11.55 15.871 4.804 7.033 4.804 7.033c5.873 5.02 8.412 6.344 8.412 6.344-1.514-1.259-5.763-7.405-5.763-7.405 3.397 3.455 10.152 8.28 10.152 8.28 1.918-5.338-1.841-10.095-1.841-10.095h.001z" fill="#fff"/></g><defs><linearGradient id="paint0_linear" x1="16.591" y1="-.999" x2="11.27" y2="28.993" gradientUnits="userSpaceOnUse"><stop stop-color="#FAAE42"/><stop offset="1" stop-color="#EF3E31"/></linearGradient><linearGradient id="paint1_linear" x1="14.23" y1=".452" x2="10.641" y2="22.455" gradientUnits="userSpaceOnUse"><stop stop-color="#E39F3A"/><stop offset="1" stop-color="#D33929"/></linearGradient><clipPath id="clip0"><path fill="#fff" d="M0 0h28v28H0z"/></clipPath></defs></svg>