<svg width="28" height="28" viewBox="0 0 28 28" fill="none" xmlns="http://www.w3.org/2000/svg">
<path d="M13.7725 21.6267C13.7725 21.6267 12.6898 22.2473 14.5425 22.4573C16.7872 22.7093 17.9352 22.6732 20.4097 22.2123C20.4097 22.2123 21.0595 22.6137 21.9683 22.9625C16.422 25.3052 9.41501 22.826 13.7725 21.6267ZM13.0947 18.57C13.0947 18.57 11.8802 19.4555 13.734 19.6433C16.1327 19.8883 18.0273 19.9082 21.3045 19.2863C21.3045 19.2863 21.7572 19.739 22.4712 19.9863C15.764 21.9195 8.29618 20.1392 13.0947 18.5688" fill="#5382A1"/>
<path d="M18.8067 13.3819C20.174 14.9335 18.4485 16.3289 18.4485 16.3289C18.4485 16.3289 21.9182 14.5637 20.3245 12.3529C18.837 10.2902 17.6949 9.26587 23.8747 5.73438C23.8747 5.73438 14.175 8.12137 18.8079 13.383" fill="#E76F00"/>
<path d="M26.1427 23.8876C26.1427 23.8876 26.9442 24.5386 25.2607 25.0426C22.0593 25.9981 11.9362 26.2863 9.12452 25.08C8.11302 24.6471 10.0088 24.0451 10.6062 23.9191C11.2268 23.7861 11.5827 23.8106 11.5827 23.8106C10.458 23.0301 4.31552 25.3436 8.46302 26.0063C19.7703 27.8146 29.0768 25.192 26.1427 23.8876ZM14.2928 15.4013C14.2928 15.4013 9.14318 16.6065 12.4693 17.0451C13.8728 17.2295 16.6728 17.1886 19.2803 16.9728C21.4107 16.7955 23.5504 16.4186 23.5504 16.4186C23.5504 16.4186 22.8002 16.736 22.2553 17.1023C17.0275 18.458 6.92535 17.8268 9.83385 16.4408C12.2932 15.2683 14.2928 15.4025 14.2928 15.4025V15.4013ZM23.5293 20.4903C28.8458 17.7685 26.3877 15.1516 24.6727 15.504C24.2527 15.5903 24.0648 15.665 24.0648 15.665C24.0648 15.665 24.22 15.4246 24.5187 15.3196C27.9125 14.1436 30.5223 18.7881 23.422 20.628C23.422 20.628 23.5048 20.5556 23.5293 20.4903Z" fill="#5382A1"/>
<path d="M20.3245 0.0302734C20.3245 0.0302734 23.2692 2.93294 17.5327 7.39544C12.9337 10.9771 16.4838 13.0188 17.5315 15.3498C14.8458 12.9628 12.8765 10.8604 14.1983 8.90394C16.1373 6.03277 21.5133 4.64094 20.3245 0.0302734Z" fill="#E76F00"/>
<path d="M14.8155 27.8681C19.9173 28.1901 27.7527 27.6896 27.9382 25.3096C27.9382 25.3096 27.5812 26.2114 23.7207 26.9277C19.3667 27.7362 13.9953 27.6417 10.8092 27.1237C10.8092 27.1237 11.4625 27.6557 14.8155 27.8681Z" fill="#5382A1"/>
</svg>
