<svg width="28" height="28" viewBox="0 0 28 28" fill="none" xmlns="http://www.w3.org/2000/svg">
<g clip-path="url(#clip0)">
<path d="M7.06534 7.24383L20.7958 0L28 13.5742L14.392 20.8168L7.06534 7.24383Z" fill="black"/>
<path d="M11.7448 12.965L9.0965 8.15601L15.9927 9.73918L13.3443 4.93018" stroke="#FA1516" stroke-width="0.689"/>
<path d="M20.0573 16.6788L12.0528 14.1821M14.8843 19.417L17.3472 11.3833L14.8843 19.417Z" stroke="#16D41A" stroke-width="0.689"/>
<path d="M18.333 11.0785L23.9972 8.03467" stroke="#FB16BB" stroke-width="0.689"/>
<path d="M21.1657 9.55615L23.9972 14.791" stroke="#FB16BB" stroke-width="0.603"/>
<path d="M22.0885 5.35595C22.0885 6.57395 21.4737 7.66945 20.4878 8.15595C18.8872 8.94812 16.9167 8.27845 16.2388 6.63462C15.624 5.23462 16.2388 3.59078 17.5327 2.79978C18.2191 2.44449 19.0122 2.3536 19.7612 2.54436C20.5103 2.73512 21.1632 3.19425 21.5962 3.83462L16.1782 6.63462" stroke="#FCFC17" stroke-width="0.689"/>
<path d="M5.83333 15.1562L7.06533 7.91357L13.9603 20.8787L12.3597 27.2091L5.83333 15.1574V15.1562ZM14.5763 21.0001L12.7295 27.4517L25.4753 20.6967L27.9382 14.0607L14.5763 21.0001Z" fill="black"/>
</g>
<defs>
<clipPath id="clip0">
<rect width="28" height="28" fill="white"/>
</clipPath>
</defs>
</svg>
