<svg width="28" height="28" viewBox="0 0 28 28" fill="none" xmlns="http://www.w3.org/2000/svg">
<g clip-path="url(#clip0)">
<path d="M6.19965 0H21.6487C22.4 0 23.1303 0.120167 23.8385 0.372167C24.8733 0.750758 25.7875 1.40026 26.4857 2.25283C27.1957 3.11191 27.6587 4.14795 27.825 5.25C27.8903 5.65483 27.9008 6.05967 27.9008 6.46333V21.5903C27.9008 22.0722 27.8787 22.5645 27.7807 23.0347C27.5607 24.122 27.0531 25.1305 26.3107 25.9548C25.5762 26.7747 24.6355 27.383 23.5865 27.7165C22.9544 27.9092 22.2966 28.0048 21.6358 28C21.3418 28 6.15415 28 5.92549 27.9883C4.80469 27.9326 3.72004 27.5737 2.78715 26.95C1.87863 26.3319 1.14713 25.4874 0.664987 24.5C0.25301 23.6515 0.040321 22.7202 0.043154 21.777V6.223C0.019916 5.29689 0.217893 4.3786 0.620654 3.54433C1.09152 2.55202 1.81742 1.70252 2.72415 1.08267C3.64864 0.447429 4.73068 0.0800182 5.85082 0.021C5.95932 0 6.07832 0 6.19965 0Z" fill="url(#paint0_linear)"/>
<path d="M23.5328 22.9028C23.4338 22.7466 23.3246 22.5969 23.2062 22.4548C22.9344 22.129 22.6192 21.8421 22.2693 21.602C21.8352 21.3016 21.3265 21.1271 20.7993 21.098C20.4275 21.0791 20.0558 21.1388 19.7085 21.273C19.3591 21.4028 19.0205 21.5601 18.6958 21.7432C18.3156 21.947 17.9263 22.1334 17.5292 22.302C17.0508 22.498 16.5492 22.652 16.037 22.7605C15.3975 22.8769 14.7479 22.9285 14.098 22.9145C12.9313 22.8912 11.767 22.7162 10.6563 22.3895C9.67854 22.096 8.73873 21.6884 7.85633 21.175C7.08704 20.7288 6.36062 20.2125 5.68633 19.6327C5.13626 19.1546 4.61976 18.6393 4.1405 18.0903C3.81383 17.7077 3.49767 17.3028 3.20367 16.8875C3.08467 16.723 2.97558 16.5516 2.877 16.3742L0 13.2557V6.202C0 2.77667 2.75683 0 6.167 0H11.669L15.743 4.15683C24.9387 10.4335 21.9637 17.3577 21.9637 17.3577C21.9637 17.3577 24.5793 20.3105 23.5328 22.9028Z" fill="url(#paint1_linear)"/>
<path d="M15.7651 4.15674C24.9608 10.4334 21.9858 17.3576 21.9858 17.3576C21.9858 17.3576 24.6003 20.3209 23.5445 22.9144C23.5445 22.9144 22.4653 21.0979 20.657 21.0979C18.914 21.0979 17.8896 22.9144 14.3803 22.9144C6.56948 22.9144 2.87698 16.3624 2.87698 16.3624C9.91432 21.0104 14.7186 17.7181 14.7186 17.7181C11.55 15.8712 4.80432 7.03257 4.80432 7.03257C10.6773 12.0527 13.216 13.3769 13.216 13.3769C11.7016 12.1181 7.45265 5.97207 7.45265 5.97207C10.85 9.42657 17.605 14.2519 17.605 14.2519C19.523 8.9144 15.764 4.15674 15.764 4.15674H15.7651Z" fill="white"/>
</g>
<defs>
<linearGradient id="paint0_linear" x1="16.591" y1="-0.999046" x2="11.2699" y2="28.9934" gradientUnits="userSpaceOnUse">
<stop stop-color="#FAAE42"/>
<stop offset="1" stop-color="#EF3E31"/>
</linearGradient>
<linearGradient id="paint1_linear" x1="14.2302" y1="0.452377" x2="10.6411" y2="22.4549" gradientUnits="userSpaceOnUse">
<stop stop-color="#E39F3A"/>
<stop offset="1" stop-color="#D33929"/>
</linearGradient>
<clipPath id="clip0">
<rect width="28" height="28" fill="white"/>
</clipPath>
</defs>
</svg>
