<svg width="28" height="28" viewBox="0 0 28 28" fill="none" xmlns="http://www.w3.org/2000/svg">
<path d="M6.09 15.1408C6.132 15.9703 7.0035 15.5865 7.39784 15.3275C7.77234 15.0825 7.882 15.2867 7.91467 14.8002C7.93684 14.4805 7.97534 14.162 7.95667 13.8412C7.38967 13.7922 6.77367 13.9205 6.30934 14.2413C6.07017 14.407 5.621 14.9343 6.09 15.1408Z" fill="#FFCE7E"/>
<path d="M8.10367 5.25898C4.76467 4.36532 7.24734 0.325151 9.92834 1.98765L8.10367 5.25898ZM22.9367 1.68432C25.5792 -0.0808489 27.9673 3.90098 24.8967 4.90432L22.9367 1.68432Z" fill="#4FBAFF"/>
<path d="M23.506 25.3513C24.178 25.7456 25.4042 26.9403 24.3973 27.5189C23.429 28.3624 22.8888 26.5949 22.0395 26.3499C22.4047 25.8774 22.8678 25.4469 23.506 25.3501V25.3513ZM11.5138 26.7011C10.7252 26.8166 10.2818 27.4921 9.62499 27.8363C9.00666 28.1863 8.76982 27.7231 8.71382 27.6298C8.61699 27.5878 8.62516 27.6683 8.47466 27.5248C7.90182 26.6638 9.07316 26.0349 9.68332 25.6068C10.5327 25.4434 11.0658 26.1434 11.5138 26.7011Z" fill="#FFCE7E"/>
<path d="M8.24249 4.14278C7.80266 3.92111 7.47949 3.62011 7.74899 3.13594C7.99749 2.68678 8.46066 2.73578 8.90166 2.95744L8.24249 4.14278ZM24.2013 3.72278C24.6423 3.50111 24.9655 3.19894 24.696 2.71478C24.4463 2.26561 23.9832 2.31461 23.5422 2.53628L24.2013 3.72161V3.72278Z" fill="black"/>
<path d="M27.2335 15.0356C27.1915 15.8651 26.32 15.4813 25.9257 15.2223C25.5512 14.9761 25.4415 15.1803 25.4077 14.695C25.3867 14.3753 25.3482 14.0556 25.3668 13.7348C25.9338 13.687 26.5498 13.8153 27.0142 14.1361C27.2533 14.3006 27.7025 14.8291 27.2335 15.0356Z" fill="#FFCE7E"/>
<path d="M16.3275 0.00683594C19.67 0.00683594 22.8025 0.461836 24.4358 3.515C25.9023 6.93917 25.3808 10.6317 25.6048 14.2483C25.7973 17.3563 26.2232 20.945 24.7065 23.8243C23.1128 26.8542 19.1298 27.616 15.848 27.504C13.2697 27.4165 10.1547 26.6173 8.70099 24.3773C6.99416 21.7488 7.80266 17.8405 7.92632 14.9157C8.07332 11.4518 6.93932 7.9775 8.13632 4.58834C9.37766 1.072 12.7248 0.277503 16.3263 0.00683594" fill="#4FBAFF"/>
<path d="M16.9167 4.27466C17.5175 7.59266 23.2202 6.71533 22.4 3.36933C21.6662 0.367497 16.7183 1.19933 16.9167 4.27466ZM10.1033 4.81133C10.8803 7.7 15.743 6.96033 15.5598 4.06233C15.3405 0.592664 9.359 1.26233 10.1022 4.81133H10.1033ZM17.605 8.2565C17.6073 8.68816 17.7088 9.17233 17.6225 9.63083C17.5058 9.8385 17.2795 9.86066 17.0835 9.94583C16.9526 9.92752 16.8284 9.87657 16.7224 9.79767C16.6164 9.71876 16.5319 9.61445 16.4768 9.49433C16.4068 8.9705 16.5025 8.46416 16.52 7.93916L17.605 8.2565Z" fill="white"/>
<path d="M11.4438 5.50765C12.0882 5.50765 12.6105 4.98532 12.6105 4.34098C12.6105 3.69665 12.0882 3.17432 11.4438 3.17432C10.7995 3.17432 10.2772 3.69665 10.2772 4.34098C10.2772 4.98532 10.7995 5.50765 11.4438 5.50765Z" fill="black"/>
<path d="M11.8172 5.69759C12.4615 5.69759 12.9838 5.17526 12.9838 4.53092C12.9838 3.88659 12.4615 3.36426 11.8172 3.36426C11.1728 3.36426 10.6505 3.88659 10.6505 4.53092C10.6505 5.17526 11.1728 5.69759 11.8172 5.69759Z" fill="black"/>
<path d="M18.3237 5.29671C18.968 5.29671 19.4903 4.77438 19.4903 4.13005C19.4903 3.48571 18.968 2.96338 18.3237 2.96338C17.6793 2.96338 17.157 3.48571 17.157 4.13005C17.157 4.77438 17.6793 5.29671 18.3237 5.29671Z" fill="black"/>
<path d="M18.6935 5.48665C19.3378 5.48665 19.8602 4.96432 19.8602 4.31999C19.8602 3.67565 19.3378 3.15332 18.6935 3.15332C18.0492 3.15332 17.5268 3.67565 17.5268 4.31999C17.5268 4.96432 18.0492 5.48665 18.6935 5.48665Z" fill="black"/>
<path d="M15.2588 8.20874C14.9007 9.03474 15.4583 10.6867 16.4302 9.46874C16.3602 8.94374 16.457 8.43741 16.4745 7.91357L15.2588 8.20874Z" fill="white"/>
<path d="M15.3813 6.61829C14.714 6.67312 14.168 7.42795 14.5145 8.02529C14.9742 8.81629 16.0008 7.95529 16.6402 8.03695C17.3752 8.04979 17.9783 8.77545 18.5698 8.16762C19.2267 7.49095 18.2863 6.83062 17.5513 6.53662L15.3813 6.61829Z" fill="#FFCE7E"/>
<path d="M15.2973 6.58567C15.2483 5.48551 17.4533 5.34784 17.7135 6.26834C17.9737 7.18767 15.4058 7.40001 15.2973 6.58567C15.211 5.93467 15.2973 6.58567 15.2973 6.58567Z" fill="black"/>
</svg>
