<svg width="28" height="28" viewBox="0 0 28 28" fill="none" xmlns="http://www.w3.org/2000/svg">
<path d="M0 0H28V28H0V0Z" fill="#F7DF1E"/>
<path d="M7.36166 23.3984L9.50483 22.1023C9.91783 22.8349 10.2947 23.4556 11.1965 23.4556C12.061 23.4556 12.6058 23.1173 12.6058 21.8013V12.8541H15.2378V21.8374C15.2378 24.5639 13.6395 25.8041 11.3097 25.8041C9.20383 25.8041 7.98233 24.7144 7.36166 23.3984ZM16.667 23.1161L18.809 21.8759C19.3737 22.7976 20.1063 23.4743 21.4025 23.4743C22.4933 23.4743 23.1875 22.9283 23.1875 22.1769C23.1875 21.2751 22.4747 20.9554 21.2718 20.4293L20.6138 20.1469C18.7157 19.3384 17.4557 18.3234 17.4557 16.1803C17.4557 14.2086 18.9607 12.7036 21.3092 12.7036C22.9822 12.7036 24.185 13.2869 25.0495 14.8094L23.0008 16.1254C22.5493 15.3169 22.0605 14.9973 21.3092 14.9973C20.5392 14.9973 20.0492 15.4861 20.0492 16.1254C20.0492 16.9141 20.5392 17.2338 21.6662 17.7238L22.3242 18.0038C24.5607 18.9628 25.8195 19.9404 25.8195 22.1396C25.8195 24.5079 23.9587 25.8041 21.4597 25.8041C19.0155 25.8041 17.437 24.6398 16.667 23.1173" fill="black"/>
</svg>
