<svg width="28" height="28" viewBox="0 0 28 28" fill="none" xmlns="http://www.w3.org/2000/svg">
<path d="M12.8473 0.356022C13.2 0.160935 13.5964 0.0585938 13.9994 0.0585938C14.4024 0.0585937 14.7989 0.160935 15.1515 0.356022C18.6608 2.31952 22.1702 4.27952 25.6783 6.24419C26.3387 6.61169 26.7797 7.33969 26.7727 8.09219V19.9035C26.7773 20.6875 26.2932 21.4319 25.5967 21.7912C22.099 23.7442 18.6048 25.6995 15.1083 27.6514C14.3955 28.055 13.468 28.0247 12.7773 27.5872C11.7297 26.9852 10.6785 26.3867 9.63083 25.7859C9.41617 25.6587 9.17583 25.5584 9.02417 25.353C9.15717 25.1745 9.39633 25.1524 9.59117 25.073C10.0287 24.9365 10.4312 24.7149 10.8325 24.5002C10.934 24.4314 11.0577 24.4582 11.1557 24.5189C12.0517 25.0287 12.9407 25.5525 13.8402 26.0565C14.0327 26.1662 14.2263 26.0215 14.3908 25.9305C17.822 24.009 21.2578 22.0957 24.689 20.1742C24.75 20.1441 24.8005 20.0962 24.8339 20.0369C24.8672 19.9775 24.8817 19.9095 24.8757 19.8417C24.8792 15.945 24.8768 12.0484 24.878 8.15169C24.8842 8.07539 24.8662 7.99909 24.8266 7.93356C24.787 7.86804 24.7279 7.8166 24.6575 7.78652C21.1727 5.84402 17.689 3.89686 14.2042 1.95319C14.1438 1.91266 14.0727 1.89102 14 1.89102C13.9273 1.89102 13.8562 1.91266 13.7958 1.95319C10.3098 3.89686 6.82617 5.84519 3.34134 7.78886C3.27123 7.81831 3.21218 7.8691 3.1726 7.93403C3.13301 7.99896 3.1149 8.07471 3.12084 8.15052V19.8452C3.10917 19.9829 3.185 20.1135 3.311 20.173C4.24084 20.6957 5.17183 21.2137 6.10167 21.734C6.62667 22.014 7.2695 22.1797 7.847 21.965C8.35683 21.7842 8.71383 21.2697 8.7045 20.733C8.70917 16.8597 8.70217 12.9852 8.708 9.11186C8.69633 8.94036 8.85967 8.79686 9.02883 8.81436C9.47567 8.81086 9.9225 8.80852 10.3705 8.81436C10.5572 8.81086 10.6855 8.99636 10.6622 9.16902C10.6598 13.068 10.6668 16.9659 10.6587 20.8649C10.6587 21.9032 10.2282 23.0349 9.25867 23.5424C8.06283 24.156 6.58467 24.0265 5.404 23.4374C4.382 22.9322 3.4055 22.336 2.40217 21.7947C1.70334 21.4365 1.2215 20.6899 1.22617 19.9047V8.09336C1.21917 7.32452 1.67767 6.58486 2.35784 6.22202L12.8462 0.357189L12.8473 0.356022Z" fill="#8CC84B"/>
<path d="M15.8982 8.53795C17.423 8.44111 19.0552 8.47961 20.4272 9.22511C21.49 9.79445 22.0792 10.9914 22.0978 12.1604C22.0675 12.3179 21.9018 12.4054 21.7502 12.3938C21.3068 12.3938 20.8647 12.3996 20.4225 12.3914C20.2347 12.3984 20.125 12.2269 20.1017 12.0624C19.9745 11.5024 19.6665 10.9494 19.1357 10.6799C18.319 10.2751 17.374 10.2949 16.4827 10.3043C15.834 10.3381 15.1352 10.3941 14.5845 10.7709C14.1622 11.0579 14.0338 11.6366 14.1843 12.1033C14.3267 12.4369 14.7163 12.5454 15.036 12.6446C16.8735 13.1206 18.8207 13.0739 20.6243 13.6993C21.371 13.9559 22.1002 14.4518 22.3557 15.2253C22.6893 16.2636 22.5423 17.5026 21.798 18.3356C21.1937 19.0204 20.314 19.3938 19.4355 19.5956C18.2688 19.8534 17.0555 19.8604 15.8702 19.7461C14.756 19.6201 13.5952 19.3296 12.7342 18.5771C11.9992 17.9448 11.6375 16.9578 11.6748 16.0058C11.683 15.8459 11.844 15.7328 12.0003 15.7468C12.446 15.7433 12.8905 15.7421 13.3362 15.7468C13.5147 15.7351 13.6465 15.8868 13.6558 16.0524C13.7375 16.5856 13.9405 17.1456 14.4095 17.4606C15.3148 18.0393 16.4512 17.9996 17.4883 18.0159C18.347 17.9786 19.3118 17.9669 20.0118 17.4046C20.3817 17.0838 20.4913 16.5471 20.3922 16.0863C20.2837 15.6966 19.8718 15.5146 19.5183 15.3956C17.7042 14.8274 15.7348 15.0339 13.9382 14.3911C13.209 14.1356 12.5032 13.6526 12.2232 12.9106C11.8323 11.8606 12.012 10.5621 12.8345 9.75711C13.6372 8.95678 14.7957 8.64878 15.8982 8.53795Z" fill="#8CC84B"/>
</svg>
