<svg width="28" height="28" viewBox="0 0 28 28" fill="none" xmlns="http://www.w3.org/2000/svg">
<path d="M0 20.6055L2.1 10.7273H6.958C9.058 10.8487 10.108 11.824 10.108 13.532C10.108 16.4592 7.61367 18.166 5.383 18.0435H3.01817L2.49317 20.6055H0ZM3.54433 16.2153H5.11933C6.30117 16.0928 7.35117 15.7277 7.483 13.6545C7.483 12.9218 6.82617 12.5567 5.908 12.5567H4.2L3.54317 16.2153H3.54433ZM9.62033 18.0435L11.7203 8.1665H14.2147L13.6897 10.7273H16.0522C18.1522 10.8487 18.9408 11.824 18.6772 13.0443L17.759 18.0435H15.134L16.0522 13.532C16.184 12.9218 16.184 12.5567 15.2647 12.5567H13.2953L12.1147 18.0435H9.62033ZM17.591 20.6055L19.691 10.7273H24.549C26.649 10.8487 27.699 11.824 27.699 13.532C27.699 16.4592 25.2047 18.166 22.974 18.0435H20.6103L20.0853 20.6055H17.591ZM21.1353 16.2153H22.7103C23.8922 16.0928 24.9422 15.7277 25.074 13.6545C25.074 12.9218 24.4172 12.5567 23.499 12.5567H21.7922L21.1353 16.2153Z" fill="#6983B5"/>
</svg>
