<svg width="28" height="28" viewBox="0 0 28 28" fill="none" xmlns="http://www.w3.org/2000/svg">
<path d="M13.881 0.00830078C6.79 0.00830078 7.23333 3.0953 7.23333 3.0953L7.2415 6.29313H14.0082V7.2533H4.5535C4.5535 7.2533 0.0151672 6.73763 0.0151672 13.9196C0.0151672 21.1028 3.976 20.8485 3.976 20.8485H6.33967V17.5153C6.33967 17.5153 6.2125 13.5393 10.2363 13.5393H16.9482C16.9482 13.5393 20.7188 13.6 20.7188 9.88063V3.72997C20.7188 3.72997 21.2917 0.00830078 13.8833 0.00830078H13.881ZM10.15 2.15847C10.3105 2.15785 10.4696 2.18908 10.6179 2.25036C10.7663 2.31164 10.901 2.40176 11.0143 2.51548C11.1276 2.6292 11.2172 2.76427 11.2779 2.91286C11.3386 3.06146 11.3692 3.22062 11.368 3.38113C11.3674 3.7043 11.239 4.01411 11.0108 4.24295C10.7826 4.4718 10.4732 4.60109 10.15 4.60263C9.98968 4.6031 9.83086 4.57179 9.68271 4.51051C9.53456 4.44923 9.40002 4.3592 9.28688 4.24562C9.17373 4.13204 9.08421 3.99716 9.0235 3.84878C8.96279 3.70039 8.93209 3.54145 8.93317 3.38113C8.93347 3.05796 9.06158 2.74803 9.28955 2.51897C9.51752 2.28991 9.82684 2.16032 10.15 2.15847Z" fill="url(#paint0_linear)"/>
<path d="M14.0828 27.9043C21.1738 27.9043 20.7305 24.8173 20.7305 24.8173L20.7235 21.6183H13.9568V20.6581H23.4103C23.4103 20.6581 27.9487 21.1749 27.9487 13.9918C27.9487 6.80862 23.9879 7.06412 23.9879 7.06412H21.6242V10.3973C21.6242 10.3973 21.7525 14.3733 17.7275 14.3733H11.0157C11.0157 14.3733 7.24501 14.3114 7.24501 18.0319V24.1814C7.24501 24.1814 6.67218 27.9031 14.0817 27.9031H14.0828V27.9043ZM17.8138 25.7529C17.6535 25.7534 17.4947 25.7221 17.3466 25.6608C17.1984 25.5995 17.0639 25.5095 16.9507 25.3959C16.8376 25.2824 16.7481 25.1475 16.6873 24.9991C16.6266 24.8507 16.5959 24.6918 16.597 24.5314C16.5973 24.2083 16.7254 23.8983 16.9534 23.6693C17.1814 23.4402 17.4907 23.3106 17.8138 23.3088C17.9744 23.3082 18.1334 23.3394 18.2818 23.4007C18.4301 23.462 18.5649 23.5521 18.6781 23.6658C18.7914 23.7795 18.881 23.9146 18.9417 24.0632C19.0025 24.2118 19.0331 24.3709 19.0318 24.5314C19.0312 24.8546 18.9028 25.1644 18.6746 25.3933C18.4465 25.6221 18.137 25.7514 17.8138 25.7529Z" fill="url(#paint1_linear)"/>
<defs>
<linearGradient id="paint0_linear" x1="2.69949" y1="2.5526" x2="16.5951" y2="16.1952" gradientUnits="userSpaceOnUse">
<stop stop-color="#387EB8"/>
<stop offset="1" stop-color="#366994"/>
</linearGradient>
<linearGradient id="paint1_linear" x1="11.1969" y1="11.3792" x2="26.1166" y2="25.3658" gradientUnits="userSpaceOnUse">
<stop stop-color="#FFE052"/>
<stop offset="1" stop-color="#FFC331"/>
</linearGradient>
</defs>
</svg>
