<svg width="28" height="28" viewBox="0 0 28 28" fill="none" xmlns="http://www.w3.org/2000/svg">
<g clip-path="url(#clip0)">
<path fill-rule="evenodd" clip-rule="evenodd" d="M21.6928 18.4685L5.70654 27.9611L26.4057 26.5565L28 5.68457L21.6928 18.4685Z" fill="url(#paint0_linear)"/>
<path fill-rule="evenodd" clip-rule="evenodd" d="M26.4397 26.5421L24.6606 14.2627L19.8145 20.6617L26.4397 26.5421Z" fill="url(#paint1_linear)"/>
<path fill-rule="evenodd" clip-rule="evenodd" d="M26.4637 26.5422L13.4298 25.519L5.77582 27.9344L26.4637 26.5422Z" fill="url(#paint2_linear)"/>
<path fill-rule="evenodd" clip-rule="evenodd" d="M5.79417 27.937L9.05022 17.27L1.88522 18.8021L5.79417 27.937Z" fill="url(#paint3_linear)"/>
<path fill-rule="evenodd" clip-rule="evenodd" d="M19.8133 20.6972L16.8173 8.96191L8.24329 16.9989L19.8133 20.6972Z" fill="url(#paint4_linear)"/>
<path fill-rule="evenodd" clip-rule="evenodd" d="M27.3202 9.1273L19.2155 2.50781L16.9586 9.80423L27.3202 9.1273Z" fill="url(#paint5_linear)"/>
<path fill-rule="evenodd" clip-rule="evenodd" d="M23.53 0.147635L18.7632 2.78186L15.7559 0.112305L23.53 0.147635Z" fill="url(#paint6_linear)"/>
<path fill-rule="evenodd" clip-rule="evenodd" d="M0 22.3803L1.99687 18.7385L0.381568 14.3999L0 22.3803Z" fill="url(#paint7_linear)"/>
<path fill-rule="evenodd" clip-rule="evenodd" d="M0.27417 14.2631L1.89937 18.873L8.96119 17.2886L17.0236 9.79575L19.2989 2.56871L15.7162 0.0390625L9.62526 2.31858C7.70626 4.10346 3.98244 7.63509 3.84819 7.70151C3.71534 7.76934 1.3892 12.1658 0.27417 14.2631Z" fill="white"/>
<path fill-rule="evenodd" clip-rule="evenodd" d="M5.98072 5.98139C10.1398 1.85764 15.5015 -0.578745 17.5592 1.49727C19.6155 3.57328 17.4348 8.61845 13.2757 12.7408C9.11665 16.8631 3.82133 19.4338 1.76511 17.3578C-0.29253 15.2832 1.82164 10.1037 5.98072 5.98139Z" fill="url(#paint8_linear)"/>
<path fill-rule="evenodd" clip-rule="evenodd" d="M5.79419 27.9328L9.0248 17.2319L19.7539 20.6788C15.8746 24.3164 11.5601 27.3915 5.79419 27.9328Z" fill="url(#paint9_linear)"/>
<path fill-rule="evenodd" clip-rule="evenodd" d="M17.0377 9.77456L19.7921 20.6846C23.0326 17.2773 25.941 13.6143 27.3653 9.0835L17.0377 9.77456Z" fill="url(#paint10_linear)"/>
<path fill-rule="evenodd" clip-rule="evenodd" d="M27.3372 9.13853C28.4395 5.81183 28.6939 1.03941 23.4959 0.15332L19.2309 2.50915L27.3372 9.13853Z" fill="url(#paint11_linear)"/>
<path fill-rule="evenodd" clip-rule="evenodd" d="M0 22.3323C0.152627 27.8227 4.11386 27.9046 5.80124 27.9527L1.9036 18.8501L0 22.3323Z" fill="#9E1209"/>
<path fill-rule="evenodd" clip-rule="evenodd" d="M17.0531 9.79147C19.5432 11.322 24.5616 14.3957 24.6634 14.4522C24.8215 14.5413 26.827 11.0704 27.2821 9.10889L17.0531 9.79147Z" fill="url(#paint12_radial)"/>
<path fill-rule="evenodd" clip-rule="evenodd" d="M9.02054 17.2319L13.3393 25.5642C15.893 24.1793 17.8927 22.4919 19.7242 20.6844L9.02054 17.2319Z" fill="url(#paint13_radial)"/>
<path fill-rule="evenodd" clip-rule="evenodd" d="M1.88664 18.8617L1.27472 26.1482C2.42931 27.7254 4.01777 27.8624 5.68395 27.7395C4.47847 24.7392 2.07036 18.7401 1.88664 18.8617Z" fill="url(#paint14_linear)"/>
<path fill-rule="evenodd" clip-rule="evenodd" d="M19.2056 2.52731L27.7852 3.73137C27.3273 1.79103 25.9212 0.538921 23.5243 0.147461L19.2056 2.52731Z" fill="url(#paint15_linear)"/>
</g>
<defs>
<linearGradient id="paint0_linear" x1="24.6003" y1="30.5004" x2="18.6935" y2="20.0716" gradientUnits="userSpaceOnUse">
<stop stop-color="#FB7655"/>
<stop offset="0.41" stop-color="#E42B1E"/>
<stop offset="0.99" stop-color="#990000"/>
<stop offset="1" stop-color="#990000"/>
</linearGradient>
<linearGradient id="paint1_linear" x1="27.5428" y1="21.7397" x2="19.9302" y2="16.6311" gradientUnits="userSpaceOnUse">
<stop stop-color="#871101"/>
<stop offset="0.99" stop-color="#911209"/>
<stop offset="1" stop-color="#911209"/>
</linearGradient>
<linearGradient id="paint2_linear" x1="21.4519" y1="30.8165" x2="13.8396" y2="25.7081" gradientUnits="userSpaceOnUse">
<stop stop-color="#871101"/>
<stop offset="0.99" stop-color="#911209"/>
<stop offset="1" stop-color="#911209"/>
</linearGradient>
<linearGradient id="paint3_linear" x1="5.46861" y1="18.0417" x2="6.64873" y2="25.7113" gradientUnits="userSpaceOnUse">
<stop stop-color="white"/>
<stop offset="0.23" stop-color="#E57252"/>
<stop offset="0.46" stop-color="#DE3B20"/>
<stop offset="0.99" stop-color="#A60003"/>
<stop offset="1" stop-color="#A60003"/>
</linearGradient>
<linearGradient id="paint4_linear" x1="13.5856" y1="10.8804" x2="14.0204" y2="18.7077" gradientUnits="userSpaceOnUse">
<stop stop-color="white"/>
<stop offset="0.23" stop-color="#E4714E"/>
<stop offset="0.56" stop-color="#BE1A0D"/>
<stop offset="0.99" stop-color="#A80D00"/>
<stop offset="1" stop-color="#A80D00"/>
</linearGradient>
<linearGradient id="paint5_linear" x1="20.7888" y1="3.64559" x2="22.0905" y2="9.25537" gradientUnits="userSpaceOnUse">
<stop stop-color="white"/>
<stop offset="0.18" stop-color="#E46342"/>
<stop offset="0.4" stop-color="#C82410"/>
<stop offset="0.99" stop-color="#A80D00"/>
<stop offset="1" stop-color="#A80D00"/>
</linearGradient>
<linearGradient id="paint6_linear" x1="16.8139" y1="1.66988" x2="22.4233" y2="-1.13483" gradientUnits="userSpaceOnUse">
<stop stop-color="white"/>
<stop offset="0.54" stop-color="#C81F11"/>
<stop offset="0.99" stop-color="#BF0905"/>
<stop offset="1" stop-color="#BF0905"/>
</linearGradient>
<linearGradient id="paint7_linear" x1="0.55162" y1="16.0865" x2="1.0133" y2="20.7089" gradientUnits="userSpaceOnUse">
<stop stop-color="white"/>
<stop offset="0.31" stop-color="#DE4024"/>
<stop offset="0.99" stop-color="#BF190B"/>
<stop offset="1" stop-color="#BF190B"/>
</linearGradient>
<linearGradient id="paint8_linear" x1="-2.62231" y1="21.9584" x2="19.0805" y2="-0.358182" gradientUnits="userSpaceOnUse">
<stop stop-color="#BD0012"/>
<stop offset="0.07" stop-color="white"/>
<stop offset="0.17" stop-color="white"/>
<stop offset="0.27" stop-color="#C82F1C"/>
<stop offset="0.33" stop-color="#820C01"/>
<stop offset="0.46" stop-color="#A31601"/>
<stop offset="0.72" stop-color="#B31301"/>
<stop offset="0.99" stop-color="#E82609"/>
<stop offset="1" stop-color="#E82609"/>
</linearGradient>
<linearGradient id="paint9_linear" x1="14.0014" y1="24.2094" x2="7.46428" y2="22.596" gradientUnits="userSpaceOnUse">
<stop stop-color="#8C0C01"/>
<stop offset="0.54" stop-color="#990C00"/>
<stop offset="0.99" stop-color="#A80D0E"/>
<stop offset="1" stop-color="#A80D0E"/>
</linearGradient>
<linearGradient id="paint10_linear" x1="25.2295" y1="16.3636" x2="19.4222" y2="11.1587" gradientUnits="userSpaceOnUse">
<stop stop-color="#7E110B"/>
<stop offset="0.99" stop-color="#9E0C00"/>
<stop offset="1" stop-color="#9E0C00"/>
</linearGradient>
<linearGradient id="paint11_linear" x1="27.3631" y1="6.81337" x2="24.4704" y2="3.72081" gradientUnits="userSpaceOnUse">
<stop stop-color="#79130D"/>
<stop offset="0.99" stop-color="#9E120B"/>
<stop offset="1" stop-color="#9E120B"/>
</linearGradient>
<radialGradient id="paint12_radial" cx="0" cy="0" r="1" gradientUnits="userSpaceOnUse" gradientTransform="translate(20.3265 11.2581) scale(7.1166)">
<stop stop-color="#A80D00"/>
<stop offset="0.99" stop-color="#7E0E08"/>
<stop offset="1" stop-color="#7E0E08"/>
</radialGradient>
<radialGradient id="paint13_radial" cx="0" cy="0" r="1" gradientUnits="userSpaceOnUse" gradientTransform="translate(10.4708 20.6365) scale(9.46058)">
<stop stop-color="#A30C00"/>
<stop offset="0.99" stop-color="#800E08"/>
<stop offset="1" stop-color="#800E08"/>
</radialGradient>
<linearGradient id="paint14_linear" x1="3.76903" y1="27.9269" x2="1.41162" y2="19.9289" gradientUnits="userSpaceOnUse">
<stop stop-color="#8B2114"/>
<stop offset="0.43" stop-color="#9E100A"/>
<stop offset="0.99" stop-color="#B3100C"/>
<stop offset="1" stop-color="#B3100C"/>
</linearGradient>
<linearGradient id="paint15_linear" x1="21.8541" y1="1.4233" x2="27.1392" y2="3.75623" gradientUnits="userSpaceOnUse">
<stop stop-color="#B31000"/>
<stop offset="0.44" stop-color="#910F08"/>
<stop offset="0.99" stop-color="#791C12"/>
<stop offset="1" stop-color="#791C12"/>
</linearGradient>
<clipPath id="clip0">
<rect width="28" height="28" fill="white"/>
</clipPath>
</defs>
</svg>
