<svg width="64" height="64" fill="none" xmlns="http://www.w3.org/2000/svg"><rect x="1" y="1" width="62" height="62" rx="15" stroke="url(#paint0_linear)" stroke-width="2"/><path d="M11.344 39.385h3.101l1.427-3.35h6.244l1.427 3.35h3.143l-6.348-14.681h-2.667l-6.327 14.68zm5.624-5.976l2.026-4.776 2.026 4.776h-4.052z" fill="url(#paint1_linear)"/><path d="M28.054 43.396h2.833V38.62c.6.6 1.55.992 2.646.992 3.06 0 5.108-2.502 5.108-5.397 0-2.894-2.047-5.396-5.108-5.396-1.095 0-2.047.393-2.646.972v-.745h-2.833v14.35zm2.833-7.506v-3.37c.475-.641 1.137-1.117 2.233-1.117 1.55 0 2.605 1.282 2.605 2.812 0 1.53-1.054 2.812-2.605 2.812-1.096 0-1.758-.475-2.233-1.137z" fill="url(#paint2_linear)"/><path d="M40.735 43.396h2.833V38.62c.6.6 1.55.992 2.646.992 3.06 0 5.107-2.502 5.107-5.397 0-2.894-2.047-5.396-5.107-5.396-1.096 0-2.047.393-2.646.972v-.745h-2.833v14.35zm2.833-7.506v-3.37c.475-.641 1.137-1.117 2.233-1.117 1.55 0 2.605 1.282 2.605 2.812 0 1.53-1.054 2.812-2.605 2.812-1.096 0-1.758-.475-2.233-1.137z" fill="url(#paint3_linear)"/><path d="M11.344 39.385h3.101l1.427-3.35h6.244l1.427 3.35h3.143l-6.348-14.681h-2.667l-6.327 14.68zm5.624-5.976l2.026-4.776 2.026 4.776h-4.052z" stroke="url(#paint4_linear)"/><path d="M28.054 43.396h2.833V38.62c.6.6 1.55.992 2.646.992 3.06 0 5.108-2.502 5.108-5.397 0-2.894-2.047-5.396-5.108-5.396-1.095 0-2.047.393-2.646.972v-.745h-2.833v14.35zm2.833-7.506v-3.37c.475-.641 1.137-1.117 2.233-1.117 1.55 0 2.605 1.282 2.605 2.812 0 1.53-1.054 2.812-2.605 2.812-1.096 0-1.758-.475-2.233-1.137z" stroke="url(#paint5_linear)"/><path d="M40.735 43.396h2.833V38.62c.6.6 1.55.992 2.646.992 3.06 0 5.107-2.502 5.107-5.397 0-2.894-2.047-5.396-5.107-5.396-1.096 0-2.047.393-2.646.972v-.745h-2.833v14.35zm2.833-7.506v-3.37c.475-.641 1.137-1.117 2.233-1.117 1.55 0 2.605 1.282 2.605 2.812 0 1.53-1.054 2.812-2.605 2.812-1.096 0-1.758-.475-2.233-1.137z" stroke="url(#paint6_linear)"/><defs><linearGradient id="paint0_linear" x1="3.467" y1="3.186" x2="154.779" y2="49.472" gradientUnits="userSpaceOnUse"><stop offset=".168" stop-color="#3A2390"/><stop offset="1" stop-color="#7BB8DA"/></linearGradient><linearGradient id="paint1_linear" x1="13.51" y1="25.634" x2="85.89" y2="72.989" gradientUnits="userSpaceOnUse"><stop offset=".168" stop-color="#3A2390"/><stop offset="1" stop-color="#7BB8DA"/></linearGradient><linearGradient id="paint2_linear" x1="13.51" y1="25.634" x2="85.89" y2="72.989" gradientUnits="userSpaceOnUse"><stop offset=".168" stop-color="#3A2390"/><stop offset="1" stop-color="#7BB8DA"/></linearGradient><linearGradient id="paint3_linear" x1="13.51" y1="25.634" x2="85.89" y2="72.989" gradientUnits="userSpaceOnUse"><stop offset=".168" stop-color="#3A2390"/><stop offset="1" stop-color="#7BB8DA"/></linearGradient><linearGradient id="paint4_linear" x1="13.51" y1="25.634" x2="85.89" y2="72.989" gradientUnits="userSpaceOnUse"><stop offset=".168" stop-color="#3A2390"/><stop offset="1" stop-color="#7BB8DA"/></linearGradient><linearGradient id="paint5_linear" x1="13.51" y1="25.634" x2="85.89" y2="72.989" gradientUnits="userSpaceOnUse"><stop offset=".168" stop-color="#3A2390"/><stop offset="1" stop-color="#7BB8DA"/></linearGradient><linearGradient id="paint6_linear" x1="13.51" y1="25.634" x2="85.89" y2="72.989" gradientUnits="userSpaceOnUse"><stop offset=".168" stop-color="#3A2390"/><stop offset="1" stop-color="#7BB8DA"/></linearGradient></defs></svg>