<svg width="1195" height="612" fill="none" xmlns="http://www.w3.org/2000/svg"><path opacity=".04" d="M694.526-99.612C799.659-68.568 901.157-35.495 987.312 25.272c28.278 19.9 56.498 43.943 89.108 75.681 23.67 23.014 47.93 48.553 64.44 79.028 19.22 35.341 28.33 77.489 27.18 125.446-.86 37.31-7.92 78.98-21.44 127.048-36.86 131.043-92.28 221.098-169.365 275.227-41.395 29.141-89.156 47.505-134.64 62.887-15.979 5.38-32.188 10.668-48.42 15.678l63.612 42.916-16.134 24.015-60.367-40.666c13.625 38.593 34.303 74.655 60.756 105.384 50.7 58.952 109.615 84.634 132.686 92.884 59.462 21.33 111.832 19.76 140.412 16.38l-12.19 30.18c-33.01 2.4-82.73.74-138.068-19.2-3.274-1.19-6.777-2.47-10.465-3.96-33.067-13.36-86.614-41.718-134.373-97.33-33.71-39.309-58.816-86.307-73.08-136.59-9.06 2.526-18.123 5.052-27.253 7.415l-7.212-27.931c4.694-1.331 9.501-2.618 14.309-3.902L361.866 529.69c-54.429-36.787-122.278-82.49-150.291-154.47-12.502-32.085-17.062-68.898-14.394-115.973 6.769-119.26 35.65-212.637 85.914-277.333 59.277-76.39 160.995-119.492 265.686-112.569 48.332 3.118 94.631 15.906 145.745 31.043zm26.788 421.998l-5.115 8.021c-5.613.288-11.227 1.247-16.823 3.155-13.527 4.623-26.152 13.645-37.551 26.929-12.374 14.37-20.831 30.992-24.582 47.904-4.199 19.017-2.259 38.766 5.305 55.542 2.968 6.579 6.407 12.002 10.612 16.526 5.42 5.821 11.752 9.726 16.079 12.281 4.79 2.741 9.605 5.09 14.559 7.092 12.559 5.074 25.361 7.555 37.714 7.166 20.435-.485 39.358-8.845 51.87-22.89 8.689-9.803 16.128-27.343 17.741-31.306l.091-.226c13.969-34.573-.348-68.468-5.06-78.039-6.037-12.257-16.307-22.996-31.522-32.775-6.054-3.927-12.225-7.226-18.12-10.551-5.252-2.927-10.386-5.809-15.198-8.829zm-77.762 15.658c-4.233-32.646-29.132-59.922-59.375-65.013l-1.425 8.168c-8.037-4.324-16.818-7.469-25.939-7.119-12.4.505-25.428 1.564-37.095 8.552-7.571 4.472-13.07 10.455-18.085 16.23-8.032 9.264-16.044 19.478-20.651 31.873-12.086 32.24 3.017 65.512 21.138 86.015 8.383 9.439 19.29 16.939 32.426 22.246 23.735 9.59 51.425 2.754 78.055-19.037 22.806-18.628 34.892-50.867 30.951-81.915zm-130.238-92.971c-12.441-5.698-34.418-11.35-55.384-10.54-4.502.198-16.562 1.514-33.594 10.502l5.46-22.139-27.882-6.959-7.552 30.305c-2.376 9.53-4.614 18.714-7.724 27.411-5.056 14.502-12.878 28.556-20.399 42.196l-17.395 31.44 25.193 13.944 17.394-31.438c7.171-13.109 14.6-26.519 20.324-41.018 28.144-24.541 46.318-25.403 47.148-25.469 15.24-.57 33.091 3.683 42.237 7.916l12.174-26.151zM892.81 410.775c-8.757-3.539-21.676-5.397-35.218-3.065l3.782-8.696-26.451-11.494-19.815 45.393c-1.159 1.549-2.484 3.166-3.576 4.875l1.173.744-35.637 81.905 26.449 11.495 36.5-83.711c15.432-16.63 36.748-12.994 42.162-10.806 14.289 5.773 23.742 13.224 26.559 32.789.692 5.255-.747 16.779-3.782 28.599-3.575 14.158-8.131 25.768-12.709 37.1-3.737 9.25-7.615 18.847-10.69 29.442l27.528 8.163c2.792-9.23 6.133-17.832 9.777-26.852 4.791-12.188 9.883-24.79 13.882-40.661 2.329-9.415 6.176-27.229 4.295-39.825-2.46-17.134-9.664-41.43-44.229-55.395zm-163.065-49.877c1.383.559 2.72 1.232 3.962 2.138l.257-.3c1.75.975 3.337 2.021 5.04 3.114 10.636 6.851 17.712 13.88 21.371 21.41 2.447 4.891 13.987 30.401 4.27 54.452-3.27 8.092-8.63 18.706-12.576 23.163-7.01 8.062-18.622 12.921-31.091 13.263-11.962.413-24.805-3.296-37.191-10.453-4.213-2.508-7.228-4.668-9.364-7.01-2.067-2.182-3.855-5.055-5.593-8.716-5.003-11.169-6.21-24.434-3.379-37.413 2.712-12.354 9.003-24.608 18.312-35.372 7.916-9.31 16.304-15.473 24.836-18.346 7.33-2.553 15.041-2.397 21.146.07zm-133.777-52.033c9.961 7.522 17.154 19.573 18.801 32.748 2.718 21.14-5.446 43.665-20.441 55.9-12.793 10.433-31.729 21.477-49.011 14.495-8.874-3.585-16.238-8.577-21.682-14.678-12.102-13.497-23.331-36.461-15.826-56.698 2.923-7.562 8.22-14.702 15.438-22.949 3.689-4.158 7.171-8.131 11.015-10.346 5.777-3.39 13.961-4.045 22.64-4.442l.885-.04c1.941-.159 4.222.495 6.641 1.472 5.531 2.235 12.114 6.51 17.292 9.946 2.763 1.788 5.409 3.53 7.987 5.11l6.261-10.518zM566.224-49.092c-27.778-14.182-62.786-12.456-89.207 4.174-12.805 8.142-22.783 18.905-30.096 27.384-35.053 40.983-50.869 85.435-44.73 125.308 1.566 10.72 4.733 19.801 9.381 27.865 10.397 18.056 27.732 28.557 44.588 37.922 7.347 4.045 14.74 7.972 22.46 11.091 5.761 2.328 11.709 4.193 18.052 5.411 25.65 4.849 53.049-3.584 71.627-22.036 18.163-18.084 26.9-44.683 23.024-69.92-.128-2.339-.762-4.748-2.045-6.881l-3.873-6.674-7.731-.435c-26.428-1.262-49.013-10.387-75.791-30.352l-17.264 23.153c27.034 20.338 51.824 31.296 78.772 34.921-.523 13.238-6.011 26.489-15.336 35.634-11.759 11.524-29.838 17.132-46.033 14.086-10.586-1.993-21.228-7.502-31.958-13.45-13.932-7.648-26.871-15.431-33.582-27.019-2.771-4.751-4.682-10.635-5.803-17.813-6.565-42.466 21.002-82.169 38.018-102.06 6.035-6.977 13.997-15.73 23.513-21.704 17.968-11.302 41.916-12.522 60.918-2.827 19.002 9.695 32.275 29.584 33.723 50.883l28.731-2.112c-2.164-31.137-21.534-60.484-49.358-74.55zm473.166 268.241c-3.32-1.073-7.17-2.493-11.29-3.891-25.94-9.132-58.228-20.43-80.55-11.291-20.379 8.309-39.671 16.253-54.293 37.513-3.394 5.086-6.294 12.925-9.549 22.64-.539 1.665-.984 3.1-1.451 4.256-8.024 22.18-2.999 48.555 13.138 68.658 9.274 11.548 22.275 20.837 36.561 26.609 9.218 3.724 19.112 6.106 28.967 6.593 25.435 1.399 50.397-8.962 65.207-27.052 5.3-6.468 9.56-14.029 13.74-24.042 3.57-8.509 7.57-20.072 7.22-33.129-.4-14.283-6.22-28.738-16.13-41.354l8.43-25.51zM747.815 96.906l-33.065-9.055c-12.775-3.547-27.255-7.514-42.66-6.206-34.577 2.978-58.297 19.89-70.536 50.185-10.512 26.016-12.397 48.928-5.491 67.992 7.407 20.478 24.603 36.302 51.103 47.009 25.694 10.381 52.033 6.227 74.329-11.8 24.75-20.127 40.915-55.157 36.736-79.981-2.111-12.689-8.314-24.207-17.11-33.947l6.694-24.197zm155.031 74.07l-34.89 25.313c-6.762 4.799-13.666 9.946-20.159 16.064-6.541 6.235-11.975 13.051-17.316 19.636l-1.068 1.317c-8.222 10.398-16.789 20.656-25.425 30.751h-.001l-.054-1.423c-.772-21.353.697-42.906 2.343-65.377l.109-1.499c1.434-20.135 2.917-41.056 2.739-61.842l-28.931.282c.207 19.722-1.273 39.971-2.635 59.597-2.203 31.659-4.548 64.337-.43 96.937l.936 6.968 6.079 3.533c.991.534 2.097 1.115 3.363 1.627 6.914 2.793 17.785 3.42 29.715-10.187 11.723-13.423 23.4-27.4 34.64-41.285l1.068-1.318c4.877-6.098 9.498-11.898 14.693-16.794 5.033-4.825 10.94-9.165 17.173-13.64l34.888-25.315-16.837-23.345zm85.503 61.714l-4.87 9.735c23.701 11.996 34.671 30.954 35.001 44.404.13 5.973-1.35 12.635-5.02 21.376-2.94 7.284-5.88 12.555-9.29 16.69-9.171 11.09-24.968 17.35-41.38 16.504-16.919-.918-34.515-9.776-44.776-22.528-9.709-12.128-13.029-28.131-8.49-40.689.398-1.317 1.005-2.821 1.685-4.833 1.358-4.025 4.541-13.229 6.077-15.704 9.089-13.542 21.004-18.816 41.106-27.105 6.545-2.601 17.943-.955 29.957 2.15zM669.482 110.988l.529 10.301c28.104-1.555 56.071 16.469 59.822 38.698 1.908 11.531-7.192 37.042-26.497 52.645-14.112 11.378-29.363 13.96-45.378 7.489-36.755-14.85-45.719-38.109-29.789-77.538 7.475-18.501 20.682-28.632 41.313-31.595z" fill="#fff"/></svg>