<svg width="64" height="64" fill="none" xmlns="http://www.w3.org/2000/svg"><path fill-rule="evenodd" clip-rule="evenodd" d="M61.773 28.867h1.154A1.071 1.071 0 0164 29.938v4.122a1.072 1.072 0 01-1.072 1.072h-1.154c-1.481 14.055-12.587 25.16-26.641 26.641v1.154c0 .592-.48 1.072-1.072 1.072h-4.123a1.072 1.072 0 01-1.07-1.07v-1.154C14.812 60.295 3.706 49.188 2.225 35.134H1.072C.48 35.134 0 34.654 0 34.062v-4.124a1.072 1.072 0 011.072-1.071h1.153A29.958 29.958 0 0120.87 4.205H10.2a3.133 3.133 0 110-2.142h18.665v-.99A1.072 1.072 0 0129.938 0h4.123a1.072 1.072 0 011.072 1.071v.99h18.663a3.134 3.134 0 110 2.143H43.128a29.958 29.958 0 0118.645 24.662zM57.731 3.134a.99.99 0 10-1.98 0 .99.99 0 001.98 0zm-50.474.99a.99.99 0 110-1.98.99.99 0 010 1.98zm23.748-1.981v1.076l.004.905h1.977V2.143h-1.98zM4.123 32.99h-1.98v-1.982h1.981v1.982zM32.99 61.857v-1.981h-1.98v1.98h1.98zm25.814-26.724h.814c-1.502 12.85-11.636 22.983-24.485 24.485v-.814a1.071 1.071 0 00-1.072-1.072h-4.122a1.071 1.071 0 00-1.072 1.072v.813C16.017 58.115 5.884 47.982 4.382 35.133h.813c.592 0 1.072-.48 1.072-1.071v-4.124a1.072 1.072 0 00-1.072-1.071H4.38C5.883 16.017 16.018 5.883 28.87 4.382v.814c0 .59.478 1.07 1.069 1.071h4.123c.592 0 1.072-.48 1.072-1.071v-.814c12.85 1.5 22.986 11.634 24.488 24.485h-.818a1.072 1.072 0 00-1.072 1.071v4.124c0 .592.48 1.071 1.072 1.071zm1.072-2.142h1.98V31.01h-1.98v1.98z" fill="url(#paint0_linear)"/><defs><linearGradient id="paint0_linear" x1="3.467" y1="3.186" x2="154.779" y2="49.473" gradientUnits="userSpaceOnUse"><stop offset=".168" stop-color="#3A2390"/><stop offset="1" stop-color="#7BB8DA"/></linearGradient></defs></svg>