<svg width="14" height="14" fill="none" xmlns="http://www.w3.org/2000/svg"><path fill-rule="evenodd" clip-rule="evenodd" d="M.333 7A6.667 6.667 0 017 .333 6.686 6.686 0 0113.667 7 6.667 6.667 0 01.333 7zm9.335-2.666H11.6a5.366 5.366 0 00-2.864-2.4c.408.759.721 1.565.933 2.4zM7 1.666a8.952 8.952 0 011.264 2.667H5.733A9.802 9.802 0 017 1.666zM1.666 7c-.003.452.064.902.2 1.333h2.267c0-.233-.016-.45-.033-.666-.017-.217-.034-.434-.034-.667-.01-.445.012-.891.067-1.333H1.867A4.298 4.298 0 001.667 7zM2.4 9.668h1.934c.212.835.525 1.641.933 2.4a5.366 5.366 0 01-2.867-2.4zm0-5.334h1.934c.211-.836.524-1.642.932-2.401a5.618 5.618 0 00-2.866 2.4zm4.6 8a8.951 8.951 0 01-1.267-2.666h2.533A9.8 9.8 0 017 12.334zm-1.533-4h3.066c.1-.44.165-.885.199-1.334a9.035 9.035 0 00-.133-1.333H5.467c-.078.44-.122.886-.134 1.333.012.447.056.893.134 1.333zm3.267 3.732a5.365 5.365 0 002.867-2.398H9.668a9.459 9.459 0 01-.934 2.398h-.001zM10 7c.01.445-.012.891-.067 1.333h2.263a4.27 4.27 0 00.2-1.333 4.297 4.297 0 00-.2-1.333H9.933c0 .233.016.45.033.666.017.217.034.434.034.667z" fill="#fff"/></svg>