<svg width="1208" height="580" fill="none" xmlns="http://www.w3.org/2000/svg"><path d="M386.536 140.098c.982-2.574 4.625-2.574 5.606 0l1.862 4.88a2.999 2.999 0 002.803 1.931h4.863c3.021 0 4.147 3.961 1.578 5.551l-3.062 1.896a3 3 0 00-1.225 3.62l1.356 3.554c1.023 2.682-1.941 5.131-4.382 3.621l-5.017-3.106a3.002 3.002 0 00-3.157 0l-5.017 3.106c-2.441 1.51-5.405-.939-4.382-3.621l1.356-3.554a3 3 0 00-1.225-3.62l-3.062-1.896c-2.569-1.59-1.443-5.551 1.578-5.551h4.863c1.245 0 2.36-.768 2.803-1.931l1.861-4.88zM603.43 310.809c.898-2.764 4.808-2.764 5.706 0l.574 1.766a2.999 2.999 0 002.853 2.073h1.857c2.906 0 4.114 3.719 1.763 5.427l-1.502 1.092a2.999 2.999 0 00-1.09 3.354l.574 1.766c.898 2.764-2.265 5.062-4.617 3.354l-1.502-1.091a3 3 0 00-3.527 0l-1.502 1.091c-2.351 1.708-5.515-.59-4.617-3.354l.574-1.766a2.999 2.999 0 00-1.09-3.354l-1.502-1.092c-2.351-1.708-1.143-5.427 1.763-5.427h1.858a3 3 0 002.853-2.073l.574-1.766zM22.538 13.42c.899-2.764 4.809-2.764 5.707 0l2.174 6.691a3 3 0 002.853 2.073h7.036c2.906 0 4.114 3.719 1.763 5.427l-5.692 4.136a3 3 0 00-1.09 3.354l2.174 6.69c.898 2.765-2.265 5.063-4.616 3.355l-5.692-4.136a3 3 0 00-3.527 0l-5.692 4.136c-2.35 1.708-5.514-.59-4.616-3.354l2.174-6.691a3 3 0 00-1.09-3.354L8.712 27.61c-2.35-1.708-1.142-5.427 1.764-5.427h7.035a3 3 0 002.854-2.073l2.174-6.69zm785.369 127.851c.913-2.733 4.779-2.733 5.691 0l3.871 11.591a3 3 0 002.846 2.05h12.348c2.926 0 4.121 3.761 1.732 5.45l-9.848 6.961a3 3 0 00-1.113 3.4l3.794 11.362c.918 2.75-2.21 5.074-4.577 3.4l-10.167-7.186a2.998 2.998 0 00-3.463 0l-10.166 7.186c-2.368 1.674-5.496-.65-4.578-3.4l3.795-11.362a3 3 0 00-1.114-3.4l-9.847-6.961c-2.39-1.689-1.195-5.45 1.731-5.45h12.349a3 3 0 002.845-2.05l3.871-11.591zm246.803-68.945c.93-2.69 4.73-2.69 5.67 0l1.26 3.655a3.007 3.007 0 002.84 2.018h3.66c2.96 0 4.13 3.817 1.69 5.48l-2.62 1.788a3.007 3.007 0 00-1.15 3.462l1.08 3.117c.95 2.73-2.13 5.089-4.52 3.462l-3.39-2.307a3.004 3.004 0 00-3.38 0l-3.38 2.307c-2.39 1.627-5.47-.731-4.53-3.462l1.08-3.117c.45-1.28-.02-2.7-1.14-3.462l-2.63-1.789c-2.44-1.662-1.26-5.479 1.69-5.479h3.67c1.27 0 2.41-.81 2.83-2.018l1.27-3.655zm129.2 132.303c.96-2.63 4.68-2.63 5.64 0l1.06 2.916a3 3 0 002.82 1.972h2.63c2.99 0 4.14 3.894 1.64 5.518l-1.52.982a2.993 2.993 0 00-1.19 3.546l.72 1.961c.98 2.705-2.04 5.111-4.45 3.546l-2.9-1.877a3 3 0 00-3.26 0l-2.9 1.877c-2.42 1.565-5.44-.841-4.45-3.546l.72-1.961a3.019 3.019 0 00-1.19-3.546l-1.52-.982c-2.51-1.624-1.36-5.518 1.63-5.518h2.64a3.01 3.01 0 002.82-1.972l1.06-2.916zM650.271 540.637c1.006-2.515 4.566-2.515 5.571 0l2.862 7.154a2.999 2.999 0 002.785 1.886h7.699c3.054 0 4.155 4.031 1.525 5.584l-5.083 3.001a2.999 2.999 0 00-1.261 3.697l2.178 5.446c1.063 2.658-1.846 5.152-4.311 3.697l-7.654-4.518a2.997 2.997 0 00-3.05 0l-7.655 4.518c-2.465 1.455-5.373-1.039-4.31-3.697l2.178-5.446a3 3 0 00-1.261-3.697l-5.083-3.001c-2.63-1.553-1.529-5.584 1.525-5.584h7.699a3 3 0 002.785-1.886l2.861-7.154zm-439.254-53.85c.975-2.591 4.641-2.591 5.616.001l.861 2.289a3 3 0 002.808 1.944h1.739c3.011 0 4.145 3.941 1.594 5.541l-.613.385a3 3 0 00-1.214 3.598l.406 1.077c1.011 2.688-1.97 5.124-4.403 3.597l-2.392-1.501a3.003 3.003 0 00-3.189 0l-2.392 1.501c-2.433 1.527-5.413-.909-4.402-3.597l.405-1.077a3 3 0 00-1.213-3.598l-.613-.385c-2.551-1.6-1.417-5.541 1.594-5.541h1.739a2.998 2.998 0 002.807-1.944l.862-2.29zM659.163 7.349c.982-2.575 4.624-2.575 5.606 0l1.862 4.88a2.999 2.999 0 002.803 1.93h4.862c3.021 0 4.148 3.961 1.579 5.551l-3.063 1.896a3 3 0 00-1.224 3.62l1.356 3.555c1.023 2.681-1.942 5.13-4.382 3.62l-5.017-3.105a3 3 0 00-3.158 0L655.37 32.4c-2.44 1.51-5.404-.939-4.382-3.62l1.356-3.555a3 3 0 00-1.224-3.62l-3.063-1.896c-2.569-1.59-1.442-5.55 1.579-5.55h4.863a3 3 0 002.803-1.931l1.861-4.88z" fill="#8AD1F5"/></svg>