<svg width="198" height="25" fill="none" xmlns="http://www.w3.org/2000/svg"><path d="M1.916 24.236H0V0h1.916v24.236zM34.617 0v24.236H32.89L19.606 3.645v20.591h-1.917V0h1.729L32.7 20.573V0h1.916zM47.91 0h16.928v1.728h-7.496v22.508h-1.935V1.729H47.91V0zm45.233 22.508v1.729H78.13V0h14.617v1.728h-12.7v9.037H91.79v1.729H80.047v10.014h13.096zm30.596 1.728h-2.311l-5.768-10.39h-6.162v10.39h-1.916V0h8.473c1.052 0 2.023.182 2.912.545a6.96 6.96 0 012.33 1.465 6.687 6.687 0 011.522 2.217c.363.852.544 1.748.544 2.687 0 1.44-.3 2.605-.901 3.495-.602.876-1.265 1.559-1.992 2.047a8.532 8.532 0 01-2.874 1.203l6.143 10.577zm-14.241-12.118h6.557c.764 0 1.472-.131 2.123-.394a5.213 5.213 0 001.71-1.128 4.982 4.982 0 001.127-1.653 4.974 4.974 0 00.413-2.029c0-.714-.137-1.384-.413-2.01a4.983 4.983 0 00-1.127-1.654 4.979 4.979 0 00-1.71-1.108 5.391 5.391 0 00-2.123-.413h-6.557v10.39zm30.202-.188v12.306h-1.916V0h1.916v11.93L150.09 0h2.517l-10.596 11.93 11.367 12.306h-2.518L139.7 11.93zm28.098 12.306h-1.917V0h1.917v24.236zM181.072 0H198v1.728h-7.497v22.508h-1.935V1.729h-7.496V0z" fill="#568FC5"/><path d="M139.7 11.93v12.306h-1.916V0h1.916v11.93L150.09 0h2.517l-10.596 11.93 11.367 12.306h-2.518L139.7 11.93zm28.098 12.306h-1.916V0h1.916v24.236zM181.072 0H198v1.728h-7.496v22.508h-1.936V1.729h-7.496V0z" fill="#fff"/></svg>