<svg width="64" height="64" fill="none" xmlns="http://www.w3.org/2000/svg"><path d="M39.1 8.76h0C44.776 3.08 53.392 1 57.735 1c2.15 0 3.354.448 4.087 1.178.902.902 1.24 2.619 1.169 4.695-.068 2.004-.504 4.035-.81 5.237-.755 2.958-2.664 8.514-6.94 12.787h0l-12.26 12.258-.292.293V58.52a2.1 2.1 0 01-.613 1.49s0 0 0 0 0 0 0 0l-2.197 2.194h0a2.1 2.1 0 01-2.974 0h0L1.796 27.1s0 0 0 0a2.109 2.109 0 010-2.98l2.192-2.193v-.001a2.12 2.12 0 011.492-.618h21.069l.293-.292L39.099 8.76zM20.637 27.22l1.708-1.706H6.162L7.87 27.22l5.679 5.676.707.707.707-.707 5.676-5.676zm-2.702 8.654l-.707.707.708.707 8.778 8.776.708.707.707-.708 21.94-21.945.706-.708-.707-.707-8.776-8.772-.707-.707-.707.707-21.943 21.942zM36.78 56.127l1.707 1.706v-16.18l-1.707 1.709-5.676 5.679-.707.707.707.707 5.676 5.672zm16.047-36.615l.842.842.683-.974c3.29-4.687 4.51-10.487 4.47-13.188l-.014-.986h-.986 0-.001 0-.001 0-.001 0-.001 0-.001 0-.001 0-.001 0-.001 0-.001 0-.001 0-.001 0-.001 0-.001 0-.001 0-.001 0-.001 0-.001 0-.001 0-.001 0-.001 0-.001 0-.001 0-.001 0-.001 0-.001 0-.001 0-.001 0-.001 0-.001 0-.001 0-.001 0-.001 0-.001 0-.001 0-.001 0-.001 0-.001 0-.001 0-.001 0-.001 0-.001 0-.001 0-.001 0-.001 0-.001 0-.001 0-.001 0-.001 0-.001 0-.001 0-.001 0-.001 0-.001 0-.001 0-.001 0-.001 0-.001 0-.001 0-.001 0-.001 0-.001 0-.001 0-.001 0-.001 0-.001 0-.001 0-.001 0-.001 0-.001 0-.001 0-.001 0-.001 0-.001 0-.001 0-.001 0-.001 0-.001 0-.001 0-.001 0-.001 0-.001 0-.001 0-.001 0-.001 0-.001 0-.001 0c-3.013 0-8.594 1.263-13.118 4.44l-.974.683.841.842 8.342 8.341z" fill="url(#paint0_linear)" stroke="#fff" stroke-width="2"/><path d="M19.347 54.844h.001a6.918 6.918 0 001.259-1.725l3.04 3.042a10.207 10.207 0 01-1.322 1.653c-.917.916-2.36 1.71-4.143 2.374-1.767.659-3.785 1.162-5.777 1.543-3.984.762-7.763 1.018-9.005 1.085 0 0 0 0 0 0l-2.341.127.126-2.339s0 0 0 0c.067-1.242.321-5.022 1.082-9.005.38-1.993.884-4.012 1.542-5.78.665-1.784 1.458-3.228 2.375-4.146a10.283 10.283 0 011.65-1.32l3.043 3.042a6.887 6.887 0 00-1.72 1.255c-.486.486-.879 1.229-1.207 2.032-.339.832-.652 1.84-.934 2.947-.566 2.218-1.028 4.915-1.328 7.576l-.14 1.244 1.243-.138c2.651-.294 5.34-.748 7.556-1.31 1.107-.282 2.116-.594 2.951-.936.81-.332 1.556-.729 2.05-1.221z" fill="url(#paint1_linear)" stroke="#fff" stroke-width="2"/><defs><linearGradient id="paint0_linear" x1="3.639" y1="3.177" x2="154.523" y2="49.331" gradientUnits="userSpaceOnUse"><stop offset=".168" stop-color="#3A2390"/><stop offset="1" stop-color="#7BB8DA"/></linearGradient><linearGradient id="paint1_linear" x1="1.35" y1="40.326" x2="60.25" y2="58.341" gradientUnits="userSpaceOnUse"><stop offset=".168" stop-color="#3A2390"/><stop offset="1" stop-color="#7BB8DA"/></linearGradient></defs></svg>