<svg width="134" height="40" fill="none" xmlns="http://www.w3.org/2000/svg"><g clip-path="url(#clip0)"><path d="M128.395 39.753H4.938A4.953 4.953 0 010 34.815V5.185A4.953 4.953 0 014.938.247h123.457a4.953 4.953 0 014.938 4.938v29.63a4.953 4.953 0 01-4.938 4.938z" fill="#000"/><path d="M128.395.247H4.938A4.953 4.953 0 000 5.185v29.63a4.953 4.953 0 004.938 4.938h123.457a4.953 4.953 0 004.938-4.938V5.185a4.953 4.953 0 00-4.938-4.938zm0 .79a4.153 4.153 0 014.148 4.148v29.63a4.153 4.153 0 01-4.148 4.148H4.938A4.153 4.153 0 01.79 34.815V5.185a4.153 4.153 0 014.148-4.148h123.457z" fill="#A6A6A6"/><path d="M46.833 10.364c0 .827-.245 1.486-.736 1.978-.557.584-1.284.877-2.177.877-.855 0-1.583-.296-2.18-.89-.6-.593-.899-1.328-.899-2.206 0-.877.3-1.612.898-2.206.599-.593 1.326-.89 2.181-.89.424 0 .83.084 1.216.25.386.165.696.385.927.661l-.52.521c-.393-.468-.933-.702-1.623-.702-.624 0-1.163.219-1.618.657-.456.44-.683 1.009-.683 1.71 0 .7.227 1.27.683 1.709.455.438.994.657 1.618.657.662 0 1.213-.22 1.655-.661.287-.288.453-.687.497-1.2H43.92v-.712h2.872c.027.154.04.303.04.447z" fill="#fff"/><path d="M46.833 10.364h-.099c0 .808-.237 1.436-.707 1.908l-.001.002c-.54.564-1.234.845-2.106.846-.832-.001-1.53-.285-2.111-.86-.58-.578-.868-1.282-.869-2.137.001-.855.288-1.559.869-2.135.582-.576 1.279-.86 2.111-.862.412 0 .804.08 1.177.24.375.162.67.374.89.636l.076-.064-.07-.07-.52.522.07.07.075-.064c-.41-.492-.986-.74-1.698-.738a2.353 2.353 0 00-1.687.685c-.475.457-.714 1.059-.713 1.78 0 .722.238 1.324.713 1.78a2.35 2.35 0 001.687.686c.684.001 1.266-.23 1.725-.69.306-.308.48-.733.525-1.262l.01-.107h-2.161v-.515h2.773v-.098l-.098.017c.027.15.04.292.04.43h.198c0-.15-.014-.305-.043-.465l-.015-.081h-3.053v.91h2.251v-.1l-.098-.008c-.044.497-.202.871-.469 1.139-.424.423-.945.631-1.585.633a2.157 2.157 0 01-1.55-.63c-.435-.421-.651-.959-.652-1.639 0-.68.217-1.217.652-1.638.44-.422.95-.629 1.55-.63.668.002 1.172.223 1.547.668l.07.083.596-.598.064-.064-.058-.07a2.537 2.537 0 00-.964-.688 3.155 3.155 0 00-1.255-.257c-.878 0-1.636.308-2.25.919-.617.61-.928 1.375-.927 2.275-.001.9.31 1.667.927 2.277.614.61 1.372.918 2.25.918.914 0 1.673-.303 2.248-.908l-.07-.068.069.07c.512-.512.765-1.202.765-2.048h-.1zm4.552-2.476h-2.698v1.88h2.433v.711h-2.433v1.88h2.698v.727h-3.46V7.16h3.46v.728z" fill="#fff"/><path d="M51.385 7.888V7.79h-2.797v2.076h2.434v.514h-2.434v2.077h2.699v.53h-3.262V7.26h3.262v.63h.098v-.1.1h.1v-.827h-3.658v6.123h3.657v-.926h-2.699v-1.682h2.434v-.91h-2.434v-1.68h2.7v-.1h-.1zm3.211 5.198h-.762V7.888H52.18V7.16h4.072v.728h-1.655v5.198z" fill="#fff"/><path d="M54.596 13.086v-.098h-.663V7.79h-1.655v-.53h3.875v.53h-1.655v5.296h.098v-.098.098h.1V7.987h1.654v-.925h-4.27v.926h1.656v5.197h.96v-.099h-.1zm4.602 0V7.16h.761v5.926h-.761z" fill="#fff"/><path d="M59.198 13.086h.099V7.26h.563v5.729h-.662v.098h.099-.1v.1h.861V7.061h-.959v6.123h.099v-.099zm4.139 0h-.762V7.888H60.92V7.16h4.072v.728h-1.655v5.198z" fill="#fff"/><path d="M63.337 13.086v-.098h-.663V7.79h-1.655v-.53h3.874v.53h-1.655v5.296h.099v-.098.098h.099V7.987h1.655v-.925h-4.27v.926h1.655v5.197h.96v-.099h-.1zm5.581-1.261c.438.444.975.665 1.61.665a2.18 2.18 0 001.61-.665c.438-.445.658-1.012.658-1.702 0-.689-.22-1.257-.659-1.7a2.174 2.174 0 00-1.61-.666c-.634 0-1.17.221-1.61.665-.437.444-.657 1.012-.657 1.701 0 .69.22 1.257.658 1.702zm3.783.496c-.583.599-1.307.898-2.173.898-.867 0-1.59-.3-2.172-.898-.583-.599-.873-1.331-.873-2.198 0-.866.29-1.598.873-2.197.581-.599 1.305-.898 2.172-.898.86 0 1.584.3 2.169.902.584.602.877 1.333.877 2.193 0 .867-.292 1.6-.873 2.198z" fill="#fff"/><path d="M68.918 11.825l-.07.069a2.275 2.275 0 001.68.695 2.274 2.274 0 001.68-.695c.457-.462.688-1.06.687-1.77 0-.71-.23-1.309-.687-1.771a2.274 2.274 0 00-1.68-.695 2.275 2.275 0 00-1.68.695c-.457.462-.688 1.06-.687 1.77 0 .71.23 1.309.687 1.77l.07-.069.07-.069c-.419-.426-.628-.963-.63-1.632.002-.669.211-1.205.63-1.631a2.077 2.077 0 011.54-.637c.611.001 1.117.21 1.54.637.419.426.628.962.63 1.631-.002.67-.211 1.206-.63 1.632a2.075 2.075 0 01-1.54.637 2.077 2.077 0 01-1.54-.637l-.07.07zm3.783.496l-.071-.07c-.566.581-1.259.868-2.102.869-.844-.001-1.537-.288-2.102-.868l-.002-.003.002.003c-.565-.582-.844-1.284-.845-2.129.001-.844.28-1.546.845-2.128.566-.58 1.258-.867 2.102-.869.838.002 1.529.29 2.098.873.567.585.848 1.286.849 2.124-.001.845-.28 1.547-.845 2.129l.07.069.072.068c.598-.615.901-1.377.9-2.266.001-.883-.303-1.644-.904-2.261-.602-.62-1.356-.934-2.24-.933-.89-.001-1.645.311-2.243.929-.6.615-.902 1.377-.901 2.265 0 .889.3 1.651.9 2.267l.003.002-.002-.003c.598.618 1.354.93 2.243.929.888 0 1.644-.311 2.244-.929l-.071-.068zm1.941.765V7.16h.927l2.88 4.61h.033l-.033-1.141V7.16h.762v5.925h-.795l-3.013-4.833h-.033l.033 1.142v3.691h-.76z" fill="#fff"/><path d="M74.642 13.086h.1V7.26h.772l2.88 4.61h.189l-.035-1.242V7.259h.564v5.729h-.64l-3.014-4.834h-.189l.035 1.243v3.59h-.662v.1h.1-.1v.098h.86V9.394l-.033-1.144-.099.003v.099h.033v-.099l-.084.053 3.042 4.88h.949V7.061h-.96v3.568l.033 1.143.099-.002v-.1h-.033v.1l.084-.053-2.91-4.656h-1.08v6.123h.1v-.099zm30.974 16.791h1.843V17.53h-1.843v12.346zm16.599-7.9l-2.112 5.353h-.063l-2.193-5.353h-1.985l3.288 7.482-1.875 4.162h1.923l5.067-11.644h-2.05zm-10.451 6.497c-.604 0-1.446-.302-1.446-1.049 0-.953 1.049-1.318 1.954-1.318.811 0 1.191.175 1.684.413a2.235 2.235 0 01-2.192 1.954zm.222-6.767c-1.334 0-2.716.588-3.288 1.89l1.636.683c.35-.682 1-.905 1.684-.905.953 0 1.922.572 1.938 1.589v.127c-.334-.191-1.048-.477-1.922-.477-1.763 0-3.559.969-3.559 2.78 0 1.652 1.446 2.716 3.066 2.716 1.239 0 1.922-.556 2.351-1.207h.064v.953h1.778v-4.734c0-2.192-1.635-3.415-3.748-3.415zm-11.389 1.773h-2.622v-4.232h2.622c1.377 0 2.16 1.14 2.16 2.116 0 .957-.783 2.116-2.16 2.116zm-.048-5.95h-4.416v12.346h1.842V25.2h2.574c2.043 0 4.051-1.48 4.051-3.835 0-2.356-2.008-3.834-4.051-3.834zm-24.08 10.946c-1.273 0-2.339-1.066-2.339-2.53 0-1.48 1.066-2.561 2.34-2.561 1.256 0 2.243 1.082 2.243 2.561 0 1.464-.987 2.53-2.244 2.53zm2.116-5.807h-.063c-.414-.494-1.21-.94-2.212-.94-2.1 0-4.026 1.847-4.026 4.217 0 2.355 1.925 4.185 4.026 4.185 1.002 0 1.798-.445 2.212-.954h.063v.604c0 1.608-.859 2.467-2.243 2.467-1.13 0-1.83-.812-2.117-1.496l-1.606.668c.46 1.114 1.686 2.482 3.723 2.482 2.164 0 3.994-1.273 3.994-4.376v-7.541h-1.75v.684zm3.023 7.207h1.846V17.53h-1.846v12.348zm4.567-4.073c-.048-1.623 1.257-2.45 2.196-2.45.732 0 1.353.366 1.559.891l-3.755 1.56zm5.728-1.4c-.35-.939-1.416-2.673-3.596-2.673-2.164 0-3.962 1.702-3.962 4.2 0 2.355 1.782 4.201 4.169 4.201 1.925 0 3.04-1.177 3.5-1.861l-1.431-.955c-.477.7-1.13 1.161-2.07 1.161-.938 0-1.606-.43-2.036-1.272l5.617-2.324-.19-.477zM47.154 23.02v1.78h4.265c-.128 1.002-.462 1.734-.971 2.243-.62.621-1.591 1.305-3.294 1.305-2.625 0-4.678-2.116-4.678-4.741 0-2.626 2.053-4.742 4.678-4.742 1.417 0 2.45.557 3.214 1.273l1.257-1.257c-1.066-1.019-2.482-1.798-4.47-1.798-3.597 0-6.62 2.928-6.62 6.524s3.023 6.523 6.62 6.523c1.94 0 3.404-.636 4.55-1.83 1.177-1.177 1.544-2.832 1.544-4.168a5.78 5.78 0 00-.096-1.114h-5.999zm10.942 5.457c-1.273 0-2.37-1.05-2.37-2.546 0-1.511 1.097-2.545 2.37-2.545 1.273 0 2.371 1.034 2.371 2.545 0 1.496-1.098 2.546-2.37 2.546zm0-6.746c-2.323 0-4.216 1.766-4.216 4.2 0 2.42 1.893 4.201 4.216 4.201 2.323 0 4.217-1.782 4.217-4.2 0-2.435-1.894-4.201-4.217-4.201zm9.199 6.746c-1.273 0-2.371-1.05-2.371-2.546 0-1.511 1.098-2.545 2.37-2.545 1.274 0 2.371 1.034 2.371 2.545 0 1.496-1.097 2.546-2.37 2.546zm0-6.746c-2.323 0-4.217 1.766-4.217 4.2 0 2.42 1.894 4.201 4.217 4.201 2.323 0 4.216-1.782 4.216-4.2 0-2.435-1.893-4.201-4.216-4.201z" fill="#fff"/><path d="M10.38 32.237l-.073-.07c-.288-.305-.457-.777-.457-1.388v.143V9.075v.149c0-.662.197-1.16.529-1.46l12.237 12.237L10.38 32.237zM9.85 9.073zm.004-.161v-.003.003zm0-.007v-.001z" fill="url(#paint0_linear)"/><path d="M26.694 24.226l.093-.053 4.833-2.746c.46-.262.767-.58.92-.915-.152.336-.46.654-.92.915l-4.833 2.746-.093.053zm.001-.145l-4.08-4.08 4.08-4.08 4.925 2.798c.625.355.976.813 1.035 1.281v.002c-.059.467-.41.925-1.035 1.28l-4.925 2.799z" fill="url(#paint1_linear)"/><path d="M11.252 32.703zm0-.145a1.27 1.27 0 01-.872-.321L22.616 20l4.08 4.08-14.337 8.146c-.396.224-.772.33-1.106.33zm-.875-.18a1.283 1.283 0 01-.064-.061l.064.062z" fill="url(#paint2_linear)"/><path d="M22.616 20L10.379 7.765c.232-.21.53-.32.872-.32.335 0 .71.106 1.108.332l14.336 8.145-4.08 4.08zm4.171-4.17L12.36 7.631c-.397-.226-.773-.333-1.108-.333h-.004.005c.334 0 .71.107 1.107.332l14.428 8.198z" fill="url(#paint3_linear)"/><path d="M11.343 32.7c.31-.018.655-.124 1.016-.33l14.335-8.144-14.335 8.145c-.361.205-.705.311-1.016.33zm-.963-.319l-.003-.002.003.003zm-.067-.064l-.006-.006.006.006z" fill="#000"/><path d="M26.694 24.226l.093-.053-.093.053z" fill="url(#paint4_linear)"/><path d="M11.253 32.703c-.342 0-.64-.112-.873-.322a.02.02 0 00-.003-.002l-.064-.062-.006-.007.073-.073c.233.21.53.321.873.32.334 0 .71-.106 1.106-.33l14.336-8.146.092.092-.093.053-14.335 8.145c-.361.205-.705.311-1.016.33l-.09.002z" fill="url(#paint5_linear)"/><path d="M10.307 32.31c-.288-.304-.457-.776-.457-1.387 0 .611.17 1.083.457 1.387z" fill="#000"/><path d="M10.307 32.31c-.288-.304-.457-.776-.457-1.388v-.143c0 .611.17 1.083.457 1.387l.073.07-.073.074z" fill="url(#paint6_linear)"/><path d="M10.307 32.31l.073-.074-.073.074z" fill="url(#paint7_linear)"/><path d="M26.787 24.173l-.092-.092 4.924-2.798c.626-.356.977-.814 1.036-1.28 0 .17-.038.342-.114.509-.154.336-.46.653-.921.915l-4.833 2.746z" fill="url(#paint8_linear)"/><path d="M32.655 20c0-.516-.346-1.033-1.036-1.425l-4.832-2.746 4.832 2.746c.69.392 1.037.91 1.036 1.426z" fill="#404040"/><path d="M32.655 20c-.059-.468-.41-.926-1.035-1.28l-4.925-2.799.092-.092 4.833 2.746c.69.392 1.034.909 1.035 1.425z" fill="url(#paint9_linear)"/><path d="M9.85 9.074zm.004-.16v-.002.002zm0-.005v-.004.004zm0-.006c.057-1.014.609-1.6 1.39-1.604a1.27 1.27 0 00-.864.321l-.003.003a1.312 1.312 0 00-.07.069c-.26.274-.423.685-.453 1.211z" fill="#404040"/><path d="M9.85 9.224v-.15c0-.055.001-.108.004-.16v-.011c.03-.526.193-.937.453-1.211l.072.072c-.332.3-.53.798-.53 1.46zm.527-1.601l.003-.003-.003.003z" fill="url(#paint10_linear)"/><path d="M26.695 15.921L12.359 7.776c-.397-.225-.773-.332-1.108-.332-.342 0-.64.11-.872.32l-.072-.072c.022-.024.046-.047.07-.07 0 0 .002 0 .003-.002a1.27 1.27 0 01.863-.32h.008c.335 0 .71.106 1.108.332l14.428 8.197-.092.092z" fill="url(#paint11_linear)"/></g><defs><linearGradient id="paint0_linear" x1="21.531" y1="8.849" x2="4.955" y2="25.424" gradientUnits="userSpaceOnUse"><stop stop-color="#00A0FF"/><stop offset=".007" stop-color="#00A1FF"/><stop offset=".26" stop-color="#00BEFF"/><stop offset=".512" stop-color="#00D2FF"/><stop offset=".76" stop-color="#00DFFF"/><stop offset="1" stop-color="#00E3FF"/></linearGradient><linearGradient id="paint1_linear" x1="33.417" y1="20.001" x2="9.518" y2="20.001" gradientUnits="userSpaceOnUse"><stop stop-color="#FFE000"/><stop offset=".409" stop-color="#FFBD00"/><stop offset=".775" stop-color="orange"/><stop offset="1" stop-color="#FF9C00"/></linearGradient><linearGradient id="paint2_linear" x1="24.52" y1="22.268" x2="2.043" y2="44.745" gradientUnits="userSpaceOnUse"><stop stop-color="#FF3A44"/><stop offset="1" stop-color="#C31162"/></linearGradient><linearGradient id="paint3_linear" x1="7.207" y1=".421" x2="17.244" y2="10.458" gradientUnits="userSpaceOnUse"><stop stop-color="#32A071"/><stop offset=".069" stop-color="#2DA771"/><stop offset=".476" stop-color="#15CF74"/><stop offset=".801" stop-color="#06E775"/><stop offset="1" stop-color="#00F076"/></linearGradient><linearGradient id="paint4_linear" x1="33.416" y1="20.002" x2="9.519" y2="20.002" gradientUnits="userSpaceOnUse"><stop stop-color="#CCB300"/><stop offset=".409" stop-color="#CC9700"/><stop offset=".775" stop-color="#CC8400"/><stop offset="1" stop-color="#CC7D00"/></linearGradient><linearGradient id="paint5_linear" x1="24.52" y1="22.268" x2="2.043" y2="44.745" gradientUnits="userSpaceOnUse"><stop stop-color="#CC2E36"/><stop offset="1" stop-color="#9C0E4E"/></linearGradient><linearGradient id="paint6_linear" x1="21.531" y1="8.849" x2="4.955" y2="25.424" gradientUnits="userSpaceOnUse"><stop stop-color="#008DE0"/><stop offset=".007" stop-color="#008DE0"/><stop offset=".26" stop-color="#00A7E0"/><stop offset=".512" stop-color="#00B8E0"/><stop offset=".76" stop-color="#00C4E0"/><stop offset="1" stop-color="#00C7E0"/></linearGradient><linearGradient id="paint7_linear" x1="24.521" y1="22.268" x2="2.044" y2="44.746" gradientUnits="userSpaceOnUse"><stop stop-color="#E0333C"/><stop offset="1" stop-color="#AB0F56"/></linearGradient><linearGradient id="paint8_linear" x1="33.417" y1="20.001" x2="9.518" y2="20.001" gradientUnits="userSpaceOnUse"><stop stop-color="#E0C500"/><stop offset=".409" stop-color="#E0A600"/><stop offset=".775" stop-color="#E09100"/><stop offset="1" stop-color="#E08900"/></linearGradient><linearGradient id="paint9_linear" x1="33.417" y1="20.001" x2="9.518" y2="20.001" gradientUnits="userSpaceOnUse"><stop stop-color="#FFE840"/><stop offset=".409" stop-color="#FFCE40"/><stop offset=".775" stop-color="#FFBC40"/><stop offset="1" stop-color="#FFB540"/></linearGradient><linearGradient id="paint10_linear" x1="21.531" y1="8.849" x2="4.955" y2="25.424" gradientUnits="userSpaceOnUse"><stop stop-color="#40B8FF"/><stop offset=".007" stop-color="#40B9FF"/><stop offset=".26" stop-color="#40CEFF"/><stop offset=".512" stop-color="#40DDFF"/><stop offset=".76" stop-color="#40E7FF"/><stop offset="1" stop-color="#40EAFF"/></linearGradient><linearGradient id="paint11_linear" x1="7.207" y1=".421" x2="17.244" y2="10.458" gradientUnits="userSpaceOnUse"><stop stop-color="#65B895"/><stop offset=".069" stop-color="#62BD95"/><stop offset=".476" stop-color="#50DB97"/><stop offset=".801" stop-color="#44ED98"/><stop offset="1" stop-color="#40F498"/></linearGradient><clipPath id="clip0"><path fill="#fff" d="M0 0h134v40H0z"/></clipPath></defs></svg>