<svg width="82" height="56" fill="none" xmlns="http://www.w3.org/2000/svg"><path d="M67.667 27.667c0 14.727-11.94 26.666-26.667 26.666-9.582 0-17.983-5.053-22.684-12.64a26.542 26.542 0 01-3.983-14.026C14.333 12.939 26.273 1 41 1c14.728 0 26.667 11.94 26.667 26.667z" stroke="url(#paint0_linear)" stroke-width="2" stroke-miterlimit="10" stroke-linecap="round" stroke-linejoin="round"/><path d="M1 27.667h13.333m66.667 0H67.667" stroke="url(#paint1_linear)" stroke-width="2" stroke-miterlimit="10" stroke-linecap="round" stroke-linejoin="round"/><path d="M6.36 47.667L17.907 41M75.642 7.667l-11.309 6.529" stroke="url(#paint2_linear)" stroke-width="2" stroke-miterlimit="10" stroke-linecap="round" stroke-linejoin="round"/><path d="M6.36 7.667l11.547 6.666m57.735 33.334l-11.309-6.53" stroke="url(#paint3_linear)" stroke-width="2" stroke-miterlimit="10" stroke-linecap="round" stroke-linejoin="round"/><defs><linearGradient id="paint0_linear" x1="17.223" y1="3.655" x2="143.316" y2="42.227" gradientUnits="userSpaceOnUse"><stop offset=".168" stop-color="#3A2390"/><stop offset="1" stop-color="#7BB8DA"/></linearGradient><linearGradient id="paint1_linear" x1="5.334" y1="27.716" x2="5.679" y2="36.154" gradientUnits="userSpaceOnUse"><stop offset=".168" stop-color="#3A2390"/><stop offset="1" stop-color="#7BB8DA"/></linearGradient><linearGradient id="paint2_linear" x1="10.138" y1="45.543" x2="14.656" y2="52.678" gradientUnits="userSpaceOnUse"><stop offset=".168" stop-color="#3A2390"/><stop offset="1" stop-color="#7BB8DA"/></linearGradient><linearGradient id="paint3_linear" x1="10.088" y1="9.877" x2="6.168" y2="17.357" gradientUnits="userSpaceOnUse"><stop offset=".168" stop-color="#3A2390"/><stop offset="1" stop-color="#7BB8DA"/></linearGradient></defs></svg>