<svg width="44" height="44" fill="none" xmlns="http://www.w3.org/2000/svg"><path d="M22 .688C10.226.688.687 10.227.687 22c0 11.773 9.54 21.313 21.313 21.313 11.774 0 21.313-9.54 21.313-21.313S33.773.687 22 .687zm10.468 14.6L28.97 31.773c-.259 1.169-.954 1.452-1.925.902l-5.328-3.927-2.57 2.475c-.283.283-.524.524-1.074.524l.378-5.423 9.874-8.921c.43-.378-.095-.593-.663-.215L15.46 24.87l-5.26-1.642c-1.142-.36-1.168-1.143.241-1.693l20.548-7.924c.955-.344 1.788.232 1.479 1.676v.002z" fill="#fff"/></svg>