<svg width="44" height="44" fill="none" xmlns="http://www.w3.org/2000/svg"><g clip-path="url(#clip0)"><path d="M40.822 10.175C34.222 0 20.747-3.025 10.297 3.3.122 9.625-3.178 23.375 3.422 33.55l.55.825-2.2 8.25 8.25-2.2.825.55C14.422 42.9 18.272 44 22.122 44c4.125 0 8.25-1.1 11.825-3.3 10.175-6.6 13.2-20.075 6.875-30.525zM35.047 31.35c-1.1 1.65-2.475 2.75-4.4 3.025-1.1 0-2.475.55-7.975-1.65-4.675-2.2-8.525-5.775-11.275-9.9-1.65-1.925-2.475-4.4-2.75-6.875 0-2.2.825-4.125 2.2-5.5.55-.55 1.1-.825 1.65-.825h1.375c.55 0 1.1 0 1.375 1.1.55 1.375 1.925 4.675 1.925 4.95.275.275.275.825 0 1.1.275.55 0 1.1-.275 1.375-.275.275-.55.825-.825 1.1-.55.275-.825.825-.55 1.375 1.1 1.65 2.475 3.3 3.85 4.675 1.65 1.375 3.3 2.475 5.225 3.3.55.275 1.1.275 1.375-.275.275-.55 1.65-1.925 2.2-2.475.55-.55.825-.55 1.375-.275l4.4 2.2c.55.275 1.1.55 1.375.825.275.825.275 1.925-.275 2.75z" fill="#fff"/></g><defs><clipPath id="clip0"><path fill="#fff" d="M0 0h44v44H0z"/></clipPath></defs></svg>