<svg width="29" height="28" viewBox="0 0 29 28" fill="none" xmlns="http://www.w3.org/2000/svg">
<g clip-path="url(#clip0)">
<path d="M1.19629 1.19922H27.5158V26.8009H1.19629V1.19922Z" fill="url(#paint0_radial)"/>
<path d="M1.19632 1.19925H27.5158V26.8009H1.19632V1.19925ZM0 27.9973H28.7121V0.00292969H0V27.9973ZM18.8064 9.9804C18.8064 9.8847 18.8423 9.83681 18.95 9.83681H20.8282C20.9239 9.83681 20.9718 9.87269 20.9718 9.9804V19.4195C20.9718 19.5152 20.9479 19.5631 20.8282 19.5631H18.9739C18.8543 19.5631 18.8184 19.5033 18.8184 19.4076V9.9804H18.8064ZM18.6748 7.26469C18.6748 6.49904 19.2132 6.04444 19.8951 6.04444C20.6249 6.04444 21.1154 6.53493 21.1154 7.26469C21.1154 8.05426 20.601 8.48494 19.8712 8.48494C19.1773 8.48498 18.6748 8.05426 18.6748 7.26469ZM13.2913 13.9164C12.9564 12.5884 12.1668 9.69327 11.8677 8.29355H11.8437C11.5925 9.69327 10.9585 12.062 10.456 13.9164H13.2913ZM9.9655 15.8544L9.02038 19.4435C8.99646 19.5391 8.96057 19.563 8.84095 19.563H7.08233C6.96271 19.563 6.93874 19.5271 6.96271 19.3836L10.3603 7.49196C10.4201 7.27665 10.456 7.08522 10.4799 6.49904C10.4799 6.41531 10.5158 6.37942 10.5756 6.37942H13.0879C13.1716 6.37942 13.2075 6.40335 13.2315 6.49904L17.0358 19.4075C17.0598 19.5032 17.0358 19.563 16.9401 19.563H14.9542C14.8585 19.563 14.7986 19.5391 14.7748 19.4554L13.7938 15.8544H9.9655Z" fill="#FF7F18"/>
</g>
<defs>
<radialGradient id="paint0_radial" cx="0" cy="0" r="1" gradientUnits="userSpaceOnUse" gradientTransform="translate(9.86464 6.93657) scale(20.0028 19.3663)">
<stop stop-color="#423325" stop-opacity="0.98"/>
<stop offset="1" stop-color="#1C0A00"/>
</radialGradient>
<clipPath id="clip0">
<rect width="28.7121" height="28" fill="white"/>
</clipPath>
</defs>
</svg>
