<svg width="30" height="28" viewBox="0 0 30 28" fill="none" xmlns="http://www.w3.org/2000/svg">
<g clip-path="url(#clip0)">
<path d="M1.90834 1.19922H28.2278V26.8009H1.90834V1.19922Z" fill="url(#paint0_radial)"/>
<path d="M1.90837 1.19925H28.2278V26.8009H1.90837V1.19925ZM0.712051 27.9973H29.4242V0.00292969H0.712051V27.9973ZM21.0258 13.4976C21.6359 13.4976 21.8513 13.4976 21.9111 13.4737C21.9111 13.39 21.935 13.3301 21.935 13.2703C21.935 12.6243 21.624 11.428 20.3798 11.428C19.2313 11.428 18.7409 12.4329 18.6212 13.4976H21.0258ZM18.5973 15.1366C18.6212 16.7517 19.3869 17.8403 21.2053 17.8403C21.9112 17.8403 22.5213 17.7447 23.1554 17.4695C23.2391 17.4336 23.299 17.4456 23.299 17.5533V19.0487C23.299 19.1683 23.2631 19.2282 23.1793 19.288C22.5453 19.599 21.7556 19.7426 20.7747 19.7426C17.6164 19.7426 16.432 17.4097 16.432 14.8137C16.432 11.9903 17.8916 9.6814 20.4637 9.6814C23.0717 9.6814 23.9809 11.8707 23.9809 13.6532C23.9809 14.2275 23.945 14.6941 23.8852 14.9214C23.8613 15.0171 23.8254 15.053 23.7297 15.0769C23.4904 15.1128 22.7846 15.1606 21.7318 15.1606H18.5973V15.1366ZM12.185 13.9164C11.85 12.5884 11.0365 9.69327 10.7374 8.29355H10.7134C10.4622 9.69327 9.8042 12.062 9.31372 13.9164H12.185ZM8.82319 15.8544L7.87812 19.4315C7.85419 19.5271 7.81831 19.5631 7.69864 19.5631H5.94002C5.8204 19.5631 5.79643 19.5272 5.8204 19.3837L9.21798 7.50397C9.27779 7.28866 9.31367 7.12115 9.3376 6.52301C9.3376 6.43928 9.37348 6.40339 9.43329 6.40339H11.9456C12.0293 6.40339 12.0652 6.42732 12.0892 6.52301L15.8935 19.4076C15.9174 19.5032 15.8935 19.5631 15.7978 19.5631H13.8239C13.7282 19.5631 13.6683 19.5272 13.6444 19.4435L12.6634 15.8545H8.82319V15.8544Z" fill="#D8A1FF"/>
</g>
<defs>
<radialGradient id="paint0_radial" cx="0" cy="0" r="1" gradientUnits="userSpaceOnUse" gradientTransform="translate(10.5767 6.93657) scale(20.0028 19.3663)">
<stop stop-color="#442F55" stop-opacity="0.98"/>
<stop offset="1" stop-color="#12002C"/>
</radialGradient>
<clipPath id="clip0">
<rect width="28.7121" height="28" fill="white" transform="translate(0.712036)"/>
</clipPath>
</defs>
</svg>
