<svg width="28" height="28" viewBox="0 0 28 28" fill="none" xmlns="http://www.w3.org/2000/svg">
<path d="M18.6667 18.6668C21.244 18.6668 23.3333 16.5775 23.3333 14.0002C23.3333 11.4228 21.244 9.3335 18.6667 9.3335C16.0893 9.3335 14 11.4228 14 14.0002C14 16.5775 16.0893 18.6668 18.6667 18.6668Z" fill="#19BCFE"/>
<path fill-rule="evenodd" clip-rule="evenodd" d="M9.33332 27.9998C10.571 27.9998 11.758 27.5082 12.6332 26.633C13.5083 25.7578 14 24.5708 14 23.3332V18.6665H9.33332C8.09565 18.6665 6.90866 19.1582 6.03349 20.0333C5.15832 20.9085 4.66666 22.0955 4.66666 23.3332C4.66666 24.5708 5.15832 25.7578 6.03349 26.633C6.90866 27.5082 8.09565 27.9998 9.33332 27.9998Z" fill="#09CF83"/>
<path fill-rule="evenodd" clip-rule="evenodd" d="M9.33332 18.6668H14V9.3335H9.33332C8.09565 9.3335 6.90866 9.82516 6.03349 10.7003C5.15832 11.5755 4.66666 12.7625 4.66666 14.0002C4.66666 15.2378 5.15832 16.4248 6.03349 17.3C6.90866 18.1752 8.09565 18.6668 9.33332 18.6668Z" fill="#A259FF"/>
<path fill-rule="evenodd" clip-rule="evenodd" d="M9.33332 9.33333H14V0H9.33332C8.09565 0 6.90866 0.491665 6.03349 1.36684C5.15832 2.242 4.66666 3.42899 4.66666 4.66667C4.66666 5.90434 5.15832 7.09133 6.03349 7.9665C6.90866 8.84167 8.09565 9.33333 9.33332 9.33333Z" fill="#F24E1E"/>
<path fill-rule="evenodd" clip-rule="evenodd" d="M18.6667 9.33333H14V0H18.6667C19.9043 0 21.0913 0.491665 21.9665 1.36684C22.8417 2.242 23.3333 3.42899 23.3333 4.66667C23.3333 5.90434 22.8417 7.09133 21.9665 7.9665C21.0913 8.84167 19.9043 9.33333 18.6667 9.33333Z" fill="#FF7262"/>
</svg>
