<svg width="28" height="28" viewBox="0 0 28 28" fill="none" xmlns="http://www.w3.org/2000/svg">
<path d="M2.77112 3.07764H25.2289V24.9229H2.77112V3.07764Z" fill="#0C0824"/>
<path d="M2.77113 3.07728H25.2289V24.9225H2.77113V3.07728ZM1.75 25.9437H26.25V2.05615H1.75V25.9437ZM18.2674 11.8562C17.4606 11.8562 17.185 12.2648 17.185 12.6017C17.185 12.9692 17.3687 13.2247 18.4511 13.7855C20.0541 14.5617 20.5511 15.3063 20.5511 16.3992C20.5511 18.0328 19.306 18.9104 17.6216 18.9104C16.8987 18.9372 16.1803 18.787 15.5286 18.4729C15.4569 18.4423 15.4472 18.3915 15.4472 18.3093V16.8069C15.4472 16.7045 15.498 16.6739 15.5698 16.7255C16.1817 17.119 16.8941 17.328 17.6216 17.3275C18.4284 17.3275 18.7652 16.9907 18.7652 16.5313C18.7652 16.1638 18.5308 15.8374 17.4991 15.3063C16.0493 14.6124 15.4472 13.9063 15.4472 12.7338C15.4472 11.4169 16.478 10.3249 18.2648 10.3249C18.8867 10.2982 19.5077 10.3955 20.0917 10.611C20.1254 10.6329 20.1526 10.6633 20.1706 10.6991C20.1886 10.7349 20.1967 10.7749 20.1941 10.8149V12.2149C20.1941 12.2963 20.1434 12.3479 20.041 12.3173C19.5013 12.0066 18.8875 11.8478 18.2648 11.8579L18.2674 11.8562ZM9.48763 13.0707C9.72213 13.0908 9.90588 13.0908 10.3145 13.0908C11.5089 13.0908 12.6315 12.6725 12.6315 11.0494C12.6315 9.75265 11.8247 9.0999 10.4676 9.0999C10.059 9.0999 9.67138 9.12003 9.48763 9.13053V13.0707ZM7.67025 7.64565C7.67025 7.5739 7.81287 7.52315 7.89512 7.52315C8.77257 7.4873 9.6507 7.47038 10.5289 7.4724C13.3569 7.4724 14.4594 9.02378 14.4594 11.0048C14.4594 13.5974 12.5807 14.7104 10.2743 14.7104C9.88662 14.7104 9.75362 14.6903 9.478 14.6903V18.6103C9.478 18.6917 9.44738 18.7328 9.3555 18.7328H7.79362C7.71225 18.7328 7.67113 18.7022 7.67113 18.6103V7.65003L7.67025 7.64565Z" fill="#31C5F0"/>
</svg>
