<svg width="21" height="28" viewBox="0 0 21 28" fill="none" xmlns="http://www.w3.org/2000/svg">
<g clip-path="url(#clip0)">
<path fill-rule="evenodd" clip-rule="evenodd" d="M0.137955 23.3447V10.082C0.137955 4.51386 4.65181 0 10.22 0C15.7882 0 20.302 4.51386 20.302 10.082C20.302 15.5769 15.9061 20.0451 10.4392 20.1617V20.1641C8.86549 20.1641 7.58989 18.8885 7.58989 17.3148C7.58989 15.7558 8.8419 14.4893 10.3953 14.4659V14.4621C12.735 14.3701 14.6035 12.4442 14.6035 10.082C14.6035 7.66112 12.6409 5.69854 10.22 5.69854C7.79907 5.69854 5.83649 7.66112 5.83649 10.082V24.7667C5.83649 26.3404 4.5609 27.616 2.98722 27.616C2.40106 27.6169 1.82899 27.4362 1.34973 27.0988C2.16926 26.8592 2.76805 26.1021 2.76805 25.2051C2.76805 24.1157 1.88486 23.2325 0.795479 23.2325C0.564907 23.2325 0.343628 23.272 0.137955 23.3447ZM10.4392 19.2874C11.5285 19.2874 12.4117 18.4042 12.4117 17.3148C12.4117 16.2254 11.5285 15.3422 10.4392 15.3422C9.34978 15.3422 8.46659 16.2254 8.46659 17.3148C8.46659 18.4042 9.34978 19.2874 10.4392 19.2874Z" fill="url(#paint0_linear)"/>
</g>
<defs>
<linearGradient id="paint0_linear" x1="10.22" y1="0" x2="10.22" y2="17.2926" gradientUnits="userSpaceOnUse">
<stop stop-color="#D378E5"/>
<stop offset="1" stop-color="#7526C2"/>
</linearGradient>
<clipPath id="clip0">
<rect width="21" height="28" fill="white"/>
</clipPath>
</defs>
</svg>
