<svg width="31" height="28" viewBox="0 0 31 28" fill="none" xmlns="http://www.w3.org/2000/svg">
<path d="M15.4483 0L6.74112 0.920621L0 9.96993L15.4483 27.9592L30.8966 9.96981L24.1556 0.920621L15.4483 0Z" fill="#FDB300"/>
<path d="M0 9.97021L15.4483 27.9595L6.25728 9.97021H0Z" fill="#EB6C00"/>
<path d="M24.6392 9.97021L15.4483 27.9595L30.8966 9.97021H24.6392Z" fill="#EB6C00"/>
<path d="M6.25732 9.97021L15.4483 27.9595L24.6393 9.97021H6.25732Z" fill="#FDAD00"/>
<path d="M6.74117 0.920621L6.2572 9.96993L15.4483 0L6.74117 0.920621Z" fill="#FDD231"/>
<path d="M24.6392 9.96993L24.1554 0.920621L15.4483 0L24.6392 9.96993Z" fill="#FDD231"/>
<path d="M24.6393 9.96972H30.8966L24.1555 0.92041L24.6393 9.96972Z" fill="#FDAD00"/>
<path d="M0 9.96972H6.25728L6.74112 0.92041L0 9.96972Z" fill="#FDAD00"/>
<path d="M15.4483 0L6.25732 9.96981H24.6393L15.4483 0Z" fill="#FEEEB7"/>
</svg>
