<svg width="36" height="28" viewBox="0 0 36 28" fill="none" xmlns="http://www.w3.org/2000/svg">
<path d="M5.38942 19.2705L3.56027 19.9387L3.46193 25.3804L9.79403 23.0672C7.62232 22.3378 6.03629 21.0542 5.38942 19.2705Z" fill="#FDBD39"/>
<path d="M6.34671 13.5151L0 15.8337L3.56023 19.9389L5.38938 19.2707C4.74443 17.4922 5.14217 15.4818 6.34671 13.5151Z" fill="#F69833"/>
<path d="M17.027 5.66306C8.94512 8.61549 3.7348 14.7077 5.3894 19.2707L34.6565 8.57888C33.0019 4.01597 25.1089 2.71049 17.027 5.66279" fill="#FECF33"/>
<path d="M23.019 22.1867C31.1008 19.2343 36.3211 13.1689 34.6565 8.5791L5.38939 19.2707C7.05382 23.8606 14.9371 25.139 23.019 22.1867Z" fill="#EE6723"/>
<path d="M34.6565 8.57861L5.38939 19.2705C5.9625 20.8508 8.14787 21.6293 11.2143 21.6293C14.2038 21.6293 18.0306 20.89 22.0203 19.4325C30.1022 16.4801 35.7884 11.6999 34.6565 8.57889" fill="#F69833"/>
<path d="M28.8317 6.22021C25.8421 6.22021 22.0152 6.95969 18.0256 8.41705C9.94384 11.3695 4.25765 16.1497 5.3894 19.2708L34.6565 8.57905C34.0835 6.99875 31.8982 6.22021 28.8318 6.22021" fill="#FDBD39"/>
<path d="M27.2153 25.6685H27.2151C26.354 25.6685 25.0836 24.8907 23.4393 23.3567C21.4938 21.5419 19.2653 18.8838 17.1643 15.8719C15.0632 12.8602 13.3368 9.84934 12.303 7.39381C11.1765 4.71769 11.0159 3.07225 11.8256 2.50323C12.0031 2.37853 12.2172 2.31543 12.4615 2.31543C13.1201 2.31543 14.4034 2.80577 16.7763 5.14179L16.8282 5.19287L16.8211 5.2654C16.8048 5.43305 16.79 5.60083 16.7765 5.76872L16.7502 6.09871L16.5173 5.86419C13.9607 3.28846 12.8352 3.01038 12.47 3.01038C12.3658 3.01038 12.2829 3.03155 12.2235 3.07334C11.8722 3.32015 11.8496 4.52866 12.9416 7.12282C13.957 9.53465 15.6583 12.5002 17.7322 15.4727C19.8063 18.4456 22.0005 21.0645 23.9113 22.8469C25.9716 24.7688 26.9001 24.9763 27.2036 24.9763C27.3084 24.9763 27.3936 24.9539 27.4567 24.9094C27.8272 24.6492 27.8277 23.3545 26.6099 20.5623L26.5539 20.4342L26.6764 20.3672C26.7988 20.3002 26.9172 20.2342 27.0281 20.1711L27.1748 20.0878L27.2422 20.2425C28.1057 22.221 28.913 24.7355 27.8546 25.4796C27.6762 25.6049 27.4612 25.6685 27.2153 25.6685ZM27.2151 25.3633H27.2153L27.2152 25.5158V25.3633H27.2151Z" fill="#EE6723"/>
<path d="M23.2152 22.1032L23.2029 22.2552C22.9985 24.7834 22.4605 27.823 21.0578 27.9459C21.0297 27.9485 21.0004 27.9497 20.9711 27.9497C20.0183 27.9497 19.1167 26.5844 18.2917 23.8918C17.511 21.3443 16.9053 17.924 16.586 14.2607C16.2667 10.5982 16.2714 7.12416 16.5994 4.47877C16.9571 1.596 17.6376 0.0904195 18.6222 0.00409756C18.6514 0.00136585 18.6816 0 18.7114 0C19.4027 0 20.4445 0.782634 21.511 4.42864L20.8147 4.56304C20.4586 3.3447 20.0704 2.35378 19.6851 1.6729C19.3288 1.0431 18.9823 0.696312 18.7095 0.696312C18.7005 0.696312 18.6915 0.696585 18.6826 0.697268C18.2558 0.734829 17.6342 1.77015 17.2875 4.56468C16.9654 7.16281 16.9615 10.5847 17.2766 14.2001C17.592 17.8161 18.1877 21.1853 18.9544 23.6873C19.2976 24.8077 19.6742 25.7312 20.0434 26.3578C20.3838 26.9356 20.7132 27.2538 20.9708 27.2538C20.9798 27.2538 20.9886 27.2534 20.9974 27.2527C21.4058 27.217 22.1755 26.1396 22.4993 22.3488L23.2152 22.1032Z" fill="#EE6723"/>
</svg>
