<svg width="28" height="28" fill="none" xmlns="http://www.w3.org/2000/svg"><path d="M6.09 15.14c.042.83.913.446 1.308.188.374-.245.484-.041.517-.528.022-.32.06-.638.042-.959-.567-.049-1.183.08-1.648.4-.239.166-.688.693-.219.9z" fill="#FFCE7E"/><path d="M8.104 5.259c-3.34-.894-.857-4.934 1.824-3.271L8.104 5.259zm14.833-3.575c2.642-1.765 5.03 2.217 1.96 3.22l-1.96-3.22z" fill="#4FBAFF"/><path d="M23.506 25.351c.672.395 1.898 1.59.891 2.168-.968.843-1.508-.924-2.357-1.17.365-.472.828-.902 1.466-.999v.001zm-11.992 1.35c-.789.116-1.232.791-1.889 1.135-.618.35-.855-.113-.911-.206-.097-.042-.089.038-.24-.105-.572-.861.6-1.49 1.21-1.918.849-.164 1.382.536 1.83 1.094z" fill="#FFCE7E"/><path d="M8.242 4.143c-.44-.222-.763-.523-.493-1.007.248-.45.712-.4 1.153-.179l-.66 1.186zm15.96-.42c.44-.222.763-.524.494-1.008-.25-.45-.713-.4-1.154-.179l.66 1.186z" fill="#000"/><path d="M27.233 15.036c-.041.83-.913.445-1.307.186-.375-.246-.484-.042-.518-.527-.021-.32-.06-.64-.041-.96.567-.048 1.183.08 1.647.401.24.165.689.693.22.9z" fill="#FFCE7E"/><path d="M16.328.007c3.342 0 6.474.455 8.108 3.508 1.466 3.424.945 7.117 1.169 10.733.192 3.108.618 6.697-.899 9.576-1.593 3.03-5.576 3.792-8.858 3.68-2.578-.088-5.693-.887-7.147-3.127-1.707-2.628-.898-6.537-.775-9.461.147-3.464-.987-6.939.21-10.328 1.242-3.516 4.589-4.31 8.19-4.581" fill="#4FBAFF"/><path d="M16.917 4.275c.6 3.318 6.303 2.44 5.483-.906-.734-3.002-5.682-2.17-5.483.906zm-6.814.536c.777 2.889 5.64 2.15 5.457-.749-.22-3.47-6.201-2.8-5.458.75h.001zm7.502 3.446c.002.431.104.915.017 1.374-.116.207-.343.23-.538.315a.787.787 0 01-.607-.452c-.07-.524.026-1.03.043-1.555l1.085.318z" fill="#fff"/><path d="M11.444 5.508a1.167 1.167 0 100-2.334 1.167 1.167 0 000 2.334z" fill="#000"/><path d="M11.817 5.698a1.167 1.167 0 100-2.334 1.167 1.167 0 000 2.334zm6.507-.401a1.167 1.167 0 100-2.334 1.167 1.167 0 000 2.334z" fill="#000"/><path d="M18.694 5.487a1.167 1.167 0 100-2.334 1.167 1.167 0 000 2.334z" fill="#000"/><path d="M15.259 8.209c-.358.826.2 2.478 1.171 1.26-.07-.525.027-1.032.044-1.555l-1.215.295z" fill="#fff"/><path d="M15.381 6.618c-.667.055-1.213.81-.867 1.407.46.791 1.487-.07 2.126.012.735.013 1.338.738 1.93.13.657-.676-.284-1.336-1.019-1.63l-2.17.081z" fill="#FFCE7E"/><path d="M15.297 6.586c-.049-1.1 2.156-1.238 2.416-.318.26.92-2.307 1.132-2.416.318-.086-.651 0 0 0 0z" fill="#000"/></svg>