<svg width="28" height="28" fill="none" xmlns="http://www.w3.org/2000/svg"><path d="M0 0h28v28H0V0z" fill="#F7DF1E"/><path d="M7.362 23.398l2.143-1.296c.413.733.79 1.354 1.691 1.354.865 0 1.41-.339 1.41-1.655v-8.947h2.632v8.983c0 2.727-1.598 3.967-3.928 3.967-2.106 0-3.328-1.09-3.948-2.406zm9.305-.282l2.142-1.24c.565.922 1.297 1.598 2.593 1.598 1.091 0 1.785-.546 1.785-1.297 0-.902-.712-1.222-1.915-1.748l-.658-.282c-1.898-.809-3.158-1.824-3.158-3.967 0-1.971 1.505-3.476 3.853-3.476 1.673 0 2.876.583 3.74 2.105l-2.048 1.316c-.452-.808-.94-1.128-1.692-1.128-.77 0-1.26.49-1.26 1.128 0 .79.49 1.109 1.617 1.599l.658.28c2.237.959 3.495 1.936 3.495 4.136 0 2.368-1.86 3.664-4.36 3.664-2.444 0-4.022-1.164-4.792-2.687" fill="#000"/></svg>