<svg width="28" height="28" fill="none" xmlns="http://www.w3.org/2000/svg"><path d="M12.847.356a2.38 2.38 0 012.305 0C18.66 2.32 22.17 4.28 25.678 6.244c.66.368 1.102 1.096 1.095 1.848v11.812c.004.784-.48 1.528-1.176 1.887-3.498 1.953-6.992 3.909-10.489 5.86a2.312 2.312 0 01-2.33-.064c-1.048-.602-2.1-1.2-3.147-1.801-.215-.127-.455-.228-.607-.433.133-.179.372-.2.567-.28.438-.137.84-.358 1.242-.573.101-.069.225-.042.323.019.896.51 1.785 1.034 2.684 1.538.193.11.386-.035.55-.127 3.432-1.921 6.868-3.834 10.299-5.756a.338.338 0 00.187-.332c.003-3.897 0-7.794.002-11.69a.365.365 0 00-.22-.365c-3.485-1.943-6.969-3.89-10.454-5.834a.367.367 0 00-.408 0C10.31 3.897 6.826 5.845 3.34 7.79a.362.362 0 00-.22.362v11.694a.332.332 0 00.19.328c.93.523 1.86 1.04 2.79 1.561.526.28 1.168.446 1.746.231.51-.18.867-.695.857-1.232.005-3.873-.002-7.748.004-11.621-.012-.172.152-.315.32-.298.448-.003.894-.005 1.342 0 .187-.003.316.182.292.355-.002 3.899.005 7.797-.003 11.696 0 1.038-.43 2.17-1.4 2.677-1.196.614-2.674.484-3.855-.105-1.022-.505-1.998-1.101-3.002-1.642-.699-.359-1.18-1.105-1.176-1.89V8.093c-.007-.768.452-1.508 1.132-1.871L12.846.357l.001-.001z" fill="#8CC84B"/><path d="M15.898 8.538c1.525-.097 3.157-.058 4.53.687 1.062.57 1.651 1.766 1.67 2.935-.03.158-.196.245-.348.234-.443 0-.885.006-1.328-.003-.187.007-.297-.164-.32-.329-.128-.56-.436-1.113-.966-1.382-.817-.405-1.762-.385-2.653-.376-.649.034-1.348.09-1.899.467-.422.287-.55.866-.4 1.332.143.334.532.442.852.542 1.838.476 3.785.429 5.588 1.054.747.257 1.476.753 1.732 1.526.333 1.039.186 2.278-.558 3.11-.604.685-1.484 1.059-2.362 1.26-1.167.258-2.38.265-3.566.151-1.114-.126-2.275-.416-3.136-1.169-.735-.632-1.097-1.62-1.06-2.571.009-.16.17-.273.326-.26.446-.003.89-.004 1.336 0 .179-.01.31.14.32.306.082.534.284 1.094.753 1.409.906.578 2.042.539 3.08.555.858-.037 1.823-.05 2.523-.611.37-.321.48-.858.38-1.319-.108-.39-.52-.571-.874-.69-1.814-.569-3.783-.362-5.58-1.005-.729-.255-1.435-.738-1.715-1.48-.39-1.05-.211-2.349.611-3.154.803-.8 1.962-1.108 3.064-1.219z" fill="#8CC84B"/></svg>