<svg width="28" height="28" fill="none" xmlns="http://www.w3.org/2000/svg"><path d="M0 20.605l2.1-9.878h4.858c2.1.122 3.15 1.097 3.15 2.805 0 2.927-2.494 4.634-4.725 4.512H3.018l-.525 2.561H0zm3.544-4.39H5.12c1.182-.122 2.232-.487 2.364-2.56 0-.733-.657-1.098-1.575-1.098H4.2l-.657 3.658h.001zm6.076 1.829l2.1-9.878h2.495l-.525 2.561h2.362c2.1.122 2.889 1.097 2.625 2.317l-.918 5h-2.625l.918-4.512c.132-.61.132-.975-.787-.975h-1.97l-1.18 5.487H9.62zm7.971 2.561l2.1-9.878h4.858c2.1.122 3.15 1.097 3.15 2.805 0 2.927-2.494 4.634-4.725 4.512H20.61l-.525 2.561h-2.494zm3.544-4.39h1.575c1.182-.122 2.232-.487 2.364-2.56 0-.733-.657-1.098-1.575-1.098h-1.707l-.657 3.658z" fill="#6983B5"/></svg>