<svg width="28" height="28" fill="none" xmlns="http://www.w3.org/2000/svg"><path d="M13.881.008c-7.091 0-6.648 3.087-6.648 3.087l.009 3.198h6.766v.96H4.554S.014 6.738.014 13.92c0 7.183 3.961 6.929 3.961 6.929H6.34v-3.334s-.127-3.976 3.896-3.976h6.712s3.77.061 3.77-3.658V3.73S21.293.008 13.884.008h-.002zm-3.731 2.15a1.213 1.213 0 011.218 1.223 1.224 1.224 0 01-1.685 1.13 1.213 1.213 0 01-.75-1.13 1.224 1.224 0 011.217-1.223z" fill="url(#paint0_linear)"/><path d="M14.083 27.904c7.09 0 6.647-3.087 6.647-3.087l-.006-3.199h-6.767v-.96h9.453s4.539.517 4.539-6.666c0-7.183-3.961-6.928-3.961-6.928h-2.364v3.333s.129 3.976-3.896 3.976h-6.712s-3.771-.062-3.771 3.659v6.15s-.573 3.721 6.837 3.721v.001zm3.73-2.151a1.212 1.212 0 01-1.216-1.222 1.224 1.224 0 011.685-1.13 1.213 1.213 0 01.75 1.13 1.224 1.224 0 01-1.218 1.222z" fill="url(#paint1_linear)"/><defs><linearGradient id="paint0_linear" x1="2.699" y1="2.553" x2="16.595" y2="16.195" gradientUnits="userSpaceOnUse"><stop stop-color="#387EB8"/><stop offset="1" stop-color="#366994"/></linearGradient><linearGradient id="paint1_linear" x1="11.197" y1="11.379" x2="26.117" y2="25.366" gradientUnits="userSpaceOnUse"><stop stop-color="#FFE052"/><stop offset="1" stop-color="#FFC331"/></linearGradient></defs></svg>