<svg width="28" height="28" fill="none" xmlns="http://www.w3.org/2000/svg"><g clip-path="url(#clip0)"><path d="M25.094 12.25c0-6.12-4.966-11.084-11.084-11.084-6.118 0-11.084 4.964-11.084 11.084 0 5.798 5.288 10.5 11.084 10.5v4.084c6.732-3.416 11.084-8.912 11.084-14.584z" fill="#00897B"/><path d="M20.864 8.24l-1.454 4.01h-8.024l-3.22 3.948L19.968 28h7.896V15.24l-7-7z" fill="url(#paint0_linear)"/><path opacity=".2" d="M14.01 22.604c-5.774 0-11.04-4.664-11.082-10.432l-.002.078c0 5.798 5.288 10.5 11.084 10.5v-.146zm0 4.084v.146c6.732-3.416 11.084-8.912 11.084-14.584l-.002-.07c-.038 5.644-4.38 11.108-11.082 14.508zm2.48-10.064H9.198c-.374 0-.746-.142-1.032-.428a1.452 1.452 0 01-.428-1.032v.146c0 .374.142.746.428 1.032.286.286.658.428 1.032.428h7.292a1.452 1.452 0 001.349-.901c.073-.177.111-.367.11-.559v-.146a1.455 1.455 0 01-1.46 1.46zm1.458-3.134l2.916 2.916v-.146l-2.916-2.916v.146z" fill="#263238"/><path d="M17.948 11.156V9.334a1.452 1.452 0 00-.901-1.349 1.457 1.457 0 00-.56-.111h-7.29a1.457 1.457 0 00-1.46 1.46v5.834c0 .374.143.746.429 1.032.286.286.658.428 1.032.428h7.292a1.452 1.452 0 001.349-.901c.073-.177.11-.367.11-.559v-1.822l2.917 2.916V8.24l-2.918 2.916z" fill="#F5F5F5"/><path d="M7.74 9.334v2.916h13.124V8.24l-2.916 2.916V9.334c0-.374-.142-.746-.428-1.032a1.456 1.456 0 00-1.032-.428h-7.29a1.452 1.452 0 00-1.348.902 1.46 1.46 0 00-.11.558z" fill="#E0E0E0"/><path d="M7.74 12.104h13.124v.146H7.74v-.146z" fill="#212121" fill-opacity=".02"/><path d="M7.74 12.25h13.124v.146H7.74v-.146z" fill="#fff" fill-opacity=".05"/><path opacity=".2" d="M9.198 8.02h7.292c.374 0 .746.142 1.032.428a1.457 1.457 0 01.428 1.032v-.146c0-.374-.142-.746-.428-1.032a1.457 1.457 0 00-1.032-.428H9.198a1.457 1.457 0 00-1.46 1.46v.146a1.46 1.46 0 011.46-1.46zm8.75 3.136v.146l2.916-2.916V8.24l-2.916 2.916z" fill="#fff"/><path opacity=".2" d="M14.01 1.312c6.094 0 11.044 4.924 11.082 11.012l.002-.076c0-6.12-4.966-11.084-11.084-11.084-6.118 0-11.084 4.966-11.084 11.086l.002.068C2.97 6.234 7.918 1.312 14.01 1.312z" fill="#fff"/><path d="M25.094 12.25c0-6.12-4.966-11.084-11.084-11.084-6.118 0-11.084 4.964-11.084 11.084 0 5.798 5.288 10.5 11.084 10.5v4.084c6.732-3.416 11.084-8.912 11.084-14.584z" fill="url(#paint1_radial)"/></g><defs><radialGradient id="paint1_radial" cx="0" cy="0" r="1" gradientUnits="userSpaceOnUse" gradientTransform="translate(6.086 4.35) scale(22.6318)"><stop stop-color="#fff" stop-opacity=".1"/><stop offset="1" stop-color="#fff" stop-opacity="0"/></radialGradient><linearGradient id="paint0_linear" x1="13.889" y1="11.593" x2="23.477" y2="21.181" gradientUnits="userSpaceOnUse"><stop stop-color="#263238" stop-opacity=".2"/><stop offset="1" stop-color="#263238" stop-opacity=".02"/></linearGradient><clipPath id="clip0"><path fill="#fff" d="M0 0h28v28H0z"/></clipPath></defs></svg>