<svg width="28" height="28" fill="none" xmlns="http://www.w3.org/2000/svg"><path d="M27.167 16.936c.206-.926.31-1.871.31-2.82C27.476 6.86 21.502.978 14.134.978c-.778 0-1.54.066-2.282.192A7.784 7.784 0 007.737 0C3.464 0 0 3.412 0 7.62c0 1.407.389 2.723 1.063 3.854-.18.87-.27 1.755-.27 2.643 0 7.257 5.974 13.14 13.342 13.14.835 0 1.65-.077 2.443-.22a7.796 7.796 0 003.657.903c4.274 0 7.737-3.411 7.737-7.62a7.49 7.49 0 00-.805-3.384z" fill="#00AAF1"/><path d="M10.132 5.48c-1.122.408-1.993 1.003-2.59 1.77a4.229 4.229 0 00-.906 2.659c0 1.041.29 1.927.864 2.633.564.696 1.335 1.251 2.291 1.652.936.392 2.112.739 3.497 1.03 1.018.21 1.841.412 2.448.598.581.178 1.06.439 1.423.773.347.32.515.727.515 1.246 0 .657-.322 1.193-.987 1.64-.68.457-1.584.69-2.687.69-.802 0-1.454-.115-1.938-.34-.48-.225-.857-.511-1.119-.852a6.617 6.617 0 01-.766-1.339c-.212-.49-.475-.869-.783-1.125-.321-.268-.716-.403-1.175-.403-.558 0-1.027.171-1.392.51-.37.342-.557.759-.557 1.24 0 .77.288 1.57.855 2.375a6.227 6.227 0 002.196 1.92c1.254.655 2.86.987 4.777.987 1.596 0 3-.243 4.17-.722 1.18-.484 2.092-1.166 2.71-2.026a4.93 4.93 0 00.933-2.932c0-.905-.182-1.683-.542-2.314a4.509 4.509 0 00-1.505-1.565c-.626-.4-1.393-.746-2.282-1.026a31.844 31.844 0 00-2.95-.76 50.338 50.338 0 01-1.845-.446 5.945 5.945 0 01-1.074-.41 2.395 2.395 0 01-.795-.595 1.147 1.147 0 01-.266-.765c0-.488.27-.9.827-1.26.577-.372 1.355-.561 2.311-.561 1.03 0 1.78.17 2.228.506.462.346.864.837 1.197 1.46.287.487.546.825.796 1.043.268.234.655.353 1.15.353.543 0 1.004-.19 1.37-.564.363-.372.547-.799.547-1.268 0-.488-.14-.992-.417-1.499-.274-.502-.711-.985-1.298-1.436-.582-.449-1.323-.813-2.203-1.082-.874-.268-1.922-.404-3.114-.404-1.49 0-2.807.205-3.914.608z" fill="#fff" stroke="#00AAF1" stroke-width=".5"/></svg>