<svg width="28" height="28" fill="none" xmlns="http://www.w3.org/2000/svg"><path d="M25.266 0H2.734A2.734 2.734 0 000 2.734v22.532A2.734 2.734 0 002.734 28h22.532A2.734 2.734 0 0028 25.266V2.734A2.734 2.734 0 0025.266 0z" fill="url(#paint0_linear)"/><path d="M23.047 3.64h-5.915c-.724 0-1.312.588-1.312 1.313v9.625c0 .725.588 1.312 1.313 1.312h5.915c.724 0 1.312-.588 1.312-1.312V4.953c0-.725-.588-1.313-1.313-1.313zm-12.18 0H4.954c-.725 0-1.313.588-1.313 1.313v16.625c0 .724.588 1.312 1.313 1.312h5.914c.725 0 1.313-.588 1.313-1.312V4.953c0-.725-.588-1.313-1.313-1.313z" fill="#fff"/><defs><linearGradient id="paint0_linear" x1="14" y1="0" x2="14" y2="28" gradientUnits="userSpaceOnUse"><stop stop-color="#0091E6"/><stop offset="1" stop-color="#0079BF"/></linearGradient></defs></svg>