<svg width="28" height="28" fill="none" xmlns="http://www.w3.org/2000/svg"><g clip-path="url(#clip0)"><path d="M8.169 17.632L5.605 18.74l2.375 1.021 2.753-1.02-2.564-1.11zm-3.856 1.385l-.086 4.987 3.753 1.663v-5.178l-3.667-1.472zm7.712 0l-3.39 1.298V25.2l3.391-1.385v-4.798h-.001zM16.073 3.5L13.49 4.608l2.393 1.022 2.755-1.022L16.072 3.5h.001zm-3.582 1.472V9.96l3.203.935.104-4.538-3.306-1.385zm7.164.278l-3.031 1.298v4.9l3.03-1.384V5.25zM3.94 10.52l-2.564 1.108 2.375 1.022 2.753-1.022L3.94 10.52zM.086 11.905L0 16.893l3.753 1.663v-5.178L.086 11.905zm7.712 0l-3.39 1.3v4.882l3.391-1.385v-4.797h-.001zm4.409-1.57L9.64 11.444l2.376 1.022 2.754-1.022-2.564-1.109zM8.35 11.721l-.086 4.988 3.753 1.663v-5.178L8.35 11.72zm7.713 0L12.67 13.02v4.884l3.392-1.386v-4.796zm8.08-8.221l-2.564 1.108 2.375 1.022 2.755-1.022L24.143 3.5zm-3.855 1.385l-.086 4.987 3.753 1.663V6.358l-3.667-1.473zm7.713 0l-3.391 1.3v4.883L28 9.682V4.885h.001z" fill="#F7A80D"/></g><defs><clipPath id="clip0"><path fill="#fff" d="M0 0h28v28H0z"/></clipPath></defs></svg>