<svg width="28" height="28" viewBox="0 0 28 28" fill="none" xmlns="http://www.w3.org/2000/svg">
<g clip-path="url(#clip0)">
<path d="M25.0939 12.25C25.0939 6.13002 20.1279 1.16602 14.0099 1.16602C7.8919 1.16602 2.9259 6.13002 2.9259 12.25C2.9259 18.048 8.2139 22.75 14.0099 22.75V26.834C20.7419 23.418 25.0939 17.922 25.0939 12.25Z" fill="#00897B"/>
<path d="M20.8639 8.24023L19.4099 12.2502H11.3859L8.16592 16.1982L19.9679 28.0002H27.8639V15.2402L20.8639 8.24023Z" fill="url(#paint0_linear)"/>
<path opacity="0.2" d="M14.0099 22.6044C8.2359 22.6044 2.9699 17.9404 2.9279 12.1724C2.9279 12.1984 2.9259 12.2244 2.9259 12.2504C2.9259 18.0484 8.2139 22.7504 14.0099 22.7504V22.6044ZM14.0099 26.6884V26.8344C20.7419 23.4184 25.0939 17.9224 25.0939 12.2504C25.0939 12.2264 25.0919 12.2024 25.0919 12.1804C25.0539 17.8244 20.7119 23.2884 14.0099 26.6884ZM16.4899 16.6244H9.1979C8.8239 16.6244 8.4519 16.4824 8.1659 16.1964C7.8799 15.9104 7.7379 15.5384 7.7379 15.1644V15.3104C7.7379 15.6844 7.8799 16.0564 8.1659 16.3424C8.4519 16.6284 8.8239 16.7704 9.1979 16.7704H16.4899C16.8639 16.7704 17.2359 16.6284 17.5219 16.3424C17.6576 16.207 17.7653 16.0461 17.8387 15.869C17.9122 15.6919 17.95 15.5021 17.9499 15.3104V15.1644C17.9499 15.5384 17.8079 15.9104 17.5219 16.1964C17.2359 16.4824 16.8619 16.6244 16.4899 16.6244ZM17.9479 13.4904L20.8639 16.4064V16.2604L17.9479 13.3444V13.4904Z" fill="#263238"/>
<path d="M17.9479 11.156V9.33402C17.9479 8.96002 17.8059 8.58802 17.5199 8.30202C17.3845 8.16629 17.2236 8.05862 17.0465 7.98518C16.8694 7.91173 16.6796 7.87396 16.4879 7.87402H9.1979C8.8239 7.87402 8.4519 8.01602 8.1659 8.30202C8.03017 8.43742 7.9225 8.59828 7.84905 8.77537C7.77561 8.95246 7.73784 9.14231 7.7379 9.33402V15.168C7.7379 15.542 7.8799 15.914 8.1659 16.2C8.4519 16.486 8.8239 16.628 9.1979 16.628H16.4899C16.8639 16.628 17.2359 16.486 17.5219 16.2C17.6576 16.0646 17.7653 15.9038 17.8387 15.7267C17.9122 15.5496 17.9499 15.3597 17.9499 15.168V13.346L20.8659 16.262V8.24002L17.9479 11.156Z" fill="#F5F5F5"/>
<path d="M7.73987 9.33402V12.25H20.8638V8.24002L17.9478 11.156V9.33402C17.9478 8.96002 17.8058 8.58802 17.5198 8.30202C17.3845 8.16629 17.2236 8.05862 17.0465 7.98518C16.8694 7.91173 16.6796 7.87396 16.4879 7.87402H9.19787C8.82387 7.87402 8.45187 8.01602 8.16587 8.30202C8.03041 8.43752 7.92305 8.59844 7.84995 8.77554C7.77684 8.95264 7.73944 9.14243 7.73987 9.33402Z" fill="#E0E0E0"/>
<path d="M7.73999 12.104H20.864V12.25H7.73999V12.104Z" fill="#212121" fill-opacity="0.02"/>
<path d="M7.73999 12.25H20.864V12.396H7.73999V12.25Z" fill="white" fill-opacity="0.05"/>
<path opacity="0.2" d="M9.19787 8.02002H16.4899C16.8638 8.02002 17.2358 8.16202 17.5218 8.44803C17.6576 8.58343 17.7652 8.74428 17.8387 8.92137C17.9121 9.09846 17.9499 9.28831 17.9498 9.48003V9.33403C17.9498 8.96003 17.8078 8.58803 17.5218 8.30202C17.3864 8.16629 17.2256 8.05862 17.0485 7.98518C16.8714 7.91173 16.6816 7.87396 16.4899 7.87402H9.19787C8.82387 7.87402 8.45187 8.01602 8.16587 8.30202C8.03014 8.43742 7.92247 8.59828 7.84902 8.77537C7.77558 8.95246 7.7378 9.14231 7.73787 9.33403V9.48003C7.73787 9.10603 7.87987 8.73403 8.16587 8.44803C8.43954 8.17421 8.81074 8.02027 9.19787 8.02002ZM17.9478 11.156V11.302L20.8638 8.38602V8.24002L17.9478 11.156Z" fill="white"/>
<path opacity="0.2" d="M14.0099 1.31206C20.1039 1.31206 25.0539 6.23606 25.0919 12.3241C25.0919 12.2981 25.0939 12.2741 25.0939 12.2481C25.0939 6.12806 20.1279 1.16406 14.0099 1.16406C7.8919 1.16406 2.9259 6.13006 2.9259 12.2501C2.9259 12.2741 2.9279 12.2961 2.9279 12.3181C2.9699 6.23406 7.9179 1.31206 14.0099 1.31206Z" fill="white"/>
<path d="M25.0939 12.25C25.0939 6.13002 20.1279 1.16602 14.0099 1.16602C7.8919 1.16602 2.9259 6.13002 2.9259 12.25C2.9259 18.048 8.2139 22.75 14.0099 22.75V26.834C20.7419 23.418 25.0939 17.922 25.0939 12.25Z" fill="url(#paint1_radial)"/>
</g>
<defs>
<linearGradient id="paint0_linear" x1="13.8893" y1="11.593" x2="23.4775" y2="21.1812" gradientUnits="userSpaceOnUse">
<stop stop-color="#263238" stop-opacity="0.2"/>
<stop offset="1" stop-color="#263238" stop-opacity="0.02"/>
</linearGradient>
<radialGradient id="paint1_radial" cx="0" cy="0" r="1" gradientUnits="userSpaceOnUse" gradientTransform="translate(6.0863 4.35062) scale(22.6318)">
<stop stop-color="white" stop-opacity="0.1"/>
<stop offset="1" stop-color="white" stop-opacity="0"/>
</radialGradient>
<clipPath id="clip0">
<rect width="28" height="28" fill="white"/>
</clipPath>
</defs>
</svg>
