<svg width="28" height="28" viewBox="0 0 28 28" fill="none" xmlns="http://www.w3.org/2000/svg">
<path d="M27.1674 16.9362C27.373 16.01 27.4765 15.0647 27.4763 14.1167C27.4763 6.85993 21.5031 0.976967 14.1348 0.976967C13.3569 0.976967 12.5946 1.04319 11.8532 1.16916C10.6609 0.429451 9.25024 0 7.73695 0C3.46391 0 0 3.41184 0 7.61995C0 9.02665 0.388634 10.3433 1.0635 11.4742C0.883535 12.3439 0.793086 13.2292 0.793524 14.1167C0.793524 21.3736 6.76655 27.2566 14.1349 27.2566C14.9695 27.2566 15.7858 27.1805 16.5778 27.0361C17.667 27.6127 18.9122 27.9403 20.2353 27.9403C24.5085 27.9403 27.9723 24.5288 27.9723 20.3203C27.9724 19.1045 27.6818 17.956 27.1674 16.9362Z" fill="#00AAF1"/>
<path d="M10.1318 5.47912C9.00998 5.8877 8.13868 6.48346 7.54209 7.24975C6.94098 8.02155 6.63621 8.91621 6.63621 9.90884C6.63621 10.9503 6.92666 11.8362 7.49955 12.5422C8.06356 13.2377 8.83482 13.7934 9.7914 14.1942C10.727 14.586 11.9034 14.9328 13.2879 15.2248C14.3061 15.4348 15.1292 15.6355 15.7357 15.8217C16.3173 16.0003 16.7963 16.2605 17.1592 16.5949C17.506 16.9148 17.6744 17.3224 17.6744 17.8413C17.6744 18.4979 17.3515 19.0341 16.6871 19.4808C16.0069 19.9382 15.1027 20.1702 13.9998 20.1702C13.1977 20.1702 12.5457 20.0558 12.062 19.8303C11.5812 19.6064 11.2047 19.3197 10.9431 18.9786C10.6709 18.6238 10.4131 18.1736 10.1766 17.6403C9.96498 17.1505 9.70153 16.7712 9.39439 16.5149C9.07299 16.2473 8.67756 16.1117 8.21917 16.1117C7.66068 16.1117 7.19234 16.2834 6.82691 16.6219C6.45768 16.9636 6.27042 17.381 6.27042 17.8625C6.27042 18.6328 6.55786 19.4317 7.1246 20.2367C7.68567 21.0339 8.42477 21.6797 9.32127 22.1565C10.5752 22.8117 12.1817 23.1436 14.0978 23.1436C15.6943 23.1436 17.0971 22.9008 18.2672 22.4219C19.4485 21.938 20.3604 21.2565 20.9776 20.3962C21.597 19.5328 21.9111 18.5462 21.9111 17.4639C21.9111 16.5593 21.7286 15.7808 21.3686 15.15C21.0096 14.5216 20.5036 13.9953 19.8645 13.5854C19.2385 13.1842 18.4706 12.8388 17.5823 12.5588C16.7048 12.2826 15.7126 12.0268 14.6328 11.7986C13.7798 11.6044 13.1575 11.4543 12.7868 11.3529C12.4249 11.2545 12.0636 11.1165 11.7129 10.9429C11.3748 10.7763 11.1074 10.5761 10.9178 10.348C10.7387 10.1328 10.6516 9.88246 10.6516 9.58313C10.6516 9.095 10.9221 8.68297 11.4786 8.32363C12.056 7.95067 12.8338 7.76165 13.7902 7.76165C14.8199 7.76165 15.5693 7.93212 16.0176 8.26798C16.4795 8.61371 16.8822 9.1046 17.2149 9.72708C17.5024 10.2147 17.7614 10.5535 18.0111 10.7709C18.2795 11.005 18.666 11.1238 19.1602 11.1238C19.7041 11.1238 20.1651 10.934 20.5304 10.5598C20.8936 10.1881 21.0779 9.76143 21.0779 9.29185C21.0779 8.804 20.9374 8.29965 20.6606 7.79297C20.3866 7.29122 19.95 6.8081 19.3634 6.35672C18.7808 5.9085 18.0395 5.54429 17.1601 5.27452C16.2857 5.00679 15.2382 4.87109 14.0465 4.87109C12.556 4.87131 11.239 5.07584 10.1318 5.47912Z" fill="white" stroke="#00AAF1" stroke-width="0.5"/>
</svg>
