<svg width="27" height="28" viewBox="0 0 27 28" fill="none" xmlns="http://www.w3.org/2000/svg">
<path d="M5.66733 17.539C5.66733 19.1001 4.40566 20.3618 2.8446 20.3618C1.28355 20.3618 0.0218811 19.1001 0.0218811 17.539C0.0218811 15.978 1.28355 14.7163 2.8446 14.7163H5.66733V17.539ZM7.07869 17.539C7.07869 15.978 8.34037 14.7163 9.90141 14.7163C11.4624 14.7163 12.7241 15.978 12.7241 17.539V24.5959C12.7241 26.157 11.4624 27.4186 9.90141 27.4186C8.34037 27.4186 7.07869 26.157 7.07869 24.5959V17.539Z" fill="#E01E5A"/>
<path d="M9.90091 6.20551C8.33987 6.20551 7.07819 4.94383 7.07819 3.38278C7.07819 1.82173 8.33987 0.560059 9.90091 0.560059C11.462 0.560059 12.7236 1.82173 12.7236 3.38278V6.20551H9.90091ZM9.90091 7.63826C11.462 7.63826 12.7236 8.89993 12.7236 10.461C12.7236 12.022 11.462 13.2837 9.90091 13.2837H2.82272C1.26167 13.2837 0 12.022 0 10.461C0 8.89993 1.26167 7.63826 2.82272 7.63826H9.90091Z" fill="#36C5F0"/>
<path d="M21.2143 10.461C21.2143 8.89993 22.4759 7.63826 24.037 7.63826C25.598 7.63826 26.8597 8.89993 26.8597 10.461C26.8597 12.022 25.598 13.2837 24.037 13.2837H21.2143V10.461ZM19.8029 10.461C19.8029 12.022 18.5413 13.2837 16.9802 13.2837C15.4192 13.2837 14.1575 12.022 14.1575 10.461V3.38278C14.1575 1.82173 15.4192 0.560059 16.9802 0.560059C18.5413 0.560059 19.8029 1.82173 19.8029 3.38278V10.461Z" fill="#2EB67D"/>
<path d="M16.9802 21.7732C18.5413 21.7732 19.8029 23.0349 19.8029 24.5959C19.8029 26.157 18.5413 27.4186 16.9802 27.4186C15.4192 27.4186 14.1575 26.157 14.1575 24.5959V21.7732H16.9802ZM16.9802 20.3618C15.4192 20.3618 14.1575 19.1001 14.1575 17.539C14.1575 15.978 15.4192 14.7163 16.9802 14.7163H24.0584C25.6194 14.7163 26.8811 15.978 26.8811 17.539C26.8811 19.1001 25.6194 20.3618 24.0584 20.3618H16.9802Z" fill="#ECB22E"/>
</svg>
