<svg width="28" height="28" viewBox="0 0 28 28" fill="none" xmlns="http://www.w3.org/2000/svg">
<path d="M25.2656 0H2.73438C1.22422 0 0 1.22422 0 2.73438V25.2656C0 26.7758 1.22422 28 2.73438 28H25.2656C26.7758 28 28 26.7758 28 25.2656V2.73438C28 1.22422 26.7758 0 25.2656 0Z" fill="url(#paint0_linear)"/>
<path d="M23.0475 3.64014H17.1325C16.4076 3.64014 15.82 4.22776 15.82 4.95264V14.5776C15.82 15.3025 16.4076 15.8901 17.1325 15.8901H23.0475C23.7724 15.8901 24.36 15.3025 24.36 14.5776V4.95264C24.36 4.22776 23.7724 3.64014 23.0475 3.64014Z" fill="white"/>
<path d="M10.8675 3.64014H4.95251C4.22764 3.64014 3.64001 4.22776 3.64001 4.95264V21.5776C3.64001 22.3025 4.22764 22.8901 4.95251 22.8901H10.8675C11.5924 22.8901 12.18 22.3025 12.18 21.5776V4.95264C12.18 4.22776 11.5924 3.64014 10.8675 3.64014Z" fill="white"/>
<defs>
<linearGradient id="paint0_linear" x1="14" y1="0" x2="14" y2="28" gradientUnits="userSpaceOnUse">
<stop stop-color="#0091E6"/>
<stop offset="1" stop-color="#0079BF"/>
</linearGradient>
</defs>
</svg>
