<svg width="64" height="64" viewBox="0 0 64 64" fill="none" xmlns="http://www.w3.org/2000/svg">
<rect x="1" y="1" width="62" height="62" rx="15" stroke="url(#paint0_linear)" stroke-width="2"/>
<path d="M11.3438 39.3846H14.4453L15.872 36.0349H22.1164L23.5431 39.3846H26.686L20.3382 24.704H17.6709L11.3438 39.3846ZM16.9679 33.409L18.9942 28.6326L21.0205 33.409H16.9679Z" fill="url(#paint1_linear)"/>
<path d="M28.0541 43.3959H30.8868V38.6195C31.4865 39.2192 32.4376 39.612 33.5335 39.612C36.5937 39.612 38.6407 37.1101 38.6407 34.2154C38.6407 31.3206 36.5937 28.8187 33.5335 28.8187C32.4376 28.8187 31.4865 29.2115 30.8868 29.7905V29.0461H28.0541V43.3959ZM30.8868 35.8902V32.5199C31.3624 31.8789 32.0241 31.4033 33.1199 31.4033C34.6707 31.4033 35.7252 32.6853 35.7252 34.2154C35.7252 35.7455 34.6707 37.0274 33.1199 37.0274C32.0241 37.0274 31.3624 36.5519 30.8868 35.8902Z" fill="url(#paint2_linear)"/>
<path d="M40.7349 43.3959H43.5676V38.6195C44.1672 39.2192 45.1184 39.612 46.2142 39.612C49.2744 39.612 51.3214 37.1101 51.3214 34.2154C51.3214 31.3206 49.2744 28.8187 46.2142 28.8187C45.1184 28.8187 44.1672 29.2115 43.5676 29.7905V29.0461H40.7349V43.3959ZM43.5676 35.8902V32.5199C44.0432 31.8789 44.7048 31.4033 45.8007 31.4033C47.3515 31.4033 48.406 32.6853 48.406 34.2154C48.406 35.7455 47.3515 37.0274 45.8007 37.0274C44.7048 37.0274 44.0432 36.5519 43.5676 35.8902Z" fill="url(#paint3_linear)"/>
<path d="M11.3438 39.3846H14.4453L15.872 36.0349H22.1164L23.5431 39.3846H26.686L20.3382 24.704H17.6709L11.3438 39.3846ZM16.9679 33.409L18.9942 28.6326L21.0205 33.409H16.9679Z" stroke="url(#paint4_linear)"/>
<path d="M28.0541 43.3959H30.8868V38.6195C31.4865 39.2192 32.4376 39.612 33.5335 39.612C36.5937 39.612 38.6407 37.1101 38.6407 34.2154C38.6407 31.3206 36.5937 28.8187 33.5335 28.8187C32.4376 28.8187 31.4865 29.2115 30.8868 29.7905V29.0461H28.0541V43.3959ZM30.8868 35.8902V32.5199C31.3624 31.8789 32.0241 31.4033 33.1199 31.4033C34.6707 31.4033 35.7252 32.6853 35.7252 34.2154C35.7252 35.7455 34.6707 37.0274 33.1199 37.0274C32.0241 37.0274 31.3624 36.5519 30.8868 35.8902Z" stroke="url(#paint5_linear)"/>
<path d="M40.7349 43.3959H43.5676V38.6195C44.1672 39.2192 45.1184 39.612 46.2142 39.612C49.2744 39.612 51.3214 37.1101 51.3214 34.2154C51.3214 31.3206 49.2744 28.8187 46.2142 28.8187C45.1184 28.8187 44.1672 29.2115 43.5676 29.7905V29.0461H40.7349V43.3959ZM43.5676 35.8902V32.5199C44.0432 31.8789 44.7048 31.4033 45.8007 31.4033C47.3515 31.4033 48.406 32.6853 48.406 34.2154C48.406 35.7455 47.3515 37.0274 45.8007 37.0274C44.7048 37.0274 44.0432 36.5519 43.5676 35.8902Z" stroke="url(#paint6_linear)"/>
<defs>
<linearGradient id="paint0_linear" x1="3.46736" y1="3.18574" x2="154.779" y2="49.4722" gradientUnits="userSpaceOnUse">
<stop offset="0.16846" stop-color="#3A2390"/>
<stop offset="1" stop-color="#7BB8DA"/>
</linearGradient>
<linearGradient id="paint1_linear" x1="13.5096" y1="25.6344" x2="85.8896" y2="72.989" gradientUnits="userSpaceOnUse">
<stop offset="0.16846" stop-color="#3A2390"/>
<stop offset="1" stop-color="#7BB8DA"/>
</linearGradient>
<linearGradient id="paint2_linear" x1="13.5096" y1="25.6344" x2="85.8896" y2="72.989" gradientUnits="userSpaceOnUse">
<stop offset="0.16846" stop-color="#3A2390"/>
<stop offset="1" stop-color="#7BB8DA"/>
</linearGradient>
<linearGradient id="paint3_linear" x1="13.5096" y1="25.6344" x2="85.8896" y2="72.989" gradientUnits="userSpaceOnUse">
<stop offset="0.16846" stop-color="#3A2390"/>
<stop offset="1" stop-color="#7BB8DA"/>
</linearGradient>
<linearGradient id="paint4_linear" x1="13.5096" y1="25.6344" x2="85.8896" y2="72.989" gradientUnits="userSpaceOnUse">
<stop offset="0.16846" stop-color="#3A2390"/>
<stop offset="1" stop-color="#7BB8DA"/>
</linearGradient>
<linearGradient id="paint5_linear" x1="13.5096" y1="25.6344" x2="85.8896" y2="72.989" gradientUnits="userSpaceOnUse">
<stop offset="0.16846" stop-color="#3A2390"/>
<stop offset="1" stop-color="#7BB8DA"/>
</linearGradient>
<linearGradient id="paint6_linear" x1="13.5096" y1="25.6344" x2="85.8896" y2="72.989" gradientUnits="userSpaceOnUse">
<stop offset="0.16846" stop-color="#3A2390"/>
<stop offset="1" stop-color="#7BB8DA"/>
</linearGradient>
</defs>
</svg>
