<svg width="64" height="64" viewBox="0 0 64 64" fill="none" xmlns="http://www.w3.org/2000/svg">
    <rect x="1" y="1" width="62" height="62" rx="15" stroke="url(#paint0_linear)" stroke-width="2"/>
    <path d="M21.5244 34.9756H14.7705L13.209 39H11L17.2461 22.623H19.0615L25.2949 39H23.0859L21.5244 34.9756ZM15.418 33.1475H20.877L18.1475 26L15.418 33.1475ZM28.6719 33.1475C28.6719 33.7738 28.7692 34.3451 28.9639 34.8613C29.167 35.3691 29.4336 35.805 29.7637 36.1689C30.0938 36.5329 30.4788 36.8164 30.9189 37.0195C31.3675 37.2142 31.833 37.3115 32.3154 37.3115C32.7979 37.3115 33.2591 37.2142 33.6992 37.0195C34.1478 36.8164 34.5371 36.5329 34.8672 36.1689C35.1973 35.805 35.4596 35.3691 35.6543 34.8613C35.8574 34.3451 35.959 33.7738 35.959 33.1475C35.959 32.5212 35.8574 31.9541 35.6543 31.4463C35.4596 30.9385 35.1973 30.5026 34.8672 30.1387C34.5371 29.7747 34.1478 29.4954 33.6992 29.3008C33.2591 29.0977 32.7979 28.9961 32.3154 28.9961C31.833 28.9961 31.3675 29.0977 30.9189 29.3008C30.4788 29.4954 30.0938 29.7747 29.7637 30.1387C29.4336 30.5026 29.167 30.9385 28.9639 31.4463C28.7692 31.9541 28.6719 32.5212 28.6719 33.1475ZM28.9385 28.6025C29.1839 28.3402 29.4759 28.1074 29.8145 27.9043C30.1107 27.7096 30.4746 27.5404 30.9062 27.3965C31.3464 27.2441 31.8584 27.168 32.4424 27.168C33.1872 27.168 33.8939 27.3161 34.5625 27.6123C35.2311 27.9085 35.8109 28.3232 36.3018 28.8564C36.8011 29.3812 37.1904 30.0075 37.4697 30.7354C37.7575 31.4632 37.9014 32.2673 37.9014 33.1475C37.9014 34.0277 37.7575 34.8359 37.4697 35.5723C37.1904 36.3001 36.8011 36.9307 36.3018 37.4639C35.8109 37.9886 35.2311 38.3991 34.5625 38.6953C33.8939 38.9831 33.1872 39.127 32.4424 39.127C31.8499 39.127 31.3379 39.0465 30.9062 38.8857C30.4746 38.7165 30.1107 38.5387 29.8145 38.3525C29.4674 38.124 29.1755 37.8617 28.9385 37.5654V43.1641H26.9834V27.2949H28.418L28.9385 28.6025ZM42.1797 33.1475C42.1797 33.7738 42.277 34.3451 42.4717 34.8613C42.6748 35.3691 42.9414 35.805 43.2715 36.1689C43.6016 36.5329 43.9867 36.8164 44.4268 37.0195C44.8753 37.2142 45.3408 37.3115 45.8232 37.3115C46.3057 37.3115 46.7669 37.2142 47.207 37.0195C47.6556 36.8164 48.0449 36.5329 48.375 36.1689C48.7051 35.805 48.9674 35.3691 49.1621 34.8613C49.3652 34.3451 49.4668 33.7738 49.4668 33.1475C49.4668 32.5212 49.3652 31.9541 49.1621 31.4463C48.9674 30.9385 48.7051 30.5026 48.375 30.1387C48.0449 29.7747 47.6556 29.4954 47.207 29.3008C46.7669 29.0977 46.3057 28.9961 45.8232 28.9961C45.3408 28.9961 44.8753 29.0977 44.4268 29.3008C43.9867 29.4954 43.6016 29.7747 43.2715 30.1387C42.9414 30.5026 42.6748 30.9385 42.4717 31.4463C42.277 31.9541 42.1797 32.5212 42.1797 33.1475ZM42.4463 28.6025C42.6917 28.3402 42.9837 28.1074 43.3223 27.9043C43.6185 27.7096 43.9824 27.5404 44.4141 27.3965C44.8542 27.2441 45.3662 27.168 45.9502 27.168C46.695 27.168 47.4017 27.3161 48.0703 27.6123C48.7389 27.9085 49.3187 28.3232 49.8096 28.8564C50.3089 29.3812 50.6982 30.0075 50.9775 30.7354C51.2653 31.4632 51.4092 32.2673 51.4092 33.1475C51.4092 34.0277 51.2653 34.8359 50.9775 35.5723C50.6982 36.3001 50.3089 36.9307 49.8096 37.4639C49.3187 37.9886 48.7389 38.3991 48.0703 38.6953C47.4017 38.9831 46.695 39.127 45.9502 39.127C45.3577 39.127 44.8457 39.0465 44.4141 38.8857C43.9824 38.7165 43.6185 38.5387 43.3223 38.3525C42.9753 38.124 42.6833 37.8617 42.4463 37.5654V43.1641H40.4912V27.2949H41.9258L42.4463 28.6025Z"
          fill="#3A2390"/>
    <defs>
        <linearGradient id="paint0_linear" x1="3.46736" y1="3.18574" x2="154.779" y2="49.4722"
                        gradientUnits="userSpaceOnUse">
            <stop offset="0.16846" stop-color="#3A2390"/>
            <stop offset="1" stop-color="#7BB8DA"/>
        </linearGradient>
    </defs>
</svg>
