<svg width="1195" height="612" viewBox="0 0 1195 612" fill="none" xmlns="http://www.w3.org/2000/svg">
<path opacity="0.04" d="M694.526 -99.6119C799.659 -68.5679 901.157 -35.4953 987.312 25.2719C1015.59 45.1726 1043.81 69.2154 1076.42 100.953C1100.09 123.967 1124.35 149.506 1140.86 179.981C1160.08 215.322 1169.19 257.47 1168.04 305.427C1167.18 342.737 1160.12 384.407 1146.6 432.475C1109.74 563.518 1054.32 653.573 977.235 707.702C935.84 736.843 888.079 755.207 842.595 770.589C826.616 775.969 810.407 781.257 794.175 786.267L857.787 829.183L841.653 853.198L781.286 812.532C794.911 851.125 815.589 887.187 842.042 917.916C892.742 976.868 951.657 1002.55 974.728 1010.8C1034.19 1032.13 1086.56 1030.56 1115.14 1027.18L1102.95 1057.36C1069.94 1059.76 1020.22 1058.1 964.882 1038.16C961.608 1036.97 958.105 1035.69 954.417 1034.2C921.35 1020.84 867.803 992.482 820.044 936.87C786.334 897.561 761.228 850.563 746.964 800.28C737.904 802.806 728.841 805.332 719.711 807.695L712.499 779.764C717.193 778.433 722 777.146 726.808 775.862L361.866 529.69C307.437 492.903 239.588 447.2 211.575 375.22C199.073 343.135 194.513 306.322 197.181 259.247C203.95 139.987 232.831 46.6104 283.095 -18.0863C342.372 -94.4757 444.09 -137.578 548.781 -130.655C597.113 -127.537 643.412 -114.749 694.526 -99.6119ZM721.314 322.386L716.199 330.407C710.586 330.695 704.972 331.654 699.376 333.562C685.849 338.185 673.224 347.207 661.825 360.491C649.451 374.861 640.994 391.483 637.243 408.395C633.044 427.412 634.984 447.161 642.548 463.937C645.516 470.516 648.955 475.939 653.16 480.463C658.58 486.284 664.912 490.189 669.239 492.744C674.029 495.485 678.844 497.834 683.798 499.836C696.357 504.91 709.159 507.391 721.512 507.002C741.947 506.517 760.87 498.157 773.382 484.112C782.071 474.309 789.51 456.769 791.123 452.806L791.214 452.58C805.183 418.007 790.866 384.112 786.154 374.541C780.117 362.284 769.847 351.545 754.632 341.766C748.578 337.839 742.407 334.54 736.512 331.215C731.26 328.288 726.126 325.406 721.314 322.386ZM643.552 338.044C639.319 305.398 614.42 278.122 584.177 273.031L582.752 281.199C574.715 276.875 565.934 273.73 556.813 274.08C544.413 274.585 531.385 275.644 519.718 282.632C512.147 287.104 506.648 293.087 501.633 298.862C493.601 308.126 485.589 318.34 480.982 330.735C468.896 362.975 483.999 396.247 502.12 416.75C510.503 426.189 521.41 433.689 534.546 438.996C558.281 448.586 585.971 441.75 612.601 419.959C635.407 401.331 647.493 369.092 643.552 338.044ZM513.314 245.073C500.873 239.375 478.896 233.723 457.93 234.533C453.428 234.731 441.368 236.047 424.336 245.035L429.796 222.896L401.914 215.937L394.362 246.242C391.986 255.772 389.748 264.956 386.638 273.653C381.582 288.155 373.76 302.209 366.239 315.849L348.844 347.289L374.037 361.233L391.431 329.795C398.602 316.686 406.031 303.276 411.755 288.777C439.899 264.236 458.073 263.374 458.903 263.308C474.143 262.738 491.994 266.991 501.14 271.224L513.314 245.073ZM892.81 410.775C884.053 407.236 871.134 405.378 857.592 407.71L861.374 399.014L834.923 387.52L815.108 432.913C813.949 434.462 812.624 436.079 811.532 437.788L812.705 438.532L777.068 520.437L803.517 531.932L840.017 448.221C855.449 431.591 876.765 435.227 882.179 437.415C896.468 443.188 905.921 450.639 908.738 470.204C909.43 475.459 907.991 486.983 904.956 498.803C901.381 512.961 896.825 524.571 892.247 535.903C888.51 545.153 884.632 554.75 881.557 565.345L909.085 573.508C911.877 564.278 915.218 555.676 918.862 546.656C923.653 534.468 928.745 521.866 932.744 505.995C935.073 496.58 938.92 478.766 937.039 466.17C934.579 449.036 927.375 424.74 892.81 410.775ZM729.745 360.898C731.128 361.457 732.465 362.13 733.707 363.036L733.964 362.736C735.714 363.711 737.301 364.757 739.004 365.85C749.64 372.701 756.716 379.73 760.375 387.26C762.822 392.151 774.362 417.661 764.645 441.712C761.375 449.804 756.015 460.418 752.069 464.875C745.059 472.937 733.447 477.796 720.978 478.138C709.016 478.551 696.173 474.842 683.787 467.685C679.574 465.177 676.559 463.017 674.423 460.675C672.356 458.493 670.568 455.62 668.83 451.959C663.827 440.79 662.62 427.525 665.451 414.546C668.163 402.192 674.454 389.938 683.763 379.174C691.679 369.864 700.067 363.701 708.599 360.828C715.929 358.275 723.64 358.431 729.745 360.898ZM595.968 308.865C605.929 316.387 613.122 328.438 614.769 341.613C617.487 362.753 609.323 385.278 594.328 397.513C581.535 407.946 562.599 418.99 545.317 412.008C536.443 408.423 529.079 403.431 523.635 397.33C511.533 383.833 500.304 360.869 507.809 340.632C510.732 333.07 516.029 325.93 523.247 317.683C526.936 313.525 530.418 309.552 534.262 307.337C540.039 303.947 548.223 303.292 556.902 302.895L557.787 302.855C559.728 302.696 562.009 303.35 564.428 304.327C569.959 306.562 576.542 310.837 581.72 314.273C584.483 316.061 587.129 317.803 589.707 319.383L595.968 308.865ZM566.224 -49.0924C538.446 -63.2744 503.438 -61.5477 477.017 -44.9183C464.212 -36.7762 454.234 -26.0126 446.921 -17.5341C411.868 23.4495 396.052 67.9011 402.191 107.774C403.757 118.494 406.924 127.575 411.572 135.639C421.969 153.695 439.304 164.196 456.16 173.561C463.507 177.606 470.9 181.533 478.62 184.652C484.381 186.98 490.329 188.845 496.672 190.063C522.322 194.912 549.721 186.479 568.299 168.027C586.462 149.943 595.199 123.344 591.323 98.1067C591.195 95.7683 590.561 93.3591 589.278 91.226L585.405 84.5519L577.674 84.1171C551.246 82.8548 528.661 73.7301 501.883 53.7652L484.619 76.9181C511.653 97.2557 536.443 108.214 563.391 111.839C562.868 125.077 557.38 138.328 548.055 147.473C536.296 158.997 518.217 164.605 502.022 161.559C491.436 159.566 480.794 154.057 470.064 148.109C456.132 140.461 443.193 132.678 436.482 121.09C433.711 116.339 431.8 110.455 430.679 103.277C424.114 60.8114 451.681 21.108 468.697 1.21787C474.732 -5.75982 482.694 -14.5136 492.21 -20.4872C510.178 -31.7892 534.126 -33.0089 553.128 -23.3138C572.13 -13.6187 585.403 6.26989 586.851 27.5688L615.582 25.4571C613.418 -5.68021 594.048 -35.0266 566.224 -49.0929L566.224 -49.0924ZM1039.39 219.149C1036.07 218.076 1032.22 216.656 1028.1 215.258C1002.16 206.126 969.872 194.828 947.55 203.967C927.171 212.276 907.879 220.22 893.257 241.48C889.863 246.566 886.963 254.405 883.708 264.12C883.169 265.785 882.724 267.22 882.257 268.376C874.233 290.556 879.258 316.931 895.395 337.034C904.669 348.582 917.67 357.871 931.956 363.643C941.174 367.367 951.068 369.749 960.923 370.236C986.358 371.635 1011.32 361.274 1026.13 343.184C1031.43 336.716 1035.69 329.155 1039.87 319.142C1043.44 310.633 1047.44 299.07 1047.09 286.013C1046.69 271.73 1040.87 257.275 1030.96 244.659L1039.39 219.149ZM747.815 96.9065L714.75 87.8507C701.975 84.3037 687.495 80.3369 672.09 81.6447C637.513 84.6227 613.793 101.535 601.554 131.83C591.042 157.846 589.157 180.758 596.063 199.822C603.47 220.3 620.666 236.124 647.166 246.831C672.86 257.212 699.199 253.058 721.495 235.031C746.245 214.904 762.41 179.874 758.231 155.05C756.12 142.361 749.917 130.843 741.121 121.103L747.815 96.9063L747.815 96.9065ZM902.846 170.976L867.956 196.289C861.194 201.088 854.29 206.235 847.797 212.353C841.256 218.588 835.822 225.404 830.481 231.989L829.413 233.306C821.191 243.704 812.624 253.962 803.988 264.057L803.987 264.057L803.933 262.634C803.161 241.281 804.63 219.728 806.276 197.257L806.385 195.758C807.819 175.623 809.302 154.702 809.124 133.916L780.193 134.198C780.4 153.92 778.92 174.169 777.558 193.795C775.355 225.454 773.01 258.132 777.128 290.732L778.064 297.7L784.143 301.233C785.134 301.767 786.24 302.348 787.506 302.86C794.42 305.653 805.291 306.28 817.221 292.673C828.944 279.25 840.621 265.273 851.861 251.388L852.929 250.07C857.806 243.972 862.427 238.172 867.622 233.276C872.655 228.451 878.562 224.111 884.795 219.636L919.683 194.321L902.846 170.976ZM988.349 232.69L983.479 242.425C1007.18 254.421 1018.15 273.379 1018.48 286.829C1018.61 292.802 1017.13 299.464 1013.46 308.205C1010.52 315.489 1007.58 320.76 1004.17 324.895C994.999 335.985 979.202 342.245 962.79 341.399C945.871 340.481 928.275 331.623 918.014 318.871C908.305 306.743 904.985 290.74 909.524 278.182C909.922 276.865 910.529 275.361 911.209 273.349C912.567 269.324 915.75 260.12 917.286 257.645C926.375 244.103 938.29 238.829 958.392 230.54C964.937 227.939 976.335 229.585 988.349 232.69L988.349 232.69ZM669.482 110.988L670.011 121.289C698.115 119.734 726.082 137.758 729.833 159.987C731.741 171.518 722.641 197.029 703.336 212.632C689.224 224.01 673.973 226.592 657.958 220.121C621.203 205.271 612.239 182.012 628.169 142.583C635.644 124.082 648.851 113.951 669.482 110.988Z" fill="white"/>
</svg>
