<svg width="64" height="64" viewBox="0 0 64 64" fill="none" xmlns="http://www.w3.org/2000/svg">
<path fill-rule="evenodd" clip-rule="evenodd" d="M61.7732 28.8666H62.927C63.2115 28.8661 63.4845 28.9788 63.6858 29.1798C63.8871 29.3809 64.0002 29.6538 64 29.9383V34.0603C64 34.3445 63.8871 34.6171 63.6861 34.8181C63.4851 35.0191 63.2125 35.132 62.9283 35.132H61.7738C60.293 49.1865 49.1872 60.2923 35.1327 61.7731V62.9269C35.1327 63.5188 34.6529 63.9986 34.061 63.9986H29.9377C29.3474 63.9979 28.8688 63.5199 28.8673 62.9296V61.7752C14.8128 60.2943 3.70704 49.1885 2.22615 35.134H1.0717C0.479817 35.134 0 34.6542 0 34.0623V29.9383C0 29.6541 0.112911 29.3815 0.313894 29.1805C0.514877 28.9795 0.787468 28.8666 1.0717 28.8666H2.22481C3.39061 17.8263 10.5662 8.33586 20.8709 4.20537H10.2017C9.68174 5.6342 8.21097 6.48344 6.71358 6.21946C5.2162 5.95549 4.1245 4.65449 4.1245 3.13402C4.1245 1.61354 5.2162 0.312543 6.71358 0.0485658C8.21097 -0.215411 9.68174 0.633832 10.2017 2.06263H28.866V1.07234C28.866 0.788129 28.9789 0.515515 29.1799 0.314527C29.3808 0.113568 29.6534 0.000653242 29.9377 0.000653242H34.061C34.3452 0.000653242 34.6178 0.113568 34.8188 0.314527C35.0198 0.515515 35.1327 0.788129 35.1327 1.07234V2.06263H53.7963C54.3163 0.633435 55.7873 -0.216113 57.2851 0.0478639C58.7829 0.311871 59.8749 1.61317 59.8749 3.13402C59.8749 4.65486 58.7829 5.95616 57.2851 6.22014C55.7873 6.48411 54.3163 5.63459 53.7963 4.20537H43.1284C53.4326 8.33626 60.6076 17.8266 61.7732 28.8666ZM57.7313 3.13368C57.7313 2.58674 57.2879 2.14338 56.741 2.14338C56.1944 2.14412 55.7514 2.58705 55.7507 3.13368C55.7507 3.68062 56.194 4.12397 56.741 4.12397C57.2879 4.12397 57.7313 3.68062 57.7313 3.13368ZM7.25702 4.12401C6.85648 4.12401 6.49538 3.88273 6.3421 3.51268C6.18882 3.14262 6.27355 2.71669 6.55677 2.43345C6.83999 2.15025 7.26594 2.0655 7.63599 2.21879C8.00603 2.37208 8.24731 2.73317 8.24731 3.13371C8.24657 3.68034 7.80364 4.12327 7.25702 4.12401ZM31.0053 2.14271V3.21913L31.0087 4.12397H32.9859V2.14271H31.0053ZM4.12332 32.9906H2.14273V31.0093H4.12399V32.9899L4.12332 32.9906ZM32.9893 61.8566V60.7802V59.876H31.0087V61.8566H32.9893ZM58.8029 35.1333H59.617C58.1152 47.9826 47.9813 58.1162 35.132 59.6176V58.8036C35.132 58.5193 35.0191 58.2467 34.8181 58.0458C34.6171 57.8448 34.3445 57.7319 34.0603 57.7319H29.9377C29.6534 57.7319 29.3808 57.8448 29.1799 58.0458C28.9789 58.2467 28.866 58.5193 28.866 58.8036V59.6169C16.0171 58.1152 5.88368 47.9821 4.38166 35.1333H5.19502C5.7869 35.1333 6.26672 34.6535 6.26672 34.0616V29.9383C6.26672 29.654 6.15381 29.3815 5.95283 29.1805C5.75184 28.9795 5.47925 28.8666 5.19502 28.8666H4.38031C5.88289 16.0165 16.0183 5.88273 28.8687 4.38228V5.19563C28.8686 5.78648 29.3468 6.26585 29.9377 6.26735H34.061C34.6529 6.26735 35.1327 5.78752 35.1327 5.19563V4.38228C47.9832 5.88252 58.1187 16.0163 59.621 28.8666H58.8029C58.5187 28.8666 58.2461 28.9795 58.0451 29.1805C57.8442 29.3815 57.7313 29.654 57.7313 29.9383V34.0623C57.7316 34.6539 58.2113 35.1333 58.8029 35.1333ZM59.8753 32.9906H61.8553L61.8559 32.9899V31.0093H59.8753V32.9906Z" fill="url(#paint0_linear)"/>
<defs>
<linearGradient id="paint0_linear" x1="3.46736" y1="3.18568" x2="154.779" y2="49.4729" gradientUnits="userSpaceOnUse">
<stop offset="0.16846" stop-color="#3A2390"/>
<stop offset="1" stop-color="#7BB8DA"/>
</linearGradient>
</defs>
</svg>
