<svg width="14" height="14" viewBox="0 0 14 14" fill="none" xmlns="http://www.w3.org/2000/svg">
<path fill-rule="evenodd" clip-rule="evenodd" d="M0.333334 7C0.333334 3.3181 3.3181 0.333328 7 0.333328C10.6775 0.344009 13.656 3.32253 13.6667 7C13.6667 10.6819 10.6819 13.6667 7 13.6667C3.3181 13.6667 0.333334 10.6819 0.333334 7ZM9.66824 4.33371H11.5994C10.9629 3.21634 9.94636 2.3647 8.73475 1.93387C9.14286 2.69264 9.45636 3.49861 9.66824 4.33371ZM6.99998 1.66646C7.56594 2.47918 7.99311 3.38018 8.26408 4.33274H5.73297C6.01828 3.38512 6.44546 2.48616 6.99998 1.66646ZM1.66647 6.99998C1.6627 7.45213 1.7303 7.90204 1.86678 8.33312H4.13341C4.13341 8.09975 4.11663 7.88315 4.09986 7.66655C4.08309 7.44995 4.06631 7.23335 4.06631 6.99998C4.0554 6.55455 4.07783 6.10893 4.13341 5.66684H1.86678C1.7303 6.09792 1.6627 6.54783 1.66647 6.99998ZM2.39965 9.66822H4.33372C4.5456 10.5033 4.8591 11.3093 5.26721 12.0681C4.05452 11.6378 3.03682 10.7861 2.39965 9.66822ZM2.39965 4.3337H4.33372C4.54521 3.49831 4.85839 2.69201 5.26623 1.93289C4.06462 2.3824 3.05304 3.22962 2.39965 4.3337ZM6.99999 12.3335C6.4331 11.5213 6.00494 10.6206 5.73297 9.66822H8.26603C7.98093 10.6155 7.55408 11.5141 6.99999 12.3335ZM5.46657 8.33312H8.53347C8.63209 7.89419 8.69839 7.44861 8.73184 6.99998C8.72049 6.55292 8.67596 6.10731 8.59862 5.66684H5.46657C5.38923 6.10731 5.3447 6.55292 5.33336 6.99998C5.3447 7.44704 5.38923 7.89265 5.46657 8.33312ZM8.73376 12.0661L8.734 12.0657C9.94621 11.636 10.9638 10.7852 11.6013 9.66822H9.66822C9.46748 10.5062 9.15316 11.3128 8.734 12.0657L8.73279 12.0661H8.73376ZM9.99981 6.99998C10.0107 7.44541 9.98829 7.89103 9.93271 8.33312H12.1964C12.3329 7.90204 12.4005 7.45213 12.3967 6.99998C12.4005 6.54783 12.3329 6.09792 12.1964 5.66684H9.93271C9.93271 5.90021 9.94948 6.11681 9.96626 6.33341C9.98303 6.55001 9.99981 6.76661 9.99981 6.99998Z" fill="white"/>
</svg>
