<svg width="1208" height="580" viewBox="0 0 1208 580" fill="none" xmlns="http://www.w3.org/2000/svg">
<path d="M386.536 140.098C387.518 137.524 391.161 137.524 392.142 140.098L394.004 144.978C394.447 146.141 395.562 146.909 396.807 146.909H401.67C404.691 146.909 405.817 150.87 403.248 152.46L400.186 154.356C398.962 155.113 398.449 156.631 398.961 157.976L400.317 161.53C401.34 164.212 398.376 166.661 395.935 165.151L390.918 162.045C389.951 161.447 388.728 161.447 387.761 162.045L382.744 165.151C380.303 166.661 377.339 164.212 378.362 161.53L379.718 157.976C380.23 156.631 379.717 155.113 378.493 154.356L375.431 152.46C372.862 150.87 373.988 146.909 377.009 146.909H381.872C383.117 146.909 384.232 146.141 384.675 144.978L386.536 140.098Z" fill="#8AD1F5"/>
<path d="M603.43 310.809C604.328 308.045 608.238 308.045 609.136 310.809L609.71 312.575C610.111 313.811 611.263 314.648 612.563 314.648H614.42C617.326 314.648 618.534 318.367 616.183 320.075L614.681 321.167C613.629 321.931 613.189 323.285 613.591 324.521L614.165 326.287C615.063 329.051 611.9 331.349 609.548 329.641L608.046 328.55C606.995 327.786 605.571 327.786 604.519 328.55L603.017 329.641C600.666 331.349 597.502 329.051 598.4 326.287L598.974 324.521C599.376 323.285 598.936 321.931 597.884 321.167L596.382 320.075C594.031 318.367 595.239 314.648 598.145 314.648H600.003C601.302 314.648 602.454 313.811 602.856 312.575L603.43 310.809Z" fill="#8AD1F5"/>
<path d="M22.5385 13.4201C23.4366 10.6561 27.3468 10.6561 28.2449 13.4201L30.419 20.1112C30.8206 21.3473 31.9724 22.1842 33.2721 22.1842H40.3076C43.2138 22.1842 44.4221 25.903 42.071 27.6112L36.3791 31.7465C35.3277 32.5105 34.8877 33.8646 35.2893 35.1007L37.4634 41.7918C38.3615 44.5557 35.198 46.8541 32.8469 45.1459L27.1551 41.0105C26.1036 40.2466 24.6798 40.2466 23.6283 41.0105L17.9365 45.1459C15.5854 46.8541 12.4219 44.5557 13.32 41.7918L15.4941 35.1007C15.8957 33.8646 15.4557 32.5105 14.4043 31.7466L8.71245 27.6112C6.36131 25.903 7.56964 22.1842 10.4758 22.1842H17.5113C18.811 22.1842 19.9628 21.3473 20.3645 20.1112L22.5385 13.4201Z" fill="#8AD1F5"/>
<path d="M807.907 141.271C808.82 138.538 812.686 138.538 813.598 141.271L817.469 152.862C817.878 154.087 819.024 154.912 820.315 154.912H832.663C835.589 154.912 836.784 158.673 834.395 160.362L824.547 167.323C823.467 168.087 823.015 169.468 823.434 170.723L827.228 182.085C828.146 184.835 825.018 187.159 822.651 185.485L812.484 178.299C811.447 177.565 810.059 177.565 809.021 178.299L798.855 185.485C796.487 187.159 793.359 184.835 794.277 182.085L798.072 170.723C798.491 169.468 798.038 168.087 796.958 167.323L787.111 160.362C784.721 158.673 785.916 154.912 788.842 154.912H801.191C802.481 154.912 803.627 154.087 804.036 152.862L807.907 141.271Z" fill="#8AD1F5"/>
<path d="M1054.71 72.3262C1055.64 69.6361 1059.44 69.6361 1060.38 72.3262L1061.64 75.9814C1062.06 77.1891 1063.2 77.999 1064.48 77.999H1068.14C1071.1 77.999 1072.27 81.8161 1069.83 83.4784L1067.21 85.2671C1066.09 86.0299 1065.62 87.4487 1066.06 88.729L1067.14 91.8463C1068.09 94.5766 1065.01 96.9349 1062.62 95.3082L1059.23 93.0008C1058.21 92.3068 1056.87 92.3068 1055.85 93.0008L1052.47 95.3082C1050.08 96.9349 1047 94.5766 1047.94 91.8463L1049.02 88.729C1049.47 87.4487 1049 86.0299 1047.88 85.2671L1045.25 83.4784C1042.81 81.8161 1043.99 77.999 1046.94 77.999H1050.61C1051.88 77.999 1053.02 77.1891 1053.44 75.9814L1054.71 72.3262Z" fill="#8AD1F5"/>
<path d="M1183.91 204.629C1184.87 201.999 1188.59 201.999 1189.55 204.629L1190.61 207.545C1191.04 208.729 1192.17 209.517 1193.43 209.517H1196.06C1199.05 209.517 1200.2 213.411 1197.7 215.035L1196.18 216.017C1195 216.778 1194.51 218.249 1194.99 219.563L1195.71 221.524C1196.69 224.229 1193.67 226.635 1191.26 225.07L1188.36 223.193C1187.37 222.551 1186.09 222.551 1185.1 223.193L1182.2 225.07C1179.78 226.635 1176.76 224.229 1177.75 221.524L1178.47 219.563C1178.94 218.249 1178.45 216.778 1177.28 216.017L1175.76 215.035C1173.25 213.411 1174.4 209.517 1177.39 209.517H1180.03C1181.29 209.517 1182.41 208.729 1182.85 207.545L1183.91 204.629Z" fill="#8AD1F5"/>
<path d="M650.271 540.637C651.277 538.122 654.837 538.122 655.842 540.637L658.704 547.791C659.159 548.93 660.262 549.677 661.489 549.677H669.188C672.242 549.677 673.343 553.708 670.713 555.261L665.63 558.262C664.355 559.014 663.819 560.584 664.369 561.959L666.547 567.405C667.61 570.063 664.701 572.557 662.236 571.102L654.582 566.584C653.641 566.028 652.473 566.028 651.532 566.584L643.877 571.102C641.412 572.557 638.504 570.063 639.567 567.405L641.745 561.959C642.294 560.584 641.759 559.014 640.484 558.262L635.401 555.261C632.771 553.708 633.872 549.677 636.926 549.677H644.625C645.851 549.677 646.955 548.93 647.41 547.791L650.271 540.637Z" fill="#8AD1F5"/>
<path d="M211.017 486.787C211.992 484.196 215.658 484.196 216.633 486.788L217.494 489.077C217.934 490.247 219.053 491.021 220.302 491.021H222.041C225.052 491.021 226.186 494.962 223.635 496.562L223.022 496.947C221.813 497.705 221.306 499.209 221.808 500.545L222.214 501.622C223.225 504.31 220.244 506.746 217.811 505.219L215.419 503.718C214.444 503.107 213.205 503.107 212.23 503.718L209.838 505.219C207.405 506.746 204.425 504.31 205.436 501.622L205.841 500.545C206.344 499.209 205.836 497.705 204.628 496.947L204.015 496.562C201.464 494.962 202.598 491.021 205.609 491.021H207.348C208.597 491.021 209.716 490.247 210.155 489.077L211.017 486.787Z" fill="#8AD1F5"/>
<path d="M659.163 7.34876C660.145 4.77429 663.787 4.7743 664.769 7.34876L666.631 12.2285C667.074 13.3911 668.189 14.1593 669.434 14.1593H674.296C677.317 14.1593 678.444 18.1204 675.875 19.7103L672.812 21.6059C671.589 22.363 671.075 23.8819 671.588 25.226L672.944 28.7808C673.967 31.4622 671.002 33.9112 668.562 32.4009L663.545 29.2958C662.578 28.697 661.355 28.697 660.387 29.2958L655.37 32.4009C652.93 33.9112 649.966 31.4622 650.988 28.7808L652.344 25.226C652.857 23.8819 652.343 22.363 651.12 21.6059L648.057 19.7103C645.488 18.1204 646.615 14.1593 649.636 14.1593H654.499C655.743 14.1593 656.859 13.3911 657.302 12.2285L659.163 7.34876Z" fill="#8AD1F5"/>
</svg>
