<svg width="198" height="25" viewBox="0 0 198 25" fill="none" xmlns="http://www.w3.org/2000/svg">
<path d="M1.91637 24.2365H0V0H1.91637V24.2365Z" fill="#568FC5"/>
<path d="M34.6172 0V24.2365H32.8888L19.6056 3.64487V24.2365H17.6893V0H19.4178L32.7009 20.5728V0H34.6172Z" fill="#568FC5"/>
<path d="M47.9101 0H64.8381V1.7285H57.3417V24.2365H55.4065V1.7285H47.9101V0Z" fill="#568FC5"/>
<path d="M93.1426 22.508V24.2365H78.131V0H92.748V1.7285H80.0474V10.7655H91.7898V12.494H80.0474V22.508H93.1426Z" fill="#568FC5"/>
<path d="M123.739 24.2365H121.428L115.66 13.8467H109.498V24.2365H107.582V0H116.055C117.107 0 118.078 0.181617 118.967 0.544852C119.869 0.895561 120.645 1.38405 121.297 2.01031C121.948 2.63658 122.455 3.37558 122.819 4.2273C123.182 5.07902 123.363 5.97458 123.363 6.91398C123.363 8.35439 123.063 9.51925 122.462 10.4085C121.86 11.2853 121.197 11.9679 120.47 12.4564C119.618 13.0201 118.66 13.4209 117.596 13.6589L123.739 24.2365ZM109.498 12.1183H116.055C116.819 12.1183 117.527 11.9867 118.178 11.7237C118.842 11.4481 119.412 11.0724 119.888 10.5964C120.376 10.1205 120.752 9.56935 121.015 8.94308C121.291 8.31682 121.428 7.64045 121.428 6.91398C121.428 6.20004 121.291 5.52993 121.015 4.90367C120.752 4.2774 120.376 3.72628 119.888 3.25032C119.412 2.77436 118.842 2.40486 118.178 2.14183C117.527 1.86627 116.819 1.7285 116.055 1.7285H109.498V12.1183Z" fill="#568FC5"/>
<path d="M139.7 11.9304V24.2365H137.784V0H139.7V11.9304L150.09 0H152.607L142.011 11.9304L153.378 24.2365H150.86L139.7 11.9304Z" fill="#568FC5"/>
<path d="M167.798 24.2365H165.881V0H167.798V24.2365Z" fill="#568FC5"/>
<path d="M181.072 0H198V1.7285H190.503V24.2365H188.568V1.7285H181.072V0Z" fill="#568FC5"/>
<path d="M139.7 11.9304V24.2365H137.784V0H139.7V11.9304L150.09 0H152.607L142.011 11.9304L153.378 24.2365H150.86L139.7 11.9304Z" fill="white"/>
<path d="M167.798 24.2365H165.882V0H167.798V24.2365Z" fill="white"/>
<path d="M181.072 0H198V1.7285H190.504V24.2365H188.568V1.7285H181.072V0Z" fill="white"/>
</svg>
