<svg width="198" height="24" viewBox="0 0 198 24" fill="none" xmlns="http://www.w3.org/2000/svg">
<path d="M2.89767 24H1V0H2.89767V24Z" fill="white"/>
<path d="M35.2794 0V24H33.5678L20.4143 3.6093V24H18.5167V0H20.2283L33.3818 20.3721V0H35.2794Z" fill="white"/>
<path d="M48.4426 0H65.2054V1.71163H57.7821V24H55.8659V1.71163H48.4426V0Z" fill="white"/>
<path d="M93.2337 22.2884V24H78.3686V0H92.843V1.71163H80.2662V10.6605H91.8941V12.3721H80.2662V22.2884H93.2337Z" fill="white"/>
<path d="M123.532 24H121.243L115.532 13.7116H109.429V24H107.532V0H115.922C116.964 0 117.926 0.179845 118.806 0.539535C119.699 0.886822 120.468 1.37054 121.113 1.9907C121.758 2.61085 122.26 3.34264 122.62 4.18605C122.98 5.02946 123.16 5.91628 123.16 6.84651C123.16 8.27287 122.862 9.42636 122.267 10.307C121.671 11.1752 121.014 11.8512 120.295 12.3349C119.451 12.893 118.502 13.2899 117.448 13.5256L123.532 24ZM109.429 12H115.922C116.679 12 117.38 11.8698 118.025 11.6093C118.682 11.3364 119.246 10.9643 119.718 10.493C120.201 10.0217 120.574 9.47597 120.834 8.85581C121.107 8.23566 121.243 7.56589 121.243 6.84651C121.243 6.13953 121.107 5.47597 120.834 4.85581C120.574 4.23566 120.201 3.68992 119.718 3.2186C119.246 2.74729 118.682 2.3814 118.025 2.12093C117.38 1.84806 116.679 1.71163 115.922 1.71163H109.429V12Z" fill="white"/>
<path d="M139.337 11.814V24H137.439V0H139.337V11.814L149.625 0H152.118L141.625 11.814L152.881 24H150.388L139.337 11.814Z" fill="white"/>
<path d="M167.16 24H165.263V0H167.16V24Z" fill="white"/>
<path d="M180.305 0H197.068V1.71163H189.644V24H187.728V1.71163H180.305V0Z" fill="white"/>
<path d="M139.337 11.814V24H137.439V0H139.337V11.814L149.625 0H152.118L141.625 11.814L152.881 24H150.388L139.337 11.814Z" fill="white"/>
<path d="M167.161 24H165.263V0H167.161V24Z" fill="white"/>
<path d="M180.305 0H197.068V1.71163H189.645V24H187.728V1.71163H180.305V0Z" fill="white"/>
</svg>
