<svg width="64" height="64" viewBox="0 0 64 64" fill="none" xmlns="http://www.w3.org/2000/svg">
    <path d="M39.0994 8.76001L39.0997 8.75974C44.7759 3.08048 53.3924 1 57.7346 1C59.8854 1 61.0892 1.44808 61.8222 2.17823C62.7237 3.07996 63.0616 4.79671 62.9909 6.87295C62.9227 8.87705 62.4869 10.9082 62.1807 12.1101C61.4261 15.0675 59.517 20.6235 55.2403 24.8972L55.2401 24.8974L42.9824 37.1551L42.6895 37.448V37.8622V58.5203C42.6895 59.0834 42.4701 59.6161 42.0768 60.0097C42.0768 60.0097 42.0767 60.0098 42.0767 60.0098C42.0766 60.0099 42.0764 60.0101 42.0763 60.0102L39.8797 62.2037L39.8792 62.2042C39.4687 62.6147 38.9318 62.8205 38.3924 62.8205C37.853 62.8205 37.316 62.6147 36.9055 62.2042L36.9055 62.2041L1.79673 27.0985C1.79664 27.0984 1.79654 27.0983 1.79645 27.0982C0.975798 26.2752 0.975891 24.9428 1.79673 24.1199L3.9879 21.9256C3.98823 21.9253 3.98855 21.925 3.98888 21.9246C4.38627 21.5299 4.92421 21.3074 5.47975 21.3074H26.1347H26.5488L26.8417 21.0146L39.0994 8.76001ZM20.6385 27.2209L22.3456 25.5138H19.9314H8.57675H6.16161L7.86984 27.2211L13.5487 32.8968L14.2558 33.6036L14.9627 32.8967L20.6385 27.2209ZM17.9364 35.8735L17.2292 36.5807L17.9366 37.2878L26.7155 46.0637L27.4228 46.7706L28.1297 46.0635L50.0694 24.1176L50.7764 23.4104L50.0692 22.7034L41.2933 13.9306L40.5862 13.2237L39.8792 13.9307L17.9364 35.8735ZM36.7793 56.1274L38.4862 57.8334V55.4202V44.0686V41.6535L36.7789 43.3617L31.1032 49.0406L30.3962 49.7479L31.1035 50.4548L36.7793 56.1274ZM52.8258 19.5125L53.6676 20.3543L54.3514 19.3799C57.6404 14.6933 58.8616 8.89298 58.8214 6.19152L58.8068 5.20641H57.8215H57.8214H57.8212H57.821H57.8209H57.8207H57.8206H57.8204H57.8202H57.8201H57.8199H57.8197H57.8196H57.8194H57.8192H57.8191H57.8189H57.8188H57.8186H57.8184H57.8183H57.8181H57.8179H57.8178H57.8176H57.8174H57.8173H57.8171H57.817H57.8168H57.8166H57.8165H57.8163H57.8161H57.816H57.8158H57.8156H57.8155H57.8153H57.8151H57.815H57.8148H57.8147H57.8145H57.8143H57.8142H57.814H57.8138H57.8137H57.8135H57.8133H57.8132H57.813H57.8129H57.8127H57.8125H57.8124H57.8122H57.812H57.8119H57.8117H57.8115H57.8114H57.8112H57.8111H57.8109H57.8107H57.8106H57.8104H57.8102H57.8101H57.8099H57.8097H57.8096H57.8094H57.8092H57.8091H57.8089H57.8088H57.8086H57.8084H57.8083H57.8081H57.8079H57.8078H57.8076H57.8074H57.8073H57.8071H57.807H57.8068H57.8066H57.8065H57.8063H57.8061H57.806H57.8058H57.8056H57.8055H57.8053H57.8051H57.805H57.8048H57.8047H57.8045H57.8043H57.8042H57.804H57.8038H57.8037H57.8035H57.8033H57.8032H57.803H57.8028H57.8027H57.8025H57.8023H57.8022H57.802H57.8019H57.8017H57.8015H57.8014H57.8012H57.801H57.8009H57.8007H57.8005H57.8004H57.8002H57.8H57.7999H57.7997H57.7995H57.7994H57.7992H57.7991H57.7989H57.7987H57.7986H57.7984H57.7982H57.7981H57.7979H57.7977H57.7976H57.7974H57.7972H57.7971H57.7969H57.7967H57.7966H57.7964H57.7962H57.7961H57.7959H57.7957H57.7956H57.7954H57.7953H57.7951H57.7949H57.7948H57.7946H57.7944H57.7943H57.7941H57.7939H57.7938H57.7936H57.7934H57.7933H57.7931H57.7929H57.7928H57.7926H57.7924H57.7923H57.7921H57.7919H57.7918H57.7916H57.7914H57.7913H57.7911H57.7909H57.7908H57.7906H57.7904H57.7903H57.7901H57.7899H57.7898H57.7896H57.7895H57.7893H57.7891H57.789H57.7888H57.7886H57.7885H57.7883H57.7881H57.788H57.7878H57.7876H57.7875H57.7873H57.7871H57.787H57.7868H57.7866H57.7865H57.7863H57.7861H57.786H57.7858H57.7856H57.7854H57.7853H57.7851H57.785H57.7848H57.7846H57.7844H57.7843H57.7841H57.7839H57.7838H57.7836H57.7834H57.7833H57.7831H57.7829H57.7828H57.7826H57.7824H57.7823H57.7821H57.7819H57.7818H57.7816H57.7814H57.7813H57.7811H57.7809H57.7808H57.7806H57.7804H57.7803H57.7801H57.7799H57.7798H57.7796H57.7794H57.7793H57.7791H57.7789H57.7787H57.7786H57.7784H57.7782H57.7781H57.7779H57.7777H57.7776H57.7774H57.7772H57.7771H57.7769H57.7767H57.7766H57.7764H57.7762H57.7761H57.7759H57.7757H57.7755H57.7754H57.7752H57.775H57.7749H57.7747H57.7745H57.7744H57.7742H57.774H57.7738H57.7737H57.7735H57.7733H57.7732H57.773H57.7728H57.7727H57.7725H57.7723H57.7722H57.772H57.7718H57.7716H57.7715H57.7713H57.7711H57.771H57.7708H57.7706H57.7705H57.7703H57.7701H57.7699H57.7698H57.7696H57.7694H57.7693H57.7691H57.7689H57.7687H57.7686H57.7684H57.7682H57.7681H57.7679H57.7677H57.7676H57.7674H57.7672H57.767H57.7669H57.7667H57.7665H57.7664H57.7662H57.766H57.7658H57.7657H57.7655H57.7653H57.7652H57.765H57.7648H57.7646H57.7645H57.7643H57.7641H57.764H57.7638H57.7636H57.7634H57.7633H57.7631H57.7629H57.7627H57.7626H57.7624H57.7622H57.7621H57.7619H57.7617H57.7615H57.7614H57.7612H57.761H57.7609H57.7607H57.7605H57.7603H57.7602H57.76H57.7598H57.7596H57.7595H57.7593H57.7591H57.7589H57.7588H57.7586H57.7584H57.7583H57.7581H57.7579H57.7577H57.7576H57.7574H57.7572H57.757H57.7569H57.7567H57.7565H57.7563H57.7562H57.756H57.7558H57.7556H57.7555H57.7553H57.7551H57.7549H57.7548H57.7546H57.7544H57.7542H57.7541H57.7539H57.7537H57.7535H57.7534H57.7532H57.753H57.7528H57.7527H57.7525H57.7523H57.7521H57.752H57.7518H57.7516H57.7514H57.7513H57.7511H57.7509H57.7507H57.7506H57.7504H57.7502H57.75H57.7499H57.7497H57.7495H57.7493H57.7492H57.749H57.7488H57.7486H57.7484H57.7483H57.7481H57.7479H57.7477H57.7476H57.7474H57.7472H57.747H57.7469H57.7467H57.7465H57.7463H57.7461H57.746H57.7458H57.7456H57.7454H57.7453H57.7451H57.7449H57.7447H57.7445H57.7444H57.7442H57.744H57.7438H57.7437H57.7435H57.7433H57.7431H57.7429H57.7428H57.7426H57.7424H57.7422H57.742H57.7419H57.7417H57.7415H57.7413H57.7411H57.741H57.7408H57.7406H57.7404H57.7402H57.7401H57.7399H57.7397H57.7395H57.7393H57.7392H57.739H57.7388H57.7386H57.7384H57.7383H57.7381H57.7379H57.7377H57.7375H57.7374H57.7372H57.737H57.7368H57.7366H57.7365H57.7363H57.7361H57.7359H57.7357H57.7356H57.7354H57.7352H57.735H57.7348H57.7346C54.7225 5.20641 49.141 6.46898 44.6168 9.6456L43.6428 10.3295L44.4844 11.1711L52.8258 19.5125Z"
          fill="url(#paint0_linear)" stroke="white" stroke-width="2"/>
    <path d="M19.3473 54.8439L19.3481 54.8431C19.8728 54.3184 20.2879 53.736 20.6065 53.1192L23.6464 56.1612C23.2575 56.756 22.8285 57.3102 22.3249 57.8137C21.4084 58.7302 19.9653 59.5232 18.1822 60.188C16.4151 60.8468 14.3965 61.35 12.4045 61.7311C8.42149 62.4931 4.64232 62.7491 3.40004 62.8164C3.39997 62.8164 3.3999 62.8164 3.39983 62.8164L1.05857 62.9426L1.18473 60.6044C1.18473 60.6043 1.18474 60.6043 1.18474 60.6042C1.252 59.3616 1.50649 55.5824 2.26736 51.5986C2.64788 49.6063 3.15058 47.5871 3.80924 45.8192C4.4738 44.0355 5.26694 42.5912 6.18427 41.6731C6.68528 41.1721 7.24017 40.7421 7.83432 40.3525L10.8765 43.3947C10.2619 43.7129 9.67934 44.1268 9.1577 44.6502C8.67118 45.1361 8.27839 45.8786 7.95036 46.6825C7.61105 47.514 7.29805 48.5215 7.01555 49.6294C6.45003 51.8473 5.98765 54.5442 5.68751 57.2047L5.54717 58.4486L6.79138 58.3107C9.44206 58.0169 12.1301 57.5631 14.3466 57.0005C15.4539 56.7195 16.4626 56.4065 17.298 56.0647C18.1083 55.7332 18.8541 55.336 19.3473 54.8439Z"
          fill="url(#paint1_linear)" stroke="white" stroke-width="2"/>
    <defs>
        <linearGradient id="paint0_linear" x1="3.63858" y1="3.17681" x2="154.523" y2="49.3314"
                        gradientUnits="userSpaceOnUse">
            <stop offset="0.16846" stop-color="#3A2390"/>
            <stop offset="1" stop-color="#7BB8DA"/>
        </linearGradient>
        <linearGradient id="paint1_linear" x1="1.3497" y1="40.3257" x2="60.2504" y2="58.3412"
                        gradientUnits="userSpaceOnUse">
            <stop offset="0.16846" stop-color="#3A2390"/>
            <stop offset="1" stop-color="#7BB8DA"/>
        </linearGradient>
    </defs>
</svg>
