<svg width="134" height="40" viewBox="0 0 134 40" fill="none" xmlns="http://www.w3.org/2000/svg">
<g clip-path="url(#clip0)">
<path d="M128.395 39.7531H4.93827C2.22222 39.7531 0 37.5308 0 34.8148V5.18515C0 2.4691 2.22222 0.24688 4.93827 0.24688H128.395C131.111 0.24688 133.333 2.4691 133.333 5.18515V34.8148C133.333 37.5308 131.111 39.7531 128.395 39.7531Z" fill="black"/>
<path d="M128.395 0.24688H4.93827C2.22222 0.24688 0 2.4691 0 5.18515V34.8148C0 37.5308 2.22222 39.7531 4.93827 39.7531H128.395C131.111 39.7531 133.333 37.5308 133.333 34.8148V5.18515C133.333 2.4691 131.111 0.24688 128.395 0.24688ZM128.395 1.037C130.682 1.037 132.543 2.89814 132.543 5.18515V34.8148C132.543 37.1022 130.682 38.9633 128.395 38.9633H4.93827C2.65126 38.9633 0.790123 37.1022 0.790123 34.8148V5.18515C0.790123 2.89814 2.65126 1.037 4.93827 1.037H128.395Z" fill="#A6A6A6"/>
<path d="M46.8329 10.3638C46.8329 11.1913 46.5879 11.8503 46.0971 12.3418C45.5397 12.9263 44.8132 13.2188 43.92 13.2188C43.0647 13.2188 42.3375 12.9225 41.7395 12.3291C41.1404 11.7361 40.8414 11.0008 40.8414 10.1234C40.8414 9.24571 41.1404 8.5108 41.7395 7.91742C42.3375 7.32443 43.0647 7.02774 43.92 7.02774C44.3444 7.02774 44.7508 7.1107 45.1365 7.27623C45.5223 7.44216 45.8318 7.66241 46.0633 7.93826L45.5424 8.45944C45.1501 7.9907 44.6099 7.75653 43.92 7.75653C43.2962 7.75653 42.7569 7.97569 42.3017 8.41431C41.8464 8.85342 41.6188 9.4228 41.6188 10.1234C41.6188 10.8241 41.8464 11.3935 42.3017 11.8326C42.7569 12.2712 43.2962 12.4904 43.92 12.4904C44.5818 12.4904 45.1335 12.27 45.5752 11.8287C45.8619 11.5412 46.0277 11.1416 46.072 10.6284H43.92V9.91663H46.7917C46.8194 10.0714 46.8329 10.2199 46.8329 10.3638Z" fill="white"/>
<path d="M46.8329 10.3638H46.7342C46.7334 11.1724 46.4972 11.8005 46.0273 12.272L46.0262 12.2728L46.0258 12.2736C45.4861 12.8379 44.7924 13.1188 43.9201 13.12C43.0876 13.1188 42.3908 12.8348 41.8089 12.2592C41.2284 11.6824 40.9413 10.9783 40.9402 10.1234C40.9413 9.26812 41.2284 8.56442 41.8089 7.98802C42.3908 7.41202 43.0876 7.12768 43.9201 7.12649C44.3317 7.12649 44.7237 7.20679 45.0975 7.36689C45.4718 7.52817 45.7674 7.73953 45.9876 8.00195L46.0633 7.93824L45.9934 7.86842L45.4725 8.39L45.5424 8.45943L45.6184 8.39622C45.2079 7.90427 44.6316 7.65627 43.9201 7.65775C43.2731 7.65696 42.7041 7.88807 42.2333 8.34338C41.7581 8.80017 41.5193 9.40155 41.5201 10.1234C41.5193 10.8453 41.7581 11.4467 42.2333 11.9035C42.7041 12.3588 43.2731 12.5899 43.9201 12.5891C44.6037 12.5903 45.1863 12.3584 45.645 11.8985C45.9514 11.5914 46.125 11.1659 46.1705 10.6369L46.1797 10.5297H44.0188V10.0154H46.7917V9.91662L46.6944 9.934C46.7214 10.0837 46.7342 10.226 46.7342 10.3638H46.8329H46.9317C46.9317 10.2137 46.9178 10.0594 46.8888 9.89893L46.8742 9.81785H43.8213V10.6284V10.7272H46.0721V10.6284L45.9737 10.6199C45.9301 11.1169 45.7719 11.4911 45.5053 11.7589C45.0809 12.1817 44.5602 12.3904 43.9201 12.3916C43.3194 12.3908 42.8097 12.184 42.3703 11.7616C41.9352 11.3406 41.7187 10.8032 41.7176 10.1234C41.7187 9.44363 41.9352 8.90624 42.3703 8.48531C42.8097 8.06289 43.3194 7.85607 43.9201 7.85528C44.5879 7.85686 45.0922 8.0775 45.4668 8.52313L45.5363 8.6057L46.1331 8.00807L46.1971 7.94407L46.1388 7.87494C45.8962 7.58565 45.5729 7.35602 45.1755 7.18555C44.7773 7.01459 44.3572 6.92896 43.9201 6.92896C43.042 6.92817 42.2843 7.23681 41.6697 7.84758C41.0528 8.45716 40.7419 9.22338 40.7427 10.1234C40.7419 11.0231 41.0528 11.7897 41.6701 12.3997C42.2843 13.01 43.042 13.3183 43.9201 13.3175C44.8344 13.3183 45.5929 13.0146 46.1685 12.41L46.0971 12.3418L46.167 12.4116C46.6786 11.9004 46.9324 11.2098 46.9317 10.3638H46.8329Z" fill="white"/>
<path d="M51.3854 7.8885H48.6867V9.76741H51.1204V10.4795H48.6867V12.3584H51.3854V13.0864H47.9259V7.1605H51.3854V7.8885Z" fill="white"/>
<path d="M51.3854 7.88849V7.78973H48.5879V9.86617H51.0216V10.3804L48.5879 10.3807V12.4572H51.2866V12.9876H48.0247V7.25926H51.2866V7.88849H51.3854V7.78973V7.88849H51.4841V7.16049V7.06173H47.8271V13.1852H51.4841V12.3584V12.2596H48.7855V10.5783H51.2191V9.7674V9.66864H48.7855V7.98726H51.4841V7.88849H51.3854Z" fill="white"/>
<path d="M54.5964 13.0864H53.8344V7.8885H52.1793V7.1605H56.2515V7.8885H54.5964V13.0864Z" fill="white"/>
<path d="M54.5964 13.0864V12.9876H53.9332V7.78973H52.2781V7.25926H56.1528V7.78973H54.4977V13.0864H54.5964V12.9876V13.0864H54.6952V7.98726H56.3503V7.16049V7.06173H52.0806V7.88849V7.98726H53.7357V13.1852H54.5964H54.6952V13.0864H54.5964Z" fill="white"/>
<path d="M59.1979 13.0864V7.1605H59.9591V13.0864H59.1979Z" fill="white"/>
<path d="M59.1979 13.0864H59.2967V7.25926H59.8603V12.9876H59.1979V13.0864H59.2967H59.1979V13.1852H59.9591H60.0578V7.06173H59.1979H59.0991V13.1852H59.1979V13.0864Z" fill="white"/>
<path d="M63.3368 13.0864H62.5748V7.8885H60.9198V7.1605H64.9919V7.8885H63.3368V13.0864Z" fill="white"/>
<path d="M63.3368 13.0864V12.9876H62.6736V7.78973H61.0186V7.25926H64.8931V7.78973H63.238V13.0864H63.3368V12.9876V13.0864H63.4356V7.98726H65.0907V7.16049V7.06173H60.821V7.88849V7.98726H62.4761V13.1852H63.3368H63.4356V13.0864H63.3368Z" fill="white"/>
<path d="M68.9178 11.8245C69.3564 12.2685 69.8931 12.4904 70.5278 12.4904C71.1625 12.4904 71.6995 12.2685 72.1374 11.8245C72.5764 11.3804 72.7963 10.8128 72.7963 10.1234C72.7963 9.43406 72.5764 8.86646 72.1374 8.42241C71.6995 7.97836 71.1625 7.75653 70.5278 7.75653C69.8931 7.75653 69.3564 7.97836 68.9178 8.42241C68.4799 8.86646 68.26 9.43406 68.26 10.1234C68.26 10.8128 68.4799 11.3804 68.9178 11.8245ZM72.7006 12.3206C72.118 12.9197 71.3935 13.2188 70.5278 13.2188C69.6612 13.2188 68.9371 12.9197 68.3557 12.3206C67.7727 11.7222 67.4827 10.9896 67.4827 10.1234C67.4827 9.25727 67.7727 8.52463 68.3557 7.92631C68.9371 7.3271 69.6612 7.02774 70.5278 7.02774C71.3889 7.02774 72.1115 7.32868 72.6968 7.93016C73.2813 8.53164 73.5737 9.2627 73.5737 10.1234C73.5737 10.9896 73.282 11.7222 72.7006 12.3206Z" fill="white"/>
<path d="M68.9178 11.8245L68.8476 11.8939C69.3025 12.3557 69.87 12.5903 70.5278 12.5891C71.1852 12.5903 71.7535 12.3557 72.2076 11.8939C72.6655 11.4317 72.8958 10.8337 72.8951 10.1234C72.8958 9.41321 72.6655 8.81518 72.2076 8.35296C71.7535 7.89113 71.1852 7.65656 70.5278 7.65775C69.87 7.65656 69.3025 7.89113 68.8476 8.35296C68.3908 8.81518 68.1601 9.41321 68.1613 10.1234C68.1601 10.8337 68.3908 11.4317 68.8476 11.8939L68.9178 11.8245L68.9881 11.755C68.5691 11.3287 68.3596 10.7924 68.3588 10.1234C68.3596 9.45449 68.5691 8.9182 68.9881 8.49183C69.4109 8.06555 69.9159 7.85647 70.5278 7.85528C71.1393 7.85647 71.6454 8.06555 72.0672 8.49183C72.4869 8.9182 72.6964 9.45449 72.6972 10.1234C72.6964 10.7924 72.4869 11.3287 72.0672 11.755C71.6454 12.1813 71.1393 12.3904 70.5278 12.3916C69.9159 12.3904 69.4109 12.1813 68.9881 11.755L68.9178 11.8245ZM72.7006 12.3206L72.63 12.2519C72.0637 12.8322 71.3712 13.1188 70.5278 13.12C69.6841 13.1188 68.9915 12.8322 68.4263 12.2519L68.4236 12.2489L68.4263 12.2519C67.8611 11.6697 67.5822 10.9676 67.5814 10.1234C67.5822 9.27928 67.8611 8.57716 68.4263 7.99494C68.9915 7.41469 69.6841 7.12768 70.5278 7.12649C71.3657 7.12768 72.0567 7.41587 72.6262 7.99918C73.1933 8.58407 73.4738 9.28511 73.475 10.1234C73.4738 10.9676 73.1941 11.6697 72.63 12.2519L72.7006 12.3206L72.7717 12.3892C73.3704 11.7743 73.6732 11.0115 73.6725 10.1234C73.6732 9.24037 73.3692 8.47918 72.7677 7.8615C72.1659 7.24145 71.4121 6.92787 70.5278 6.92896C69.6389 6.92787 68.8828 7.23997 68.2847 7.85765V7.85726C67.6848 8.47256 67.3831 9.23533 67.3839 10.1234C67.3831 11.0115 67.6848 11.7743 68.2847 12.3896L68.2874 12.3924L68.2847 12.3892C68.8828 13.0069 69.6389 13.3183 70.5278 13.3175C71.4163 13.3183 72.1724 13.0069 72.7717 12.3892L72.7006 12.3206Z" fill="white"/>
<path d="M74.6423 13.0864V7.1605H75.5691L78.4491 11.7705H78.4818L78.4491 10.6285V7.1605H79.211V13.0864H78.4163L75.4031 8.25304H75.3703L75.4031 9.39546V13.0864H74.6423Z" fill="white"/>
<path d="M74.6423 13.0864H74.7411V7.25926H75.5142L78.3942 11.8692H78.4818H78.5833L78.5478 10.627V7.25926H79.1123V12.9876H78.4711L75.4579 8.15427H75.3703H75.2689L75.3044 9.39703V12.9876H74.6423V13.0864H74.7411H74.6423V13.1852H75.4031H75.5019V9.39387L75.4691 8.25037L75.3703 8.25303V8.3518H75.4031V8.25303L75.3194 8.30558L78.3614 13.1852H79.211H79.3098V7.06173H78.449H78.3503V10.6296L78.3831 11.7731L78.4818 11.7705V11.6717H78.449V11.7705L78.5328 11.718L75.6238 7.06173H74.6423H74.5436V13.1852H74.6423V13.0864Z" fill="white"/>
<path d="M105.616 29.8765H107.459V17.5296H105.616V29.8765ZM122.215 21.9772L120.103 27.3302H120.04L117.847 21.9772H115.862L119.15 29.459L117.275 33.6207H119.198L124.265 21.9772H122.215ZM111.764 28.4741C111.16 28.4741 110.318 28.1724 110.318 27.4255C110.318 26.4725 111.367 26.1072 112.272 26.1072C113.083 26.1072 113.463 26.2819 113.956 26.5204C113.812 27.6639 112.828 28.4741 111.764 28.4741ZM111.986 21.7071C110.652 21.7071 109.27 22.295 108.698 23.5976L110.334 24.2804C110.684 23.5976 111.334 23.3749 112.018 23.3749C112.971 23.3749 113.94 23.9471 113.956 24.9637V25.0906C113.622 24.9 112.908 24.6141 112.034 24.6141C110.271 24.6141 108.475 25.5828 108.475 27.3938C108.475 29.0459 109.921 30.1102 111.541 30.1102C112.78 30.1102 113.463 29.5543 113.892 28.9031H113.956V29.856H115.734V25.1222C115.734 22.9305 114.099 21.7071 111.986 21.7071ZM100.597 23.4802H97.9754V19.248H100.597C101.974 19.248 102.757 20.3888 102.757 21.3641C102.757 22.3209 101.974 23.4802 100.597 23.4802ZM100.549 17.5296H96.1334V29.8765H97.9754V25.1986H100.549C102.592 25.1986 104.6 23.7198 104.6 21.3641C104.6 19.0084 102.592 17.5296 100.549 17.5296ZM76.4692 28.4764C75.196 28.4764 74.13 27.4104 74.13 25.9463C74.13 24.4668 75.196 23.3846 76.4692 23.3846C77.7262 23.3846 78.7126 24.4668 78.7126 25.9463C78.7126 27.4104 77.7262 28.4764 76.4692 28.4764ZM78.5853 22.6686H78.5216C78.1081 22.1754 77.3121 21.7299 76.3099 21.7299C74.2095 21.7299 72.2844 23.5755 72.2844 25.9463C72.2844 28.3013 74.2095 30.1311 76.3099 30.1311C77.3121 30.1311 78.1081 29.6855 78.5216 29.1766H78.5853V29.7812C78.5853 31.3885 77.7262 32.2476 76.3419 32.2476C75.2122 32.2476 74.512 31.4359 74.2253 30.7518L72.6185 31.4201C73.0799 32.5339 74.3052 33.9023 76.3419 33.9023C78.5058 33.9023 80.3356 32.6292 80.3356 29.5265V21.9845H78.5853V22.6686ZM81.6084 29.8765H83.4542V17.5292H81.6084V29.8765ZM86.1752 25.8032C86.1274 24.1801 87.4321 23.3529 88.3708 23.3529C89.1033 23.3529 89.7235 23.7186 89.9299 24.2442L86.1752 25.8032ZM91.9033 24.4031C91.5536 23.464 90.487 21.7299 88.3071 21.7299C86.1432 21.7299 84.3453 23.4324 84.3453 25.9305C84.3453 28.2855 86.1273 30.1311 88.5139 30.1311C90.4395 30.1311 91.5536 28.9536 92.0149 28.2696L90.5828 27.3147C90.1057 28.0149 89.4529 28.4764 88.5139 28.4764C87.5753 28.4764 86.9071 28.0466 86.4773 27.2036L92.0939 24.8803L91.9033 24.4031ZM47.1544 23.0188V24.8008H51.4186C51.2913 25.8032 50.9572 26.535 50.4479 27.0443C49.8276 27.665 48.8569 28.3491 47.1544 28.3491C44.5289 28.3491 42.4765 26.2329 42.4765 23.6075C42.4765 20.9821 44.5289 18.8657 47.1544 18.8657C48.5706 18.8657 49.6046 19.4227 50.3684 20.1388L51.6254 18.8819C50.5594 17.8633 49.1432 17.0837 47.1544 17.0837C43.5583 17.0837 40.5352 20.0115 40.5352 23.6075C40.5352 27.2036 43.5583 30.1311 47.1544 30.1311C49.0957 30.1311 50.5595 29.4949 51.7049 28.3013C52.8824 27.1238 53.2485 25.4691 53.2485 24.1327C53.2485 23.7186 53.2168 23.3371 53.1528 23.0188H47.1544ZM58.0965 28.4764C56.8234 28.4764 55.7254 27.4262 55.7254 25.9305C55.7254 24.4189 56.8234 23.3846 58.0965 23.3846C59.3692 23.3846 60.4672 24.4189 60.4672 25.9305C60.4672 27.4262 59.3692 28.4764 58.0965 28.4764ZM58.0965 21.7299C55.7732 21.7299 53.8797 23.496 53.8797 25.9305C53.8797 28.3491 55.7732 30.1311 58.0965 30.1311C60.4194 30.1311 62.3129 28.3491 62.3129 25.9305C62.3129 23.496 60.4194 21.7299 58.0965 21.7299ZM67.2948 28.4764C66.0221 28.4764 64.924 27.4262 64.924 25.9305C64.924 24.4189 66.0221 23.3846 67.2948 23.3846C68.5676 23.3846 69.6655 24.4189 69.6655 25.9305C69.6655 27.4262 68.5676 28.4764 67.2948 28.4764ZM67.2948 21.7299C64.9715 21.7299 63.0784 23.496 63.0784 25.9305C63.0784 28.3491 64.9715 30.1311 67.2948 30.1311C69.6177 30.1311 71.5113 28.3491 71.5113 25.9305C71.5113 23.496 69.6177 21.7299 67.2948 21.7299Z" fill="white"/>
<path d="M10.3801 32.2366L10.3067 32.1664C10.0193 31.8623 9.84961 31.3901 9.84961 30.7786V30.9225V9.07954C9.84961 9.07756 9.84961 9.07608 9.84961 9.0745C9.84961 9.07638 9.84961 9.07796 9.84961 9.07993V9.22423C9.84961 8.5621 10.0474 8.06334 10.3789 7.76428L22.6157 20.0008L10.3801 32.2366ZM9.84961 9.07331C9.84961 9.01889 9.85109 8.96605 9.85386 8.91401C9.85109 8.96566 9.84961 9.01889 9.84961 9.07331ZM9.85386 8.91164C9.85386 8.91094 9.85386 8.91015 9.85415 8.90936C9.85386 8.91015 9.85386 8.91094 9.85386 8.91164ZM9.85415 8.90472C9.85415 8.90433 9.85415 8.90393 9.85415 8.90354C9.85415 8.90393 9.85415 8.90433 9.85415 8.90472Z" fill="url(#paint0_linear)"/>
<path d="M26.694 24.2257L26.7871 24.1729L31.6196 21.4271C32.0803 21.1652 32.3874 20.8476 32.5406 20.5116C32.3878 20.8476 32.0806 21.1656 31.6196 21.4275L26.7871 24.1733L26.694 24.2257ZM26.6952 24.081L22.6157 20.0008L26.6948 15.9213L31.6196 18.7191C32.245 19.0745 32.5961 19.5325 32.6547 20.0004C32.6547 20.0008 32.6547 20.0016 32.6547 20.0023C32.5961 20.4692 32.245 20.9275 31.6196 21.2828L26.6952 24.081Z" fill="url(#paint1_linear)"/>
<path d="M11.2523 32.7025C10.9105 32.7025 10.6122 32.5914 10.3796 32.3815L10.38 32.3811C10.6126 32.591 10.9113 32.7025 11.2531 32.7025C11.2827 32.7025 11.3129 32.7017 11.3434 32.7002C11.3125 32.7017 11.282 32.7025 11.2523 32.7025ZM11.2527 32.5578C10.9109 32.5582 10.6126 32.4467 10.38 32.2368V32.2365L22.6157 20.0008L26.6952 24.081L12.3592 32.2265C11.9625 32.4514 11.5867 32.5578 11.2527 32.5578ZM10.3766 32.3789C10.3549 32.3592 10.3337 32.3384 10.3129 32.3167L10.3766 32.3789Z" fill="url(#paint2_linear)"/>
<path d="M22.6157 20.0007L10.3789 7.76419C10.6115 7.55471 10.9094 7.4436 11.2508 7.4436C11.5857 7.4436 11.9618 7.55046 12.3593 7.77575L26.6949 15.9212L22.6157 20.0007ZM26.7871 15.8291L12.3593 7.63155C11.9618 7.40617 11.5857 7.2993 11.2508 7.2993C11.2492 7.2993 11.2481 7.2993 11.2466 7.2993C11.2485 7.2993 11.25 7.2993 11.2524 7.2993C11.5865 7.2993 11.9622 7.40577 12.3593 7.63115L26.7871 15.8291Z" fill="url(#paint3_linear)"/>
<path d="M11.3434 32.7002C11.6539 32.6824 11.9977 32.5756 12.3592 32.3707L26.694 24.2256L12.3592 32.3707C11.998 32.5759 11.6539 32.6824 11.3434 32.7002ZM10.3796 32.3815L10.3766 32.3788C10.3777 32.3796 10.3788 32.3807 10.3796 32.3815ZM10.3129 32.3167L10.3066 32.3106V32.3102C10.309 32.3124 10.3109 32.3147 10.3129 32.3167Z" fill="black"/>
<path d="M26.694 24.2257L26.787 24.1729L26.694 24.2257Z" fill="url(#paint4_linear)"/>
<path d="M11.2531 32.7025C10.9113 32.7025 10.6126 32.591 10.38 32.3811L10.3796 32.3815C10.3788 32.3807 10.3777 32.3796 10.3766 32.3789L10.3129 32.3167C10.3109 32.3148 10.309 32.3125 10.3066 32.3102L10.38 32.2368C10.6126 32.4467 10.9109 32.5582 11.2527 32.5578C11.5867 32.5578 11.9625 32.4514 12.3592 32.2265L26.6952 24.081L26.787 24.1728L26.694 24.2257L12.3592 32.3708C11.9977 32.5756 11.6539 32.6825 11.3434 32.7002C11.3129 32.7017 11.2827 32.7025 11.2531 32.7025Z" fill="url(#paint5_linear)"/>
<path d="M10.3067 32.3105C10.0193 32.0064 9.84961 31.5342 9.84961 30.9228V30.9224C9.84961 31.5342 10.0193 32.0061 10.3067 32.3102V32.3105Z" fill="black"/>
<path d="M10.3067 32.3102C10.0193 32.0061 9.84961 31.5343 9.84961 30.9224V30.7785C9.84961 31.39 10.0193 31.8622 10.3067 32.1663L10.3801 32.2365L10.3067 32.3102Z" fill="url(#paint6_linear)"/>
<path d="M10.3066 32.3102L10.38 32.2365V32.2368L10.3066 32.3102Z" fill="url(#paint7_linear)"/>
<path d="M32.5405 20.5116C32.6165 20.3449 32.6547 20.1736 32.6547 20.0023C32.6547 20.002 32.6547 20.0016 32.6547 20.0016C32.6547 20.1732 32.6165 20.3445 32.5405 20.5116Z" fill="black"/>
<path d="M26.787 24.1729L26.6952 24.081L31.6195 21.2828C32.2449 20.9275 32.596 20.4691 32.6547 20.0023C32.6547 20.1736 32.6165 20.3449 32.5405 20.5116C32.3873 20.8476 32.0803 21.1651 31.6195 21.4271L26.787 24.1729Z" fill="url(#paint8_linear)"/>
<path d="M32.6547 20.0007V20.0003C32.6543 19.4837 32.309 18.9672 31.6195 18.5752L26.787 15.8294H26.7866L26.787 15.8291L31.6195 18.5748C32.3098 18.9668 32.6555 19.4841 32.6547 20.0007Z" fill="#404040"/>
<path d="M32.6547 20.0004C32.5961 19.5324 32.245 19.0744 31.6196 18.7191L26.6948 15.9213L26.7867 15.8294H26.7871L31.6196 18.5752C32.3091 18.9672 32.6543 19.4837 32.6547 20.0004Z" fill="url(#paint9_linear)"/>
<path d="M9.84961 9.07446C9.84961 9.07407 9.84961 9.07367 9.84961 9.07328C9.84961 9.07367 9.84961 9.07407 9.84961 9.07446ZM9.85386 8.91397C9.85386 8.91318 9.85386 8.91239 9.85386 8.9116C9.85386 8.91239 9.85386 8.91318 9.85386 8.91397ZM9.85415 8.90933C9.85415 8.90775 9.85415 8.90627 9.85415 8.90469C9.85415 8.90627 9.85415 8.90775 9.85415 8.90933ZM9.85415 8.9035C9.91134 7.88888 10.463 7.30281 11.2435 7.29935C10.9051 7.30133 10.6104 7.41244 10.3797 7.62034V7.61994L10.3769 7.62271C10.3526 7.64463 10.3295 7.66785 10.3067 7.69175C10.0474 7.96602 9.88388 8.37688 9.85415 8.9035Z" fill="#404040"/>
<path d="M9.84961 9.22412V9.07983C9.84961 9.07785 9.84961 9.07627 9.84961 9.07439C9.84961 9.074 9.84961 9.0736 9.84961 9.07321C9.84961 9.01879 9.85109 8.96555 9.85386 8.9139C9.85386 8.91311 9.85386 8.91232 9.85386 8.91153C9.85386 8.91084 9.85386 8.91005 9.85415 8.90926C9.85415 8.90768 9.85415 8.9062 9.85415 8.90462C9.85415 8.90422 9.85415 8.90383 9.85415 8.90343C9.88388 8.37682 10.0474 7.96595 10.3067 7.69168L10.3789 7.76417C10.0474 8.06323 9.84961 8.562 9.84961 9.22412ZM10.3769 7.62264L10.3797 7.61988C10.3789 7.62106 10.3777 7.62185 10.3769 7.62264Z" fill="url(#paint10_linear)"/>
<path d="M26.6948 15.9213L12.3592 7.77578C11.9618 7.5505 11.5857 7.44363 11.2507 7.44363C10.9093 7.44363 10.6114 7.55475 10.3788 7.76423L10.3066 7.69173C10.3295 7.66783 10.3526 7.64462 10.3769 7.62269C10.3777 7.62191 10.3788 7.62112 10.3796 7.62033C10.6103 7.41243 10.9051 7.30131 11.2434 7.29934C11.2442 7.29934 11.2453 7.29934 11.2465 7.29934C11.2481 7.29934 11.2492 7.29934 11.2507 7.29934C11.5857 7.29934 11.9618 7.4062 12.3592 7.63158L26.787 15.8291L26.7866 15.8294L26.6948 15.9213Z" fill="url(#paint11_linear)"/>
</g>
<defs>
<linearGradient id="paint0_linear" x1="21.5307" y1="8.84912" x2="4.95539" y2="25.4244" gradientUnits="userSpaceOnUse">
<stop stop-color="#00A0FF"/>
<stop offset="0.00657445" stop-color="#00A1FF"/>
<stop offset="0.2601" stop-color="#00BEFF"/>
<stop offset="0.5122" stop-color="#00D2FF"/>
<stop offset="0.7604" stop-color="#00DFFF"/>
<stop offset="1" stop-color="#00E3FF"/>
</linearGradient>
<linearGradient id="paint1_linear" x1="33.4167" y1="20.0014" x2="9.51844" y2="20.0014" gradientUnits="userSpaceOnUse">
<stop stop-color="#FFE000"/>
<stop offset="0.4087" stop-color="#FFBD00"/>
<stop offset="0.7754" stop-color="#FFA500"/>
<stop offset="1" stop-color="#FF9C00"/>
</linearGradient>
<linearGradient id="paint2_linear" x1="24.5205" y1="22.2678" x2="2.04315" y2="44.7451" gradientUnits="userSpaceOnUse">
<stop stop-color="#FF3A44"/>
<stop offset="1" stop-color="#C31162"/>
</linearGradient>
<linearGradient id="paint3_linear" x1="7.20725" y1="0.420884" x2="17.2443" y2="10.4579" gradientUnits="userSpaceOnUse">
<stop stop-color="#32A071"/>
<stop offset="0.0685" stop-color="#2DA771"/>
<stop offset="0.4762" stop-color="#15CF74"/>
<stop offset="0.8009" stop-color="#06E775"/>
<stop offset="1" stop-color="#00F076"/>
</linearGradient>
<linearGradient id="paint4_linear" x1="33.4163" y1="20.0017" x2="9.51914" y2="20.0017" gradientUnits="userSpaceOnUse">
<stop stop-color="#CCB300"/>
<stop offset="0.4087" stop-color="#CC9700"/>
<stop offset="0.7754" stop-color="#CC8400"/>
<stop offset="1" stop-color="#CC7D00"/>
</linearGradient>
<linearGradient id="paint5_linear" x1="24.5205" y1="22.2678" x2="2.04315" y2="44.7451" gradientUnits="userSpaceOnUse">
<stop stop-color="#CC2E36"/>
<stop offset="1" stop-color="#9C0E4E"/>
</linearGradient>
<linearGradient id="paint6_linear" x1="21.5307" y1="8.84902" x2="4.95536" y2="25.4243" gradientUnits="userSpaceOnUse">
<stop stop-color="#008DE0"/>
<stop offset="0.00657445" stop-color="#008DE0"/>
<stop offset="0.2601" stop-color="#00A7E0"/>
<stop offset="0.5122" stop-color="#00B8E0"/>
<stop offset="0.7604" stop-color="#00C4E0"/>
<stop offset="1" stop-color="#00C7E0"/>
</linearGradient>
<linearGradient id="paint7_linear" x1="24.5208" y1="22.268" x2="2.04403" y2="44.7458" gradientUnits="userSpaceOnUse">
<stop stop-color="#E0333C"/>
<stop offset="1" stop-color="#AB0F56"/>
</linearGradient>
<linearGradient id="paint8_linear" x1="33.4167" y1="20.0014" x2="9.5184" y2="20.0014" gradientUnits="userSpaceOnUse">
<stop stop-color="#E0C500"/>
<stop offset="0.4087" stop-color="#E0A600"/>
<stop offset="0.7754" stop-color="#E09100"/>
<stop offset="1" stop-color="#E08900"/>
</linearGradient>
<linearGradient id="paint9_linear" x1="33.4167" y1="20.0014" x2="9.51841" y2="20.0014" gradientUnits="userSpaceOnUse">
<stop stop-color="#FFE840"/>
<stop offset="0.4087" stop-color="#FFCE40"/>
<stop offset="0.7754" stop-color="#FFBC40"/>
<stop offset="1" stop-color="#FFB540"/>
</linearGradient>
<linearGradient id="paint10_linear" x1="21.5307" y1="8.84901" x2="4.9554" y2="25.4243" gradientUnits="userSpaceOnUse">
<stop stop-color="#40B8FF"/>
<stop offset="0.00657445" stop-color="#40B9FF"/>
<stop offset="0.2601" stop-color="#40CEFF"/>
<stop offset="0.5122" stop-color="#40DDFF"/>
<stop offset="0.7604" stop-color="#40E7FF"/>
<stop offset="1" stop-color="#40EAFF"/>
</linearGradient>
<linearGradient id="paint11_linear" x1="7.20718" y1="0.420918" x2="17.2442" y2="10.458" gradientUnits="userSpaceOnUse">
<stop stop-color="#65B895"/>
<stop offset="0.0685" stop-color="#62BD95"/>
<stop offset="0.4762" stop-color="#50DB97"/>
<stop offset="0.8009" stop-color="#44ED98"/>
<stop offset="1" stop-color="#40F498"/>
</linearGradient>
<clipPath id="clip0">
<rect width="134" height="40" fill="white"/>
</clipPath>
</defs>
</svg>
