<svg width="44" height="44" viewBox="0 0 44 44" fill="none" xmlns="http://www.w3.org/2000/svg">
<g clip-path="url(#clip0)">
<path d="M40.8219 10.1747C34.2218 -0.000336352 20.7467 -3.02536 10.2967 3.29969C0.121587 9.62474 -3.17844 23.3748 3.42161 33.5499L3.97162 34.3749L1.7716 42.625L10.0217 40.425L10.8467 40.975C14.4217 42.9 18.2717 44 22.1218 44C26.2468 44 30.3718 42.9 33.9468 40.7C44.1219 34.0999 47.1469 20.6248 40.8219 10.1747ZM35.0469 31.3499C33.9468 32.9999 32.5718 34.0999 30.6468 34.3749C29.5468 34.3749 28.1718 34.9249 22.6718 32.7249C17.9967 30.5249 14.1467 26.9499 11.3967 22.8248C9.74666 20.8998 8.92165 18.4248 8.64665 15.9498C8.64665 13.7498 9.47166 11.8248 10.8467 10.4497C11.3967 9.89974 11.9467 9.62474 12.4967 9.62474H13.8717C14.4217 9.62474 14.9717 9.62474 15.2467 10.7247C15.7967 12.0998 17.1717 15.3998 17.1717 15.6748C17.4467 15.9498 17.4467 16.4998 17.1717 16.7748C17.4467 17.3248 17.1717 17.8748 16.8967 18.1498C16.6217 18.4248 16.3467 18.9748 16.0717 19.2498C15.5217 19.5248 15.2467 20.0748 15.5217 20.6248C16.6217 22.2748 17.9967 23.9248 19.3717 25.2999C21.0217 26.6749 22.6718 27.7749 24.5968 28.5999C25.1468 28.8749 25.6968 28.8749 25.9718 28.3249C26.2468 27.7749 27.6218 26.3999 28.1718 25.8499C28.7218 25.2999 28.9968 25.2999 29.5468 25.5749L33.9468 27.7749C34.4968 28.0499 35.0469 28.3249 35.3219 28.5999C35.5969 29.4249 35.5969 30.5249 35.0469 31.3499Z" fill="white"/>
</g>
<defs>
<clipPath id="clip0">
<rect width="44" height="44" fill="white"/>
</clipPath>
</defs>
</svg>
